<svg width="80" height="145" viewBox="0 0 80 145" fill="none" xmlns="http://www.w3.org/2000/svg">
<path d="M75.402 86.1621C75.402 86.1621 71.4238 85.2486 69.5656 84.3776C66.0788 82.003 58.6557 77.8737 58.6557 77.8737L48.8113 74.802L38.5821 77.2068L31.9001 84.2159C31.9001 84.2159 31.8126 84.6511 31.9626 84.7068C31.5761 84.9936 30.5243 85.2751 30.5243 85.2751L22.2635 86.1976L13.2621 88.1771L6.1825 87.726C6.1825 87.726 4.47065 87.3337 3.30803 87.0723C5.02042 86.3566 8.06507 85.5455 8.06507 85.5455L13.0002 84.8223L18.4258 81.8355L21.1937 81.4935L22.1326 81.3822L23.0126 81.5264L23.4839 81.4957C23.5279 80.6893 24.2659 79.6582 24.2659 79.6582L24.5755 79.4694L25.5669 80.1979L25.6772 79.4403L25.5282 78.9266L26.3298 78.935L27.6398 78.5661L28.0734 77.5752L28.3242 76.7211L27.5523 76.7752L26.9331 76.4863L25.8998 76.4985L23.5073 78.2559L21.8866 80.5181L20.9493 80.4158L20.3195 79.1741L22.5684 77.2932L23.4421 75.5548L22.2885 73.9347L21.0134 76.0521L20.7876 77.4024L20.1117 77.5805L19.0911 76.999L18.8017 79.1095L18.7969 80.112L18.0388 80.6633L17.7302 79.6969L17.7217 78.3307L18.8854 76.2111L20.1541 74.7638L19.9865 73.5286L18.4809 73.7841L17.2557 74.5215L16.6461 75.8501L15.7369 77.3791C15.7369 77.3791 15.8652 78.9212 17.1296 78.6472C17.26 78.9621 17.3268 79.4292 17.3618 79.8596C17.2913 79.7472 17.0739 79.8183 17.0739 79.8183C17.0739 79.8183 16.0581 80.7269 15.5115 81.1362C15.466 81.1261 15.3668 81.2051 15.3668 81.2051C15.3668 81.2051 15.3414 81.2364 15.3297 81.2518C14.657 81.5943 13.3146 82.2845 13.3146 82.2845L12.4542 82.7012C12.4542 82.7012 11.6483 82.944 11.9542 83.0199C11.9458 83.0204 11.9378 83.0204 11.9304 83.0209C11.8609 83.0114 11.7925 83.013 11.7273 83.0283C10.1035 83.128 6.86905 83.9863 6.86905 83.9863C6.86905 83.9863 5.47528 84.2678 4.71346 84.4582C6.76037 81.8785 8.23418 78.8173 9.73663 75.858C10.0876 75.408 10.4105 74.942 10.6978 74.4484C10.7895 74.3927 10.93 74.2697 10.93 74.2697L11.8975 73.1978L12.9552 72.1454L13.146 71.4573C13.146 71.4573 12.6026 71.4467 12.4452 71.5957C12.2183 71.7902 11.9993 71.9933 11.7846 72.1995C11.6505 72.3204 11.5147 72.4396 11.379 72.5584C13.4164 69.1771 17.4063 62.3705 17.4063 62.3705L22.3961 58.3732L28.4679 55.9234L34.7862 53.7975L42.2396 49.262C42.2396 49.262 44.5712 47.1266 45.4358 45.7122C46.081 47.7347 47.8639 51.5958 47.8639 51.5958L51.7812 54.3229L53.2222 54.625L58.7617 54.6266L63.9116 52.4217L73.1006 44.1313L76.4952 38.597C76.4952 38.597 77.3143 33.9248 77.661 31.5715L77.7479 31.3541L77.8062 30.7036C77.8455 30.5038 77.933 30.1061 77.933 30.1061C77.933 30.1061 77.6334 29.8443 77.3609 30.0807C77.3074 30.0314 77.1812 30.0552 77.1812 30.0552L72.9379 32.8767C72.9379 32.8767 71.8734 33.8119 71.4026 34.332C71.3612 34.3346 71.3167 34.3754 71.3167 34.3754C71.3167 34.3754 71.2833 34.4481 71.2663 34.4847C70.6254 35.2062 69.3477 36.6662 69.3477 36.6662L58.5666 40.742C58.5666 40.742 57.3308 40.7335 57.282 40.7516C56.305 40.9493 54.3455 41.3713 54.3455 41.3713C54.3455 41.3713 50.3228 43.7681 48.885 43.2994C48.8452 43.2104 48.6952 43.1876 48.6952 43.1876C48.6952 43.1876 48.6735 43.1918 48.6634 43.1945C48.6374 43.1796 48.5839 43.1537 48.5839 43.1537C48.5839 43.1537 48.4646 43.1012 48.3973 43.0969C48.8797 42.746 49.3531 42.385 49.8128 42.0091C51.1122 41.0993 52.3336 40.1148 53.4681 39.0466C53.8334 38.7518 54.5449 38.1384 54.5449 38.1384L56.7206 36.0237C56.7206 36.0237 56.7811 35.9494 56.8118 35.9134C60.2663 32.153 62.7076 27.5339 63.1736 22.5218C63.7971 20.16 64.7752 15.376 64.7752 15.376L64.9893 13.8507L65.1717 11.8945L66.0311 0.301671C66.0311 0.301671 65.8556 0.129887 65.6611 0.13943C65.6547 0.0933066 65.6494 0.0466532 65.6398 0C58.4123 4.38487 49.4311 18.1094 49.4311 18.1094C49.4311 18.1094 44.0076 33.6656 45.3123 42.175C42.8742 39.2173 43.0814 30.2641 43.0814 30.2641L43.7722 25.1949L42.5879 11.7995L42.2078 11.1231L41.8298 11.8913L39.1801 20.3519L34.5805 33.4609L36.0045 39.1643L39.7929 41.7424C39.7929 41.7424 42.8127 43.3191 44.6841 43.6769C43.0459 45.7026 39.1143 48.734 39.1143 48.734L28.8188 53.2827L24.373 54.4374C24.373 54.4374 23.9399 54.6643 23.4829 54.914C23.4458 54.9452 23.4102 54.9786 23.3731 55.0094C23.3541 55.0433 23.2904 55.1022 23.2904 55.1022L22.4846 55.6779C22.4846 55.6779 22.412 55.7166 22.3786 55.7225C22.1066 55.9001 21.5637 56.2531 21.5637 56.2531L21.2388 55.8327C21.2388 55.8327 21.4238 55.6514 21.5155 55.5597C21.5659 54.5455 21.8967 53.6209 22.2943 52.7149C24.1811 45.0935 26.4814 37.542 25.4752 29.4111C26.2513 29.5792 27.697 29.9042 27.697 29.9042L29.9905 29.1031C30.4257 29.1418 30.7094 29.1683 30.7094 29.1683C30.7094 29.1683 30.8636 29.0427 31.0958 28.8322C31.1727 28.7866 31.2915 28.7081 31.4097 28.6069L33.0611 28.0301L34.4416 23.0737C34.1368 23.685 33.4423 24.8746 32.3231 25.752C32.2802 25.6524 32.2335 25.5548 32.1832 25.4615C34.2232 23.5074 34.2057 20.4993 34.8832 17.8671C34.9505 17.9159 35.1218 18.2753 35.1218 18.2753L34.6743 22.2393L35.864 17.9652C35.864 17.9652 35.7664 17.3242 35.6509 16.9823C35.4934 16.3291 35.302 15.6776 35.0306 15.0706C35.012 15.0202 34.9686 14.9173 34.9686 14.9173C34.9686 14.9173 34.9405 14.8675 34.9267 14.8474C34.914 14.7711 34.8933 14.6184 34.8933 14.6184L34.5603 14.119C34.5603 14.119 34.5582 14.1184 34.5572 14.1179C34.4421 14.0352 34.1903 14.2918 34.1903 14.2918C34.1903 14.2918 33.9178 14.8994 33.7768 15.2005C33.7604 15.227 33.745 15.2598 33.7296 15.2996C33.6395 15.491 33.5483 15.6829 33.4582 15.8743C33.1904 16.3779 32.9301 16.8832 32.664 17.3852C32.5834 17.364 32.5214 17.3757 32.5119 17.4419L32.3761 17.8597C32.3284 17.9323 32.3014 18.0033 32.2892 18.0707C32.0559 18.4911 31.8046 18.9025 31.5406 19.3081C31.0423 19.7529 30.0361 20.6324 30.0361 20.6324C30.0361 20.6324 29.0638 21.3099 28.6184 21.6826C28.5607 21.6609 28.3666 21.7722 28.3666 21.7722C28.3666 21.7722 28.0517 22.058 27.9266 22.2117C27.7776 22.1725 27.4638 22.6035 27.4638 22.6035C27.4638 22.6035 27.2655 23.0525 27.3832 23.1538C27.2438 23.4878 26.9888 24.2125 26.9888 24.2125C26.9888 24.2125 26.5943 25.1758 26.3674 25.6455C27.0736 23.1193 27.1992 18.7042 27.1992 18.7042L27.1801 15.7285L25.6512 7.50904L25.1014 6.78115L24.5469 7.31609L21.9492 14.6263C21.9492 14.6263 21.27 19.9077 21.9407 22.9767C20.8957 22.2499 18.4777 21.2728 18.4777 21.2728C18.4777 21.2728 15.3096 19.8796 13.7249 19.184C12.9207 18.4439 11.3234 16.9468 11.3234 16.9468C11.3234 16.9468 10.9835 16.8694 10.8086 16.9945C10.7953 16.9887 10.7863 16.9855 10.7863 16.9855C10.7863 16.9855 10.7773 17.0035 10.7656 17.0279C10.5011 17.2415 10.3129 17.6238 10.516 17.8284C10.1957 21.4207 13.2187 27.3573 13.2187 27.3573L14.034 28.0184L18.237 29.5914L21.4068 29.8798L24.0077 29.7775L24.4324 30.5854L24.0008 37.1974L21.9322 48.1768L19.7761 53.0563L13.7053 64.3045L8.30946 72.9778L4.74898 78.7797L-3.7297 88.4905C-3.7297 88.4905 -6.47111 91.0691 -7.41477 92.7523C-7.33843 90.6747 -6.19702 86.8444 -6.19702 86.8444L-5.62498 83.7504L-5.2841 79.9079L-3.54892 75.1408L-1.96802 72.2573L-0.394531 70.9918L0.0852585 71.1159L1.81036 71.4615L2.45396 69.2656L1.10897 68.1481L0.0142136 69.1135C0.0142136 69.1135 -0.901886 69.8037 -1.87312 69.5938C-0.909836 69.3123 -0.197319 68.2647 -0.197319 68.2647L-0.380745 66.2109L-1.1044 65.6474L-1.79413 66.1961L-2.20181 68.8643L-2.4144 70.2491C-2.4144 70.2491 -2.0767 71.338 -2.60101 71.8766C-3.37821 71.2622 -3.09724 69.6527 -3.09724 69.6527L-3.08981 68.6363L-3.27802 68.3713C-3.96562 68.7668 -3.71803 69.7571 -3.71803 69.7571L-4.19146 71.1885L-4.83401 70.0047C-4.83401 70.0047 -4.67125 68.1306 -3.31566 68.3188L-3.95342 67.4218L-5.31326 68.6083L-4.79583 71.5442C-4.79583 71.5442 -3.90518 71.7229 -3.55528 71.4774C-2.84807 72.2435 -3.43017 73.7777 -3.43017 73.7777L-5.81584 76.939L-6.05282 78.6684C-6.05282 78.6684 -5.82697 79.2701 -5.89854 79.5256C-8.11987 78.4547 -8.35261 74.2533 -8.35261 74.2533L-7.78111 73.2651L-6.90212 70.4924L-6.44831 68.691L-5.37423 66.4097L-5.77979 65.4666L-7.04314 65.693L-7.69947 67.9832C-7.69947 67.9832 -7.3978 69.4204 -8.36374 70.6599C-8.36374 69.8727 -8.36905 68.6941 -8.36905 68.6941L-9.37844 67.6307L-10.5824 68.7026L-9.5481 71.364L-8.88753 74.2464C-8.88753 74.2464 -8.73962 74.9616 -9.05135 75.3544C-10.0401 74.4558 -11.1825 72.1836 -11.1825 72.1836L-11.2281 71.3793L-11.4847 68.3872L-12.9808 67.7059L-13.5502 68.9825L-12.3833 71.0878C-12.9289 70.0694 -13.0773 68.7843 -13.0773 68.7843L-12.7099 68.1916L-12.1352 68.5372C-12.1352 68.5372 -11.4105 69.8689 -11.6963 70.7638C-12.2243 70.0969 -12.2068 69.2927 -12.7926 68.7106C-12.5806 69.5525 -12.3674 70.3938 -12.069 71.5782C-12.1607 71.4615 -12.2428 71.3354 -12.3192 71.2039L-11.7869 72.1634L-10.5951 74.3355L-6.95249 79.3533C-6.95249 79.3533 -6.74254 79.5829 -6.68211 79.7069C-6.92492 83.4031 -9.40124 90.3958 -9.40124 90.3958C-9.40124 90.3958 -9.75539 91.8861 -9.88421 92.6405C-10.7012 87.7684 -13.5921 80.5478 -13.5921 80.5478L-19.0616 71.3486C-19.0616 71.3486 -21.6106 67.9625 -22.5331 65.3537C-22.3342 65.1575 -22.1312 64.9237 -21.9419 64.6873C-20.6489 64.7922 -19.016 64.8378 -19.016 64.8378L-13.4097 62.08L-9.54968 55.0953L-9.17911 52.8215L-8.56679 50.6203L-8.48356 50.0907L-9.04976 50.1018L-13.1648 53.4576C-13.1833 53.464 -13.1971 53.4688 -13.1971 53.4688C-13.1971 53.4688 -16.1866 55.5099 -17.4187 56.8204C-18.2197 57.4772 -19.5897 58.6192 -20.2826 59.1965C-19.3765 57.1167 -17.9632 54.7767 -17.9632 54.7767L-11.199 44.5585L-9.62656 37.7366L-11.5478 25.1275L-13.0858 17.2649L-13.5767 14.1434L-13.9213 13.4844L-14.4764 14.0315L-17.1382 18.3814L-19.8865 22.1036L-21.7537 29.2171L-22.6126 34.6363L-22.4498 43.1319L-22.6041 53.1242L-22.7727 53.956C-22.7727 53.956 -22.7721 54.5307 -23.033 54.888C-23.3596 53.7752 -24.0063 51.5486 -24.0063 51.5486L-26.2107 43.3562L-28.809 38.3362L-29.0449 37.6571L-31.3865 33.3586L-34.735 26.8913L-40.0895 17.9339L-42.0001 14.5526L-42.7031 12.9977C-42.6284 12.8047 -42.5727 12.6663 -42.5727 12.6663L-42.9921 12.361L-43.3934 11.4735L-43.6744 11.0123L-44.1557 11.2662L-44.7856 13.5316C-44.608 13.1748 -44.3217 12.7422 -43.9315 12.5921C-43.9479 12.7215 -43.9628 12.8588 -43.9744 13.0019L-44.4956 13.618L-45.0072 14.6571L-45.004 14.3183L-45.2171 15.0849L-45.383 15.4226L-45.9402 17.4493L-45.9678 17.7871L-46.1369 18.3957L-46.1279 18.8914L-46.0834 19.2238L-46.3659 22.7413L-44.3625 32.0544C-44.3625 32.0544 -44.1722 32.5035 -43.8795 33.1688L-39.14 46.7741L-33.285 53.8802L-34.5855 51.872C-34.5065 51.9695 -34.4211 52.0734 -34.3623 52.1476C-33.8512 52.9699 -33.1127 53.9199 -32.2947 54.88L-32.8095 54.457L-30.7779 56.9232C-30.7779 56.9232 -28.8874 58.8625 -27.4534 60.5548C-27.9141 58.678 -28.2051 56.7499 -28.6059 54.8472C-28.6547 54.862 -28.7438 54.8742 -28.7438 54.8742L-29.4117 54.7311L-31.6628 52.9042L-31.4544 52.7075L-30.796 52.8649C-30.796 52.8649 -29.3609 53.9799 -28.6669 54.5641C-28.8996 53.4905 -29.5395 51.3864 -29.5395 51.3864C-29.5395 51.3864 -31.0844 47.8534 -32.0535 46.1877C-32.2194 46.2837 -32.5306 46.36 -32.5306 46.36L-35.6103 44.9169L-38.5293 41.3835L-37.7653 40.2575L-35.5265 43.169C-35.5265 43.169 -33.4833 44.5824 -32.5433 45.3564C-33.3052 44.0777 -34.8203 41.5123 -34.8203 41.5123L-42.8378 21.0597L-41.7595 20.845L-38.3638 31.8064L-32.0132 43.6329L-27.078 53.4762L-25.8926 58.7708C-25.8926 58.7708 -25.5417 60.2542 -25.5602 61.6585C-25.5491 61.6712 -25.5374 61.6877 -25.5273 61.6999C-25.539 61.6887 -25.5485 61.6792 -25.5602 61.6686C-25.5698 62.3647 -25.6678 63.0412 -25.9483 63.5056C-25.6721 64.0288 -26.2446 64.5972 -26.2446 64.5972C-26.2446 64.5972 -32.3642 63.3227 -35.4676 63.0698C-35.5281 63.118 -35.6346 63.1711 -35.6346 63.1711L-45.8782 65.9829L-45.3189 65.1024C-45.3189 65.1024 -40.0603 63.6588 -37.4356 62.9187C-41.5113 62.617 -49.5034 60.9916 -49.5034 60.9916L-49.7165 59.539C-49.7165 59.539 -44.5226 60.9948 -41.8104 61.191C-44.6037 59.9 -49.6391 56.1795 -49.6391 56.1795L-48.9377 56.1519L-39.4793 61.2768C-39.4793 61.2768 -39.4443 61.3107 -39.4395 61.3298C-38.4948 61.377 -36.6234 61.4836 -36.6234 61.4836C-36.6234 61.4836 -29.9917 62.2427 -26.7308 62.977C-26.9057 62.5004 -27.0542 62.0159 -27.1936 61.5292C-28.088 61.2307 -29.0687 60.7409 -29.0687 60.7409L-42.6093 55.0285L-53.9799 54.4681L-64.7945 57.9581L-69.2604 60.4434L-70 61.2302L-69.5642 61.8473L-63.0317 62.3069L-58.9798 63.3953L-57.7684 64.7175L-50.7179 67.3471L-35.5716 68.6507L-27.9411 66.3885C-27.9411 66.3885 -27.4502 66.1425 -26.9328 65.8833C-26.9709 65.984 -27.0102 66.0848 -27.0473 66.186C-27.0839 66.2343 -27.1491 66.3487 -27.1491 66.3487C-27.1491 66.3487 -27.324 66.7421 -27.5716 67.3189C-29.8836 70.678 -32.5232 75.3242 -32.5232 75.3242L-34.1836 82.2702L-34.2329 88.7508L-33.9525 90.8019L-33.6111 91.374L-33.162 90.8639L-30.6481 87.4074L-29.3285 86.1101L-26.7737 83.0904L-23.1258 77.0074L-22.6052 70.854L-22.9529 67.918L-16.844 79.4641C-16.844 79.4641 -13.9377 87.4503 -12.8907 91.5892C-12.8923 91.8368 -12.9177 92.3346 -12.9177 92.3346C-12.9177 92.3346 -12.9612 93.6398 -12.9623 94.2977C-14.4599 97.7437 -18.4875 104.186 -18.4875 104.186C-18.4875 104.186 -20.2089 106.383 -21.7468 108.742L-22.6423 109.461L-22.7987 108.758C-22.7658 108.646 -22.7451 108.574 -22.7451 108.574C-22.7451 108.574 -22.7796 108.574 -22.8379 108.576L-23.3569 106.232C-23.3569 106.232 -23.481 106.096 -23.543 106.092C-23.6029 106.045 -23.6739 106.005 -23.7439 105.972C-23.8552 105.378 -24.6664 106.544 -24.6664 106.544C-24.6664 106.544 -24.6595 106.581 -24.6563 106.6C-25.1912 107.812 -26.2923 109.516 -26.6571 110.069C-26.752 110.177 -26.8458 110.286 -26.945 110.394C-27.1051 110.163 -27.3585 110.609 -27.3585 110.609C-27.3585 110.609 -27.35 110.765 -27.3463 110.842C-27.5334 111.152 -27.5424 111.694 -27.3007 111.676C-27.0558 117.596 -28.942 129.458 -28.942 129.458C-28.942 129.458 -29.671 134.942 -29.8645 137.702L-28.2968 137.602L-28.3567 138.126L-27.9581 138.098L-27.8674 138.734L-22.7053 138.974L-21.6917 137.412L-21.6806 137.18L-21.6604 137.179L-21.494 134.92L-21.4765 132.833L-21.3222 129.562L-20.976 127.328L-20.5863 124.887L-20.1394 122.744L-20.0313 119.789C-20.0313 119.789 -20.1712 119.55 -20.2083 119.432C-20.1097 119.341 -20.0011 119.161 -20.0011 119.161C-20.0011 119.161 -19.5033 116.835 -19.3606 115.635C-18.7706 113.387 -16.4141 109.408 -16.4141 109.408L-13.2512 104.85C-11.3167 102.412 -9.432 100.168 -8.50742 99.0781L-4.3346 95.3236L-3.69578 94.6932C-3.69578 94.6932 -3.71539 94.69 -3.74136 94.6858C-2.9981 94.0242 -1.34138 93.0163 -1.34138 93.0163L3.50207 91.8071L8.10005 90.5946C8.10005 90.5946 8.19654 90.4722 8.14989 90.3619C8.77229 90.2331 10.0102 89.9431 10.0102 89.9431C10.0102 89.9431 10.0749 89.8731 10.0393 89.8068L14.6919 89.6981L22.7094 87.8103L29.4333 87.2944L30.95 87.3379L29.8335 88.4666L26.5752 90.4218L20.76 93.6785L14.9544 95.7567C14.9544 95.7567 13.3369 97.0741 12.2114 98.4191L12.1976 98.4281L15.5587 97.9711C15.5587 97.9711 15.6239 97.9876 15.6557 98.0077C18.2593 97.643 22.9368 96.4326 22.9368 96.4326L23.4039 96.7168L14.552 98.7085C14.552 98.7085 14.4995 98.5257 14.6782 98.3984C13.9603 98.3841 12.5708 98.7764 12.5708 98.7764L12.0035 98.5522L9.87447 99.912L5.55799 106.52L4.91598 107.762L4.09425 109.102C4.09425 109.102 3.8138 110.678 3.56303 112.36L3.33826 113.241L1.94449 116.821L1.7356 117.743L2.73972 117.56L4.21406 116.625L4.72141 116.761C4.72141 116.761 4.82373 116.581 4.96793 116.34L10.7116 114.301L21.0638 110.705L24.4239 106.434L30.4618 96.1681C30.4618 96.1681 30.8493 95.5478 31.3572 94.6609C31.4038 94.6328 31.4341 94.6142 31.4341 94.6142C31.4341 94.6142 31.8948 94.0512 31.9536 93.5905C32.0103 93.4861 32.0676 93.3806 32.1243 93.2729C32.6847 92.9384 33.2345 92.5885 33.7779 92.2312C33.7858 92.87 33.7476 93.5332 33.6867 94.1705C33.1708 96.2969 32.901 98.6407 32.901 98.6407L33.0457 101.672L32.9821 107.107L33.8754 113.508L36.5458 125.313L43.6715 141.926L44.0744 143.69L44.3501 144.148L44.8866 143.935L47.812 139.443L49.3542 133.336L51.2516 125.822L51.497 116.411L49.7762 108.464L49.2545 106.859L43.8136 94.5146C43.8136 94.5146 41.966 91.1205 40.5023 89.1871C40.419 89.0503 40.252 88.7783 40.252 88.7783C40.252 88.7783 40.0994 88.5207 40.0251 88.3903C40.0633 88.3145 40.0654 88.1586 40.0654 88.1586C40.0654 88.1586 39.6493 87.2701 39.2819 86.8974C40.1884 87.3596 42.0492 88.1846 42.0492 88.1846L48.3379 90.188C48.3379 90.188 48.4211 90.2012 48.4656 90.2012C50.0603 90.8141 53.2296 92.0881 53.2296 92.0881L56.5091 93.3599L57.326 93.5094L60.1464 94.5336L68.3452 93.66L70.2262 93.036L72.3526 92.8022C72.3526 92.8022 73.5348 92.2005 75.0224 91.4445L78.2431 90.3751L78.0093 89.9256C78.5893 89.6308 79.1311 89.3557 79.5886 89.124C79.6162 89.1388 79.6713 89.168 79.6713 89.168L80 88.1756L75.402 86.1621ZM57.2545 50.4167L57.7878 50.2592L62.7606 51.0025L63.3687 51.4203L57.2545 50.4167ZM66.891 43.2342C69.1081 39.4071 71.8665 36.0237 74.6307 32.5904C74.7924 32.389 75.6448 32.7564 75.5033 32.8932C72.3706 35.923 69.9781 39.8254 67.7589 43.5449C67.6337 43.7543 66.8083 43.3769 66.891 43.2342ZM54.8783 48.4541C56.3071 47.3487 59.1646 45.138 59.1646 45.138L60.1014 45.2408C60.1014 45.2408 57.3213 47.3986 55.9317 48.4774C56.4932 48.461 57.6754 48.2797 57.6754 48.2797C57.6754 48.2797 62.6175 46.3971 65.036 45.2456C65.572 44.9901 65.7045 46.7438 65.7045 46.7438L60.2355 49.1544L54.9981 49.877L47.0321 45.2562L47.8401 44.5241C47.839 44.5251 52.1725 48.2219 54.8783 48.4541ZM58.9451 15.4634L59.9715 14.0267L60.3049 14.5669L59.8183 15.7513L58.8089 17.0496L58.0221 16.6531L58.9451 15.4634ZM48.6252 36.2172C48.6252 36.2172 48.7588 36.125 48.8256 36.0794C49.7311 34.033 51.1381 29.9089 51.1381 29.9089C51.1381 29.9089 52.0537 27.159 52.4614 25.7716C52.3474 25.6513 52.1984 25.3756 52.1984 25.3756L51.839 17.5172L52.3691 18.0256C52.3691 18.0256 52.4693 22.9258 52.5876 25.3433C53.2805 22.9587 54.6939 18.1974 54.6939 18.1974L56.1671 19.0658L51.9631 32.2389C51.9631 32.2389 51.2564 33.8527 50.8805 34.6723C53.0207 33.198 57.361 30.3458 57.361 30.3458L57.7756 30.9342C57.7756 30.9342 52.7402 34.4168 50.1982 36.0995C49.0133 38.4735 45.5101 42.3245 45.5101 42.3245L45.3266 41.5722C45.3266 41.5722 47.813 38.3049 48.6936 36.3672C48.6353 36.293 48.6252 36.2172 48.6252 36.2172ZM40.9428 40.917L38.598 36.8237L40.4752 26.3755L41.3166 27.1278L40.1953 34.7439L40.8373 38.21L43.3672 40.9896L44.0749 42.5429L40.9428 40.917ZM26.2831 28.8179C26.431 28.503 26.7295 28.2336 27.0481 28.0179L27.4224 28.8916C27.0063 28.8613 26.6102 28.8349 26.2831 28.8179ZM29.991 29.1021C29.9136 29.0952 29.824 29.0877 29.7371 29.0798C29.7832 29.0586 29.8293 29.0353 29.859 29.0151C30.0186 28.9913 30.2455 28.9637 30.4565 28.9387L29.991 29.1021ZM32.6523 26.7344C32.6523 26.7344 32.6322 26.6512 32.5946 26.5202C32.8018 26.4301 32.9996 26.3331 33.1756 26.2249C32.866 26.9592 32.233 27.7056 31.6843 28.2649C31.7007 28.2278 31.7166 28.1897 31.7225 28.151C32.2091 27.8329 32.6523 26.7344 32.6523 26.7344ZM31.8115 23.5063L32.6635 23.835L27.2294 27.5408L26.3584 27.3202L31.8115 23.5063ZM23.7193 29.5627C23.7193 29.5627 21.894 27.6563 20.7558 26.9152C20.6991 26.9883 20.5883 27.0732 20.5883 27.0732L14.5212 26.7063L15.1919 26.095L17.7143 26.464C17.7143 26.464 19.081 26.4614 19.7342 26.2928C18.4215 25.5432 15.7602 24.31 15.7602 24.31L16.3895 23.0605L24.2691 28.2856L23.7193 29.5627ZM24.0819 24.7739L23.643 14.2473L24.4159 14.6215C24.4159 14.6215 24.4939 17.0915 24.5299 18.3177C24.9673 17.3635 25.6512 15.3706 25.6512 15.3706L26.519 15.6813C26.519 15.6813 25.4063 18.6432 24.5914 20.0031C24.664 21.6381 25.058 24.9186 25.058 24.9186L24.0819 24.7739ZM-43.7205 19.3176C-43.7226 19.1724 -43.7162 19.0282 -43.7152 18.8829L-43.5837 19.2455C-43.6293 19.2635 -43.6749 19.2858 -43.7205 19.3176ZM-36.7935 32.0751C-36.3975 33.0082 -35.9867 33.9688 -35.589 34.948C-35.5816 35.0498 -35.5747 35.1521 -35.5662 35.2539C-35.9792 34.1957 -36.3885 33.1365 -36.7935 32.0751ZM-34.4307 38.13C-34.6592 37.5585 -34.8834 36.9848 -35.1082 36.4123C-35.1289 36.2792 -35.1485 36.1461 -35.166 36.012C-34.8744 36.7659 -34.5966 37.5282 -34.3469 38.2964L-34.4307 38.13ZM-32.985 40.0989L-36.3906 30.0865L-35.3097 29.8437L-32.001 40.1498L-32.985 40.0989ZM-27.517 42.0568L-26.4477 44.4854L-25.7113 47.2517L-27.517 42.0568ZM-64.3041 60.3766L-65.059 60.1492L-61.3273 58.9373L-60.7993 59.4929L-64.3041 60.3766ZM-20.8763 62.9054C-20.8578 62.8365 -20.8429 62.7708 -20.8339 62.7157C-20.8191 62.7491 -20.7968 62.7756 -20.7708 62.7999L-20.8763 62.9054ZM-10.3894 52.4525C-10.5283 52.8315 -10.7393 53.2779 -10.9986 53.7598C-11.146 53.6315 -11.3029 53.5186 -11.4641 53.4306C-11.0765 53.0908 -10.7123 52.7616 -10.3894 52.4525ZM-16.3828 59.6684L-12.852 57.0287L-11.9248 57.0213L-17.5608 61.3028L-21.9992 63.1005L-22.3973 62.7824L-16.3828 59.6684ZM-20.8843 60.8395C-20.8742 60.8018 -20.862 60.7621 -20.8509 60.7234C-20.8482 60.7371 -20.8456 60.7509 -20.8424 60.7642C-20.8557 60.7891 -20.871 60.8151 -20.8843 60.8395ZM-24.4829 61.6771C-24.4676 61.6951 -24.4511 61.7131 -24.4363 61.7312C-24.4538 61.7497 -24.4697 61.7709 -24.4872 61.7895L-24.5137 61.7227C-24.5036 61.7063 -24.4909 61.6957 -24.4829 61.6771ZM-25.099 61.9501C-25.0825 61.9883 -25.0656 62.0297 -25.0502 62.0662C-25.1207 62.0297 -25.1955 61.9782 -25.2697 61.922C-25.2225 61.9331 -25.1621 61.9427 -25.099 61.9501ZM-32.0127 84.1337C-32.0127 84.1337 -32.0174 84.192 -32.0185 84.2206C-32.0614 84.3198 -32.1065 84.43 -32.1526 84.5435C-31.9899 83.8644 -31.808 83.1911 -31.5997 82.5289C-31.8324 83.4254 -32.0127 84.1337 -32.0127 84.1337ZM-25.9356 73.2545L-29.2903 79.9566L-30.3406 78.6424C-30.3406 78.6424 -28.2327 74.8163 -27.6829 72.7122C-28.0175 72.903 -28.6658 73.3218 -28.6658 73.3218L-29.8629 74.2634L-30.6698 74.6186L-30.6682 74.2347C-30.6682 74.2347 -28.6552 72.586 -27.5027 71.9318C-27.4057 71.4827 -27.2519 70.5619 -27.2519 70.5619L-25.2734 63.979L-24.2226 65.2932L-25.9356 73.2545ZM-24.0217 62.8493L-22.7568 57.588L-20.3753 53.9417L-17.5019 44.7277L-16.2386 35.3658L-13.5099 26.4524L-12.8827 27.3191L-14.3279 36.3948L-15.5844 45.5271L-18.2155 53.9936L-20.2704 57.3272L-21.8539 59.6265L-23.1141 62.1728L-24.0217 62.8493ZM-22.9185 66.2427C-22.937 66.2205 -22.9556 66.2008 -22.9741 66.1871C-22.9842 66.1627 -22.9959 66.1431 -23.0065 66.1198C-23.0059 66.106 -23.0054 66.0906 -23.0054 66.0784C-22.9938 66.0492 -22.9832 66.0201 -22.972 65.9909C-22.9254 65.8843 -22.9042 65.7767 -22.8936 65.6686C-22.8761 65.6559 -22.8575 65.6394 -22.8384 65.6256C-22.7902 65.8202 -22.7843 66.045 -22.9185 66.2427ZM-23.7805 135.793L-25.4992 135.618L-27.191 135.087L-26.9736 134.617L-26.2446 134.4L-24.4882 134.971L-24.088 135.129L-23.7821 135.504L-23.5218 135.682L-23.7805 135.793ZM-24.1595 133.276L-25.2803 133.154L-27.3982 131.837L-26.3432 131.273L-24.9876 132.199L-24.0249 132.444L-23.3569 132.487L-23.3596 132.591L-23.034 132.654L-22.6407 132.918L-24.1595 133.276ZM-21.978 131.172L-23.5933 130.918L-24.511 130.511L-26.1609 129.247L-25.1451 129.017L-23.5212 130.167C-23.5212 130.167 -22.3756 130.49 -21.9843 130.922C-21.9886 130.921 -21.9934 130.919 -21.9965 130.918C-21.9812 130.933 -21.9483 130.963 -21.9483 130.963L-21.978 131.172ZM-26.155 126.553L-25.1356 126.267L-23.7042 126.996L-22.9794 127.178L-22.6948 127.307L-22.2807 127.677L-24.4941 127.425L-26.155 126.553ZM-21.8963 125.916L-25.1064 124.904L-25.2941 124.316L-21.873 125.414L-21.8963 125.916ZM-21.645 123.789L-21.9297 121.472L-22.7366 118.386L-23.3463 112.111H-22.3109L-20.6685 123.934L-21.645 123.789ZM18.9787 109.318L18.2975 108.839L23.3477 101.404L24.2161 101.715L18.9787 109.318ZM28.646 96.1024L21.3347 102.28L13.2176 107.98L9.44133 111.514L5.97522 115.186L5.6375 114.657L6.54778 112.098L8.09476 110.254L11.3053 107.313C11.3053 107.313 14.9697 104.564 16.8677 103.282C14.3092 104.311 9.21815 106.547 9.21815 106.547L8.68587 106.294L17.7419 102.095C17.7419 102.095 18.0621 102.291 17.8543 102.615C18.0981 102.45 18.5864 102.121 18.5864 102.121L25.6316 96.5763L29.0383 92.536L31.6684 87.8326L32.4938 87.4376L28.646 96.1024ZM46.4882 130.488L44.7233 127.025L42.8583 122.76L43.5787 123.081L47.4589 130.493L46.4882 130.488ZM41.1432 100.697C41.2848 100.705 41.4401 100.83 41.4401 100.83L49.6542 114.835L48.656 114.931L44.2271 108.782C44.2271 108.782 42.6833 106.039 41.9962 104.624C42.7146 108.987 43.6842 117.797 43.6842 117.797L42.5264 117.762C42.5264 117.762 40.7112 106.957 39.433 101.584C39.1186 102.449 38.4474 104.162 38.4474 104.162L36.4922 108.808L35.4494 108.974C35.4494 108.974 38.1643 103.28 39.1318 100.393C37.9003 95.8267 32.7494 87.585 32.7494 87.585L33.244 86.2978C33.2435 86.2983 39.6159 95.2446 41.1432 100.697ZM39.6816 85.5715C40.0691 85.6091 40.4291 85.6679 40.735 85.7538C40.7546 85.8705 40.8023 85.995 40.8644 86.1212C40.4243 85.9176 40.0225 85.7305 39.6816 85.5715ZM51.6174 87.7456L49.2455 86.1371L50.1415 85.9288L52.5155 87.4911L54.8407 88.8488L55.0893 89.256L51.6174 87.7456ZM44.6385 84.2901L34.5418 84.8918L34.264 84.5212L34.1442 84.5753L34.3175 85.1685C34.0811 85.2672 33.8669 85.3907 33.6909 85.5476C33.6633 85.0593 33.8971 84.7073 34.211 84.4523L33.5133 83.5224L40.4402 82.812C40.1794 82.7245 39.9361 82.644 39.732 82.5767C39.7866 82.5735 39.8189 82.5724 39.8189 82.5724L40.7912 82.7765L42.9627 82.5538L54.6684 84.1835L55.4202 85.6929L44.6385 84.2901ZM53.949 81.7607L50.6101 81.6075L44.5425 82.7002L43.698 82.4446L48.5208 81.1521L57.5593 79.8188L58.3869 80.174L53.949 81.7607ZM57.9845 79.1386C58.459 79.0008 59.0999 79.408 59.0999 79.408L62.7945 81.5349C62.7945 81.5349 63.0697 81.7024 63.33 81.9097L57.9845 79.1386ZM61.9325 89.7745L61.5651 89.2221L67.172 90.4069L67.4508 91.005L61.9325 89.7745ZM73.4124 87.1317C73.4118 87.1301 73.4113 87.1285 73.4113 87.1269L73.423 87.1328C73.4198 87.1322 73.415 87.1317 73.4124 87.1317ZM77.662 89.265L77.221 88.4184C77.7347 88.5053 78.2887 88.6002 78.7441 88.6813C78.7754 88.6972 78.8061 88.7121 78.8374 88.728C78.4705 88.8748 78.0692 89.062 77.662 89.265Z" fill="#5E1B17"/>
</svg>
