<svg width="84" height="118" viewBox="0 0 84 118" fill="none" xmlns="http://www.w3.org/2000/svg">
<path d="M3.7397 70.5324C3.7397 70.5324 6.97534 69.7847 8.48666 69.0716C11.3226 67.1278 17.3601 63.7475 17.3601 63.7475L25.3668 61.2331L33.6866 63.2016L39.1213 68.9393C39.1213 68.9393 39.1924 69.2956 39.0704 69.3411C39.3847 69.5759 40.2402 69.8064 40.2402 69.8064L46.959 70.5615L54.2801 72.182L60.0382 71.8127C60.0382 71.8127 61.4305 71.4915 62.3761 71.2776C60.9834 70.6917 58.5071 70.0277 58.5071 70.0277L54.4932 69.4357L50.0804 66.9907L47.8291 66.7108L47.0655 66.6197L46.3497 66.7377L45.9664 66.7125C45.9306 66.0524 45.3304 65.2083 45.3304 65.2083L45.0786 65.0538L44.2723 65.6501L44.1826 65.03L44.3037 64.6094L43.6518 64.6164L42.5863 64.3143L42.2336 63.5032L42.0297 62.8041L42.6575 62.8484L43.1611 62.6118L44.0015 62.6218L45.9474 64.0604L47.2656 65.9123L48.0279 65.8285L48.5402 64.8121L46.7111 63.2724L46.0005 61.8493L46.9387 60.5231L47.9757 62.2564L48.1594 63.3617L48.7092 63.5076L49.5392 63.0315L49.7747 64.7592L49.7785 65.5798L50.3951 66.0312L50.6461 65.24L50.653 64.1216L49.7065 62.3866L48.6747 61.2018L48.811 60.1906L50.0355 60.3998L51.032 61.0035L51.5279 62.0911L52.2674 63.3426C52.2674 63.3426 52.163 64.6051 51.1346 64.3807C51.0286 64.6385 50.9742 65.0209 50.9458 65.3733C51.0031 65.2812 51.1799 65.3394 51.1799 65.3394C51.1799 65.3394 52.0061 66.0832 52.4506 66.4183C52.4877 66.41 52.5683 66.4747 52.5683 66.4747C52.5683 66.4747 52.589 66.5003 52.5985 66.5129C53.1457 66.7932 54.2375 67.3583 54.2375 67.3583L54.9373 67.6994C54.9373 67.6994 55.5927 67.8982 55.3439 67.9602C55.3508 67.9607 55.3573 67.9606 55.3633 67.9611C55.4198 67.9533 55.4754 67.9546 55.5284 67.9672C56.8492 68.0487 59.4798 68.7514 59.4798 68.7514C59.4798 68.7514 60.6134 68.9818 61.2331 69.1376C59.5682 67.0259 58.3695 64.52 57.1475 62.0975C56.8621 61.7291 56.5995 61.3476 56.3658 60.9436C56.2912 60.898 56.1769 60.7974 56.1769 60.7974L55.39 59.9198L54.5298 59.0584L54.3746 58.4951C54.3746 58.4951 54.8165 58.4864 54.9446 58.6083C55.1292 58.7676 55.3072 58.9338 55.4819 59.1026C55.591 59.2016 55.7013 59.2992 55.8117 59.3964C54.1547 56.6285 50.9095 51.0566 50.9095 51.0566L46.8512 47.7844L41.9128 45.779L36.7739 44.0387L30.7118 40.326C30.7118 40.326 28.8155 38.5779 28.1122 37.4201C27.5874 39.0757 26.1374 42.2364 26.1374 42.2364L22.9513 44.4688L21.7793 44.7162L17.2738 44.7175L13.0853 42.9125L5.61149 36.1259L2.85059 31.5956C2.85059 31.5956 2.18439 27.7709 1.9024 25.8445L1.83169 25.6665L1.78426 25.1341C1.75235 24.9704 1.6812 24.645 1.6812 24.645C1.6812 24.645 1.92483 24.4306 2.14645 24.6241C2.19001 24.5838 2.29263 24.6033 2.29263 24.6033L5.74386 26.9129C5.74386 26.9129 6.60968 27.6785 6.99258 28.1042C7.02621 28.1064 7.06244 28.1398 7.06244 28.1398C7.06244 28.1398 7.0896 28.1993 7.1034 28.2292C7.6247 28.8199 8.66386 30.015 8.66386 30.015L17.4325 33.3515C17.4325 33.3515 18.4376 33.3446 18.4773 33.3593C19.272 33.5212 20.8656 33.8666 20.8656 33.8666C20.8656 33.8666 24.1375 35.8286 25.3069 35.445C25.3392 35.3721 25.4612 35.3534 25.4612 35.3534C25.4612 35.3534 25.4789 35.3569 25.4871 35.3591C25.5082 35.3469 25.5518 35.3257 25.5518 35.3257C25.5518 35.3257 25.6488 35.2827 25.7036 35.2792C25.3112 34.992 24.9261 34.6964 24.5523 34.3887C23.4954 33.644 22.502 32.8381 21.5793 31.9636C21.2822 31.7223 20.7035 31.2202 20.7035 31.2202L18.9339 29.489C18.9339 29.489 18.8848 29.4283 18.8597 29.3988C16.0501 26.3205 14.0645 22.5393 13.6855 18.4364C13.1784 16.503 12.3829 12.5868 12.3829 12.5868L12.2087 11.3382L12.0603 9.73682L11.3614 0.246949C11.3614 0.246949 11.5041 0.106326 11.6624 0.114137C11.6675 0.076381 11.6718 0.0381904 11.6796 0C17.558 3.58946 24.8627 14.8244 24.8627 14.8244C24.8627 14.8244 29.2738 27.5587 28.2127 34.5245C30.1957 32.1034 30.0271 24.7743 30.0271 24.7743L29.4653 20.6246L30.4285 9.65913L30.7377 9.10537L31.0451 9.73423L33.2002 16.6601L36.9412 27.3912L35.783 32.06L32.7018 34.1704C32.7018 34.1704 30.2457 35.4611 28.7236 35.754C30.056 37.4123 33.2537 39.8938 33.2537 39.8938L41.6273 43.6173L45.2433 44.5625C45.2433 44.5625 45.5956 44.7483 45.9673 44.9527C45.9974 44.9783 46.0263 45.0056 46.0565 45.0308C46.072 45.0586 46.1238 45.1067 46.1238 45.1067L46.7792 45.578C46.7792 45.578 46.8383 45.6097 46.8654 45.6145C47.0866 45.7599 47.5282 46.0489 47.5282 46.0489L47.7925 45.7048C47.7925 45.7048 47.642 45.5564 47.5674 45.4813C47.5264 44.6511 47.2574 43.8942 46.934 43.1525C45.3994 36.9136 43.5285 30.732 44.3469 24.076C43.7156 24.2136 42.5397 24.4796 42.5397 24.4796L40.6744 23.8239C40.3204 23.8556 40.0897 23.8772 40.0897 23.8772C40.0897 23.8772 39.9643 23.7744 39.7754 23.6021C39.7129 23.5648 39.6163 23.5005 39.5201 23.4177L38.177 22.9455L37.0542 18.8882C37.3021 19.3886 37.867 20.3624 38.7772 21.0807C38.8121 20.9991 38.8501 20.9192 38.891 20.8428C37.2318 19.2432 37.246 16.7808 36.695 14.6261C36.6402 14.666 36.501 14.9602 36.501 14.9602L36.8649 18.2051L35.8973 14.7063C35.8973 14.7063 35.9766 14.1817 36.0706 13.9017C36.1987 13.3671 36.3543 12.8337 36.5751 12.3368C36.5902 12.2956 36.6256 12.2114 36.6256 12.2114C36.6256 12.2114 36.6484 12.1706 36.6596 12.1541C36.67 12.0916 36.6868 11.9666 36.6868 11.9666L36.9576 11.5578C36.9576 11.5578 36.9593 11.5574 36.9602 11.5569C37.0537 11.4892 37.2586 11.6993 37.2586 11.6993C37.2586 11.6993 37.4802 12.1966 37.5949 12.4431C37.6082 12.4648 37.6208 12.4917 37.6333 12.5243C37.7066 12.6809 37.7807 12.8381 37.854 12.9947C38.0718 13.407 38.2835 13.8206 38.4999 14.2316C38.5655 14.2142 38.6159 14.2238 38.6237 14.278L38.7341 14.62C38.7729 14.6794 38.7949 14.7376 38.8048 14.7927C38.9945 15.1368 39.1989 15.4736 39.4136 15.8056C39.819 16.1697 40.6373 16.8897 40.6373 16.8897C40.6373 16.8897 41.4281 17.4443 41.7903 17.7494C41.8373 17.7316 41.9952 17.8228 41.9952 17.8228C41.9952 17.8228 42.2513 18.0567 42.3531 18.1825C42.4742 18.1504 42.7295 18.5033 42.7295 18.5033C42.7295 18.5033 42.8907 18.8708 42.795 18.9537C42.9084 19.2271 43.1158 19.8204 43.1158 19.8204C43.1158 19.8204 43.4366 20.6089 43.6212 20.9934C43.0468 18.9255 42.9446 15.3113 42.9446 15.3113L42.9602 12.8754L44.2037 6.14691L44.6508 5.55106L45.1019 5.98897L47.2147 11.9731C47.2147 11.9731 47.767 16.2964 47.2216 18.8088C48.0715 18.2138 50.0381 17.414 50.0381 17.414C50.0381 17.414 52.6149 16.2735 53.9037 15.7041C54.5578 15.0982 55.857 13.8727 55.857 13.8727C55.857 13.8727 56.1334 13.8093 56.2757 13.9117C56.2865 13.9069 56.2938 13.9043 56.2938 13.9043C56.2938 13.9043 56.3011 13.9191 56.3106 13.9391C56.5258 14.114 56.6788 14.4269 56.5137 14.5944C56.7741 17.535 54.3155 22.3948 54.3155 22.3948L53.6523 22.9359L50.2339 24.2236L47.6558 24.4596L45.5404 24.3759L45.195 25.0373L45.546 30.4499L47.2285 39.4376L48.9821 43.432L53.9197 52.6398L58.3083 59.7397L61.2042 64.4892L68.1002 72.4385C68.1002 72.4385 70.3298 74.5493 71.0974 75.9272C71.0353 74.2265 70.1069 71.091 70.1069 71.091L69.6417 68.5582L69.3644 65.4128L67.9531 61.5104L66.6673 59.1499L65.3876 58.1141L64.9973 58.2156L63.5942 58.4986L63.0708 56.701L64.1647 55.7862L65.0551 56.5764C65.0551 56.5764 65.8002 57.1415 66.5901 56.9696C65.8067 56.7392 65.2272 55.8816 65.2272 55.8816L65.3763 54.2004L65.9649 53.7391L66.5259 54.1882L66.8575 56.3725L67.0304 57.506C67.0304 57.506 66.7557 58.3974 67.1822 58.8383C67.8143 58.3354 67.5858 57.0178 67.5858 57.0178L67.5797 56.1858L67.7328 55.9689C68.292 56.2926 68.0907 57.1033 68.0907 57.1033L68.4757 58.275L68.9983 57.306C68.9983 57.306 68.866 55.7718 67.7634 55.9259L68.2821 55.1916L69.3881 56.1629L68.9673 58.5663C68.9673 58.5663 68.2429 58.7125 67.9583 58.5116C67.3831 59.1387 67.8565 60.3946 67.8565 60.3946L69.7969 62.9824L69.9896 64.3981C69.9896 64.3981 69.8059 64.8907 69.8642 65.0998C71.6708 64.2232 71.8601 60.7839 71.8601 60.7839L71.3953 59.9749L70.6804 57.7052L70.3113 56.2306L69.4377 54.3631L69.7676 53.5911L70.7951 53.7764L71.3289 55.6512C71.3289 55.6512 71.0836 56.8277 71.8692 57.8424C71.8692 57.1979 71.8735 56.2332 71.8735 56.2332L72.6945 55.3626L73.6737 56.2401L72.8325 58.4187L72.2952 60.7783C72.2952 60.7783 72.1749 61.3637 72.4284 61.6853C73.2326 60.9497 74.1618 59.0896 74.1618 59.0896L74.1989 58.4313L74.4076 55.9819L75.6244 55.4242L76.0875 56.4692L75.1384 58.1926C75.5821 57.3589 75.7029 56.3069 75.7029 56.3069L75.4041 55.8217L74.9366 56.1047C74.9366 56.1047 74.3472 57.1949 74.5796 57.9274C75.0091 57.3815 74.9949 56.7231 75.4713 56.2466C75.2989 56.9358 75.1255 57.6245 74.8828 58.594C74.9573 58.4985 75.0242 58.3953 75.0863 58.2876L74.6534 59.0731L73.684 60.8511L70.7214 64.9588C70.7214 64.9588 70.5506 65.1467 70.5014 65.2483C70.6989 68.274 72.713 73.9982 72.713 73.9982C72.713 73.9982 73.0011 75.2181 73.1058 75.8357C73.7703 71.8474 76.1216 65.9366 76.1216 65.9366L80.5701 58.4061C80.5701 58.4061 82.6433 55.6343 83.3936 53.4987C83.2319 53.3381 83.0667 53.1467 82.9128 52.9531C81.8611 53.0391 80.533 53.0764 80.533 53.0764L75.9732 50.8188L72.8337 45.1011L72.5323 43.2397L72.0343 41.4379L71.9666 41.0043L72.4271 41.0134L75.774 43.7605C75.7891 43.7657 75.8003 43.7696 75.8003 43.7696C75.8003 43.7696 78.2318 45.4405 79.2339 46.5133C79.8854 47.051 80.9996 47.9858 81.5632 48.4584C80.8263 46.7559 79.6767 44.8403 79.6767 44.8403L74.1752 36.4757L72.8963 30.8912L74.4589 20.5694L75.7098 14.1331L76.1091 11.5778L76.3893 11.0383L76.8408 11.4862L79.0058 15.047L81.2411 18.094L82.7597 23.9172L83.4582 28.3533L83.3259 35.3079L83.4513 43.4876L83.5884 44.1685C83.5884 44.1685 83.588 44.6389 83.8002 44.9314C84.0658 44.0205 84.5918 42.1978 84.5918 42.1978L86.3847 35.4914L88.498 31.3821L88.6898 30.8261L90.5944 27.3074L93.3178 22.0133L97.6728 14.6807L99.2268 11.9128L99.7985 10.6399C99.7377 10.482 99.6925 10.3687 99.6925 10.3687L100.034 10.1187L100.36 9.39224L100.588 9.01468L100.98 9.22256L101.492 11.077C101.348 10.7849 101.115 10.4308 100.798 10.3079C100.811 10.4138 100.823 10.5262 100.833 10.6434L101.256 11.1477L101.672 11.9983L101.67 11.721L101.843 12.3485L101.978 12.625L102.431 14.2841L102.454 14.5605L102.591 15.0587L102.584 15.4645L102.548 15.7366L102.778 18.6161L101.148 26.2398C101.148 26.2398 100.993 26.6074 100.755 27.1521L96.9005 38.2893L92.1385 44.1064L93.1962 42.4625C93.1319 42.5424 93.0625 42.6274 93.0147 42.6882C92.599 43.3613 91.9983 44.139 91.333 44.9249L91.7517 44.5786L90.0994 46.5975C90.0994 46.5975 88.5618 48.185 87.3954 49.5703C87.7701 48.034 88.0068 46.4556 88.3328 44.898C88.3725 44.9102 88.4449 44.9201 88.4449 44.9201L88.9882 44.8029L90.819 43.3075L90.6496 43.1465L90.1141 43.2753C90.1141 43.2753 88.9468 44.188 88.3824 44.6663C88.5717 43.7875 89.0921 42.065 89.0921 42.065C89.0921 42.065 90.3486 39.1729 91.1368 37.8093C91.2718 37.8879 91.5249 37.9504 91.5249 37.9504L94.0297 36.7691L96.4038 33.8766L95.7825 32.9548L93.9615 35.3383C93.9615 35.3383 92.2997 36.4952 91.5352 37.1289C92.1549 36.0821 93.3872 33.9821 93.3872 33.9821L99.9081 17.2395L99.031 17.0637L96.2693 26.0367L91.1041 35.718L87.0901 43.7757L86.126 48.1099C86.126 48.1099 85.8405 49.3242 85.8556 50.4738C85.8466 50.4842 85.8371 50.4977 85.8289 50.5076C85.8384 50.4985 85.8462 50.4907 85.8556 50.4821C85.8634 51.0519 85.9432 51.6056 86.1713 51.9858C85.9466 52.4141 86.4123 52.8794 86.4123 52.8794C86.4123 52.8794 91.3895 51.8361 93.9137 51.629C93.9628 51.6685 94.0495 51.7119 94.0495 51.7119L102.381 54.0138L101.926 53.2929C101.926 53.2929 97.6491 52.1112 95.5143 51.5054C98.8292 51.2584 105.329 49.9278 105.329 49.9278L105.503 48.7387C105.503 48.7387 101.278 49.9305 99.0724 50.091C101.344 49.0343 105.44 45.9886 105.44 45.9886L104.869 45.966L97.1765 50.1613C97.1765 50.1613 97.148 50.1891 97.1441 50.2047C96.3758 50.2433 94.8537 50.3306 94.8537 50.3306C94.8537 50.3306 89.4599 50.952 86.8077 51.5531C86.95 51.163 87.0707 50.7663 87.1841 50.3679C87.9115 50.1236 88.7092 49.7226 88.7092 49.7226L99.7222 45.0464L108.97 44.5877L117.766 47.4446L121.398 49.4791L122 50.1231L121.646 50.6283L116.332 51.0046L113.037 51.8955L112.052 52.9779L106.317 55.1304L93.9982 56.1976L87.7921 54.3458C87.7921 54.3458 87.3928 54.1444 86.972 53.9322C87.003 54.0146 87.0349 54.0971 87.0651 54.18C87.0949 54.2195 87.1479 54.3132 87.1479 54.3132C87.1479 54.3132 87.2902 54.6352 87.4916 55.1074C89.372 57.8571 91.5189 61.6605 91.5189 61.6605L92.8693 67.3466L92.9094 72.6516L92.6814 74.3306L92.4037 74.7989L92.0385 74.3814L89.9938 71.5518L88.9205 70.4899L86.8426 68.0179L83.8756 63.0384L83.4522 58.0012L83.7351 55.5978L78.7665 65.0495C78.7665 65.0495 76.4027 71.587 75.5511 74.9751C75.5524 75.1778 75.5731 75.5853 75.5731 75.5853C75.5731 75.5853 75.6084 76.6537 75.6093 77.1923C76.8274 80.0132 80.1032 85.2869 80.1032 85.2869C80.1032 85.2869 81.5032 87.0853 82.7541 89.0166L83.4824 89.605L83.6096 89.0291C83.5828 88.938 83.566 88.879 83.566 88.879C83.566 88.879 83.5941 88.879 83.6415 88.8807L84.0636 86.9617C84.0636 86.9617 84.1645 86.8506 84.215 86.8475C84.2637 86.8085 84.3215 86.7759 84.3784 86.749C84.4689 86.263 85.1287 87.2173 85.1287 87.2173C85.1287 87.2173 85.123 87.2476 85.1205 87.2628C85.5555 88.2549 86.4511 89.6502 86.7478 90.1024C86.825 90.1914 86.9013 90.2803 86.9819 90.3684C87.1121 90.1801 87.3182 90.545 87.3182 90.545C87.3182 90.545 87.3113 90.6722 87.3083 90.7351C87.4605 90.989 87.4679 91.4325 87.2712 91.4178C87.072 96.2641 88.6062 105.974 88.6062 105.974C88.6062 105.974 89.1991 110.464 89.3565 112.723L88.0814 112.641L88.1302 113.07L87.8059 113.047L87.7322 113.568L83.5337 113.764L82.7093 112.485L82.7002 112.296L82.6838 112.295L82.5484 110.446L82.5342 108.737L82.4087 106.06L82.1272 104.231L81.8102 102.233L81.4467 100.478L81.3588 98.0599C81.3588 98.0599 81.4726 97.8642 81.5028 97.7669C81.4226 97.6927 81.3342 97.5452 81.3342 97.5452C81.3342 97.5452 80.9293 95.6417 80.8133 94.6587C80.3334 92.8187 78.4168 89.5612 78.4168 89.5612L75.8443 85.8303C74.2709 83.8344 72.738 81.9973 71.986 81.1055L68.5921 78.0321L68.0726 77.516C68.0726 77.516 68.0885 77.5135 68.1096 77.51C67.5051 76.9684 66.1577 76.1434 66.1577 76.1434L62.2183 75.1535L58.4786 74.1609C58.4786 74.1609 58.4002 74.0607 58.4381 73.9704C57.9319 73.865 56.9251 73.6276 56.9251 73.6276C56.9251 73.6276 56.8724 73.5703 56.9013 73.5161L53.1172 73.4271L46.5964 71.8817L41.1276 71.4594L39.894 71.495L40.8021 72.4189L43.4521 74.0195L48.1818 76.6854L52.9038 78.3866C52.9038 78.3866 54.2193 79.4651 55.1348 80.5661L55.146 80.5734L52.4122 80.1993C52.4122 80.1993 52.3592 80.2128 52.3333 80.2293C50.2158 79.9307 46.4114 78.9399 46.4114 78.9399L46.0315 79.1726L53.2311 80.803C53.2311 80.803 53.2738 80.6533 53.1284 80.5491C53.7123 80.5374 54.8424 80.8586 54.8424 80.8586L55.3038 80.675L57.0354 81.7882L60.5462 87.1977L61.0683 88.2141L61.7367 89.3108C61.7367 89.3108 61.9648 90.6014 62.1687 91.978L62.3516 92.6993L63.4851 95.6296L63.655 96.3843L62.8384 96.235L61.6392 95.4694L61.2266 95.5805C61.2266 95.5805 61.1434 95.4338 61.0261 95.2359L56.3546 93.5673L47.9348 90.6236L45.2019 87.127L40.2911 78.7234C40.2911 78.7234 39.9759 78.2156 39.5628 77.4896C39.5249 77.4666 39.5003 77.4514 39.5003 77.4514C39.5003 77.4514 39.1256 76.9905 39.0777 76.6134C39.0316 76.5279 38.985 76.4415 38.9389 76.3534C38.4831 76.0796 38.036 75.7932 37.594 75.5006C37.5876 76.0236 37.6186 76.5665 37.6682 77.0881C38.0877 78.8288 38.3072 80.7475 38.3072 80.7475L38.1895 83.229L38.2412 87.6782L37.5147 92.9176L35.3428 102.581L29.5472 116.181L29.2195 117.625L28.9953 118L28.5589 117.826L26.1796 114.148L24.9253 109.149L23.382 102.998L23.1824 95.2941L24.582 88.7887L25.0063 87.4751L29.4316 77.3698C29.4316 77.3698 30.9343 74.5915 32.1248 73.0087C32.1925 72.8968 32.3283 72.6741 32.3283 72.6741C32.3283 72.6741 32.4525 72.4632 32.5129 72.3565C32.4818 72.2944 32.4801 72.1668 32.4801 72.1668C32.4801 72.1668 32.8186 71.4394 33.1174 71.1343C32.3801 71.5128 30.8666 72.1881 30.8666 72.1881L25.7519 73.8281C25.7519 73.8281 25.6842 73.8389 25.6479 73.8389C24.3509 74.3406 21.7733 75.3835 21.7733 75.3835L19.106 76.4246L18.4415 76.547L16.1476 77.3854L9.47924 76.6702L7.94939 76.1594L6.21989 75.968C6.21989 75.968 5.25835 75.4755 4.04843 74.8566L1.42896 73.9813L1.61912 73.6133C1.1474 73.372 0.706718 73.1467 0.334602 72.9571C0.312187 72.9692 0.267334 72.9931 0.267334 72.9931L0 72.1807L3.7397 70.5324ZM18.4997 41.2712L18.0659 41.1423L14.0214 41.7508L13.5268 42.0927L18.4997 41.2712ZM10.662 35.3916C8.85876 32.2587 6.61529 29.489 4.36707 26.6786C4.23557 26.5137 3.54221 26.8144 3.65734 26.9264C6.20523 29.4066 8.15118 32.6011 9.95614 35.6459C10.0579 35.8174 10.7293 35.5084 10.662 35.3916ZM20.4323 39.6646C19.2702 38.7598 16.9461 36.9501 16.9461 36.9501L16.1842 37.0342C16.1842 37.0342 18.4454 38.8006 19.5755 39.6837C19.1189 39.6703 18.1573 39.5219 18.1573 39.5219C18.1573 39.5219 14.1378 37.9808 12.1707 37.0382C11.7348 36.829 11.627 38.2646 11.627 38.2646L16.0751 40.2379L20.3348 40.8294L26.8139 37.0469L26.1567 36.4475C26.1576 36.4484 22.6331 39.4745 20.4323 39.6646ZM17.1246 12.6584L16.2899 11.4823L16.0186 11.9245L16.4145 12.894L17.2355 13.9569L17.8753 13.6322L17.1246 12.6584ZM25.5182 29.6474C25.5182 29.6474 25.4095 29.572 25.3552 29.5346C24.6187 27.8595 23.4743 24.4835 23.4743 24.4835C23.4743 24.4835 22.7297 22.2324 22.3981 21.0967C22.4908 20.9982 22.6119 20.7725 22.6119 20.7725L22.9043 14.3396L22.4731 14.7558C22.4731 14.7558 22.3916 18.7671 22.2955 20.7461C21.7319 18.794 20.5823 14.8964 20.5823 14.8964L19.3841 15.6073L22.8034 26.3909C22.8034 26.3909 23.3782 27.7119 23.6839 28.3828C21.9432 27.1759 18.413 24.8411 18.413 24.8411L18.0758 25.3228C18.0758 25.3228 22.1713 28.1737 24.2388 29.5511C25.2025 31.4945 28.0518 34.6469 28.0518 34.6469L28.201 34.0311C28.201 34.0311 26.1787 31.3565 25.4625 29.7703C25.51 29.7095 25.5182 29.6474 25.5182 29.6474ZM31.7665 33.4947L33.6737 30.1439L32.1468 21.591L31.4625 22.2069L32.3745 28.4414L31.8523 31.2788L29.7947 33.5542L29.2191 34.8257L31.7665 33.4947ZM43.6897 23.5904C43.5694 23.3326 43.3267 23.1121 43.0675 22.9355L42.7631 23.6507C43.1016 23.626 43.4237 23.6043 43.6897 23.5904ZM40.674 23.823C40.7369 23.8174 40.8098 23.8113 40.8805 23.8048C40.843 23.7874 40.8055 23.7683 40.7814 23.7518C40.6516 23.7323 40.467 23.7097 40.2954 23.6893L40.674 23.823ZM38.5094 21.8848C38.5094 21.8848 38.5258 21.8167 38.5564 21.7095C38.3878 21.6357 38.227 21.5563 38.0838 21.4678C38.3357 22.0688 38.8505 22.6799 39.2968 23.1377C39.2834 23.1073 39.2705 23.0761 39.2657 23.0444C38.8699 22.784 38.5094 21.8848 38.5094 21.8848ZM39.1933 19.2423L38.5004 19.5114L42.9201 22.5449L43.6285 22.3644L39.1933 19.2423ZM45.775 24.2001C45.775 24.2001 47.2595 22.6395 48.1853 22.0328C48.2314 22.0927 48.3216 22.1621 48.3216 22.1621L53.2561 21.8618L52.7106 21.3615L50.659 21.6635C50.659 21.6635 49.5474 21.6613 49.0162 21.5233C50.0838 20.9097 52.2484 19.9002 52.2484 19.9002L51.7366 18.8773L45.3278 23.1546L45.775 24.2001ZM45.48 20.28L45.837 11.6628L45.2084 11.9692C45.2084 11.9692 45.145 13.9911 45.1157 14.9949C44.7599 14.2138 44.2037 12.5824 44.2037 12.5824L43.4978 12.8368C43.4978 12.8368 44.4029 15.2614 45.0657 16.3746C45.0066 17.713 44.6862 20.3985 44.6862 20.3985L45.48 20.28ZM100.626 15.8134C100.628 15.6945 100.623 15.5765 100.622 15.4576L100.515 15.7544C100.552 15.7692 100.589 15.7874 100.626 15.8134ZM94.9921 26.2568C94.67 27.0206 94.3358 27.8069 94.0124 28.6085C94.0064 28.6918 94.0008 28.7756 93.9939 28.8589C94.3298 27.9927 94.6627 27.1256 94.9921 26.2568ZM93.0703 31.2133C93.2561 30.7454 93.4385 30.2759 93.6213 29.8072C93.6382 29.6982 93.6541 29.5893 93.6683 29.4795C93.4312 30.0966 93.2052 30.7207 93.0022 31.3495L93.0703 31.2133ZM91.8944 32.8251L94.6644 24.6289L93.7852 24.4301L91.0941 32.8667L91.8944 32.8251ZM87.4472 34.4278L86.5774 36.4158L85.9785 38.6803L87.4472 34.4278ZM117.367 49.4244L117.981 49.2383L114.946 48.2462L114.517 48.701L117.367 49.4244ZM82.0461 51.4945C82.031 51.4381 82.0189 51.3843 82.0116 51.3392C81.9995 51.3665 81.9814 51.3882 81.9603 51.4082L82.0461 51.4945ZM73.5167 42.9377C73.6297 43.248 73.8013 43.6134 74.0122 44.0079C74.1321 43.9029 74.2597 43.8105 74.3908 43.7384C74.0756 43.4602 73.7793 43.1907 73.5167 42.9377ZM78.3913 48.8446L75.5196 46.6838L74.7655 46.6777L79.3494 50.1826L82.9593 51.6542L83.2832 51.3938L78.3913 48.8446ZM82.0526 49.8033C82.0444 49.7725 82.0344 49.7399 82.0254 49.7083C82.0232 49.7195 82.0211 49.7308 82.0185 49.7417C82.0293 49.7621 82.0418 49.7833 82.0526 49.8033ZM84.9795 50.489C84.967 50.5037 84.9536 50.5185 84.9415 50.5333C84.9557 50.5484 84.9687 50.5658 84.9829 50.581L85.0045 50.5263C84.9963 50.5129 84.9859 50.5042 84.9795 50.489ZM85.4805 50.7125C85.4671 50.7437 85.4533 50.7776 85.4408 50.8075C85.4982 50.7776 85.559 50.7355 85.6193 50.6895C85.581 50.6986 85.5318 50.7064 85.4805 50.7125ZM91.1036 68.872C91.1036 68.872 91.1075 68.9197 91.1084 68.9432C91.1433 69.0243 91.18 69.1146 91.2175 69.2075C91.0851 68.6515 90.9372 68.1004 90.7677 67.5583C90.957 68.2922 91.1036 68.872 91.1036 68.872ZM86.1609 59.9663L88.8895 65.4527L89.7437 64.3768C89.7437 64.3768 88.0293 61.2448 87.5821 59.5223C87.8542 59.6786 88.3815 60.0214 88.3815 60.0214L89.3552 60.7921L90.0114 61.0829L90.0101 60.7687C90.0101 60.7687 88.3729 59.419 87.4355 58.8835C87.3566 58.5159 87.2316 57.7621 87.2316 57.7621L85.6224 52.3733L84.7677 53.4492L86.1609 59.9663ZM84.6043 51.4485L83.5755 47.1417L81.6386 44.1568L79.3016 36.6142L78.2741 28.9505L76.0547 21.654L75.5446 22.3635L76.72 29.7928L77.742 37.2686L79.882 44.1993L81.5532 46.9282L82.8412 48.8103L83.8661 50.8948L84.6043 51.4485ZM83.707 54.2264C83.7221 54.2082 83.7372 54.1921 83.7523 54.1809C83.7605 54.1609 83.77 54.1449 83.7786 54.1258C83.7782 54.1145 83.7777 54.1019 83.7777 54.0919C83.7683 54.068 83.7596 54.0442 83.7506 54.0203C83.7126 53.9331 83.6954 53.845 83.6868 53.7564C83.6725 53.746 83.6574 53.7326 83.6419 53.7213C83.6027 53.8806 83.5979 54.0646 83.707 54.2264ZM84.4081 111.16L85.806 111.017L87.182 110.582L87.0052 110.197L86.4123 110.02L84.9838 110.487L84.6582 110.617L84.4094 110.924L84.1977 111.07L84.4081 111.16ZM84.7164 109.1L85.628 109L87.3506 107.922L86.4925 107.46L85.39 108.218L84.6069 108.419L84.0636 108.454L84.0658 108.54L83.801 108.591L83.4811 108.807L84.7164 109.1ZM82.9421 107.377L84.2559 107.17L85.0023 106.837L86.3442 105.802L85.518 105.613L84.1973 106.555C84.1973 106.555 83.2655 106.82 82.9473 107.173C82.9507 107.172 82.9546 107.171 82.9572 107.17C82.9447 107.182 82.9179 107.207 82.9179 107.207L82.9421 107.377ZM86.3394 103.596L85.5103 103.363L84.346 103.959L83.7566 104.108L83.5251 104.214L83.1883 104.517L84.9885 104.311L86.3394 103.596ZM82.8757 103.075L85.4865 102.247L85.6392 101.766L82.8567 102.664L82.8757 103.075ZM82.6713 101.334L82.9029 99.4373L83.5591 96.9107L84.055 91.7745H83.2129L81.8771 101.452L82.6713 101.334ZM49.6306 89.4883L50.1847 89.0955L46.0772 83.0098L45.3709 83.2637L49.6306 89.4883ZM41.7679 78.6696L47.7144 83.7263L54.3164 88.3929L57.3877 91.2854L60.2068 94.2912L60.4815 93.8581L59.7411 91.7637L58.4829 90.2543L55.8717 87.8465C55.8717 87.8465 52.8913 85.5964 51.3476 84.5466C53.4286 85.3893 57.5692 87.2199 57.5692 87.2199L58.0022 87.0129L50.6366 83.5753C50.6366 83.5753 50.3762 83.7354 50.5452 84.001C50.3468 83.8661 49.9497 83.5961 49.9497 83.5961L44.2197 79.0575L41.4488 75.7502L39.3097 71.8999L38.6384 71.5766L41.7679 78.6696ZM27.2563 106.818L28.6917 103.983L30.2086 100.492L29.6226 100.754L26.4668 106.822L27.2563 106.818ZM31.6035 82.4304C31.4884 82.4374 31.3621 82.5394 31.3621 82.5394L24.6812 94.0039L25.4931 94.0829L29.0953 89.0491C29.0953 89.0491 30.3509 86.8037 30.9097 85.6458C30.3255 89.217 29.5368 96.429 29.5368 96.429L30.4786 96.3999C30.4786 96.3999 31.9549 87.5549 32.9945 83.1569C33.2502 83.8648 33.7961 85.267 33.7961 85.267L35.3863 89.0704L36.2345 89.2062C36.2345 89.2062 34.0264 84.5452 33.2394 82.1822C34.2411 78.4439 38.4305 71.6972 38.4305 71.6972L38.0282 70.6435C38.0287 70.644 32.8458 77.9674 31.6035 82.4304ZM32.7923 70.049C32.4771 70.0798 32.1843 70.1279 31.9355 70.1982C31.9196 70.2937 31.8808 70.3957 31.8303 70.499C32.1882 70.3324 32.5151 70.1792 32.7923 70.049ZM23.0845 71.8287L25.0137 70.512L24.285 70.3415L22.3541 71.6204L20.4629 72.7318L20.2607 73.0651L23.0845 71.8287ZM28.7607 69L36.9727 69.4926L37.1986 69.1892L37.2961 69.2335L37.1551 69.7191C37.3474 69.7999 37.5216 69.901 37.6647 70.0294C37.6872 69.6297 37.497 69.3416 37.2417 69.1328L37.8092 68.3716L32.1753 67.7901C32.3874 67.7185 32.5853 67.6525 32.7513 67.5974C32.7069 67.5948 32.6806 67.5939 32.6806 67.5939L31.8898 67.761L30.1237 67.5787L20.603 68.9128L19.9916 70.1483L28.7607 69ZM21.1882 66.9295L23.9038 66.8041L28.8387 67.6985L29.5256 67.4893L25.6031 66.4313L18.2518 65.3398L17.5787 65.6306L21.1882 66.9295ZM17.906 64.783C17.52 64.6702 16.9987 65.0035 16.9987 65.0035L13.9938 66.7446C13.9938 66.7446 13.77 66.8818 13.5583 67.0515L17.906 64.783ZM14.6949 73.4896L14.9937 73.0374L10.4335 74.0073L10.2067 74.4968L14.6949 73.4896ZM5.35795 71.3262C5.35838 71.3249 5.3588 71.3236 5.3588 71.3223L5.34933 71.327C5.35191 71.3266 5.35579 71.3262 5.35795 71.3262ZM1.90154 73.0725L2.26029 72.3794C1.84248 72.4506 1.39188 72.5283 1.02148 72.5947C0.99604 72.6077 0.971039 72.6199 0.945595 72.6329C1.24398 72.7531 1.57039 72.9063 1.90154 73.0725Z" fill="#5E1B17"/>
</svg>
