<svg width="77" height="163" viewBox="0 0 77 163" fill="none" xmlns="http://www.w3.org/2000/svg">
<path d="M71.8196 97.4304C71.8196 97.4304 67.3374 96.3975 65.2439 95.4125C61.3154 92.7274 52.952 88.0581 52.952 88.0581L41.8607 84.5846L30.3358 87.3039L22.8074 95.2297C22.8074 95.2297 22.7088 95.7219 22.8779 95.7848C22.4425 96.1091 21.2574 96.4274 21.2574 96.4274L11.9502 97.4705L1.80865 99.709L-6.16772 99.1988C-6.16772 99.1988 -8.09641 98.7552 -9.40629 98.4597C-7.47701 97.6504 -4.04669 96.7332 -4.04669 96.7332L1.51358 95.9155L7.62637 92.538L10.7449 92.1513L11.8027 92.0255L12.7942 92.1885L13.3252 92.1537C13.3748 91.2419 14.2063 90.0759 14.2063 90.0759L14.5551 89.8625L15.672 90.6862L15.7963 89.8295L15.6284 89.2486L16.5315 89.2582L18.0075 88.841L18.4961 87.7206L18.7786 86.7548L17.9089 86.8159L17.2113 86.4892L16.0471 86.503L13.3515 88.4903L11.5256 91.0483L10.4695 90.9326L9.75993 89.5286L12.2937 87.4016L13.278 85.4359L11.9783 83.6039L10.5418 85.9982L10.2874 87.5251L9.52579 87.7265L8.37598 87.0689L8.04987 89.4554L8.04449 90.5891L7.19034 91.2125L6.84272 90.1197L6.83316 88.5748L8.14423 86.1781L9.57358 84.5415L9.38483 83.1447L7.6885 83.4336L6.30813 84.2675L5.62123 85.7699L4.59686 87.4987C4.59686 87.4987 4.7414 89.2426 6.16597 88.9327C6.3129 89.2888 6.38817 89.817 6.42759 90.3037C6.34814 90.1766 6.10326 90.257 6.10326 90.257C6.10326 90.257 4.95882 91.2845 4.343 91.7473C4.29163 91.7359 4.17994 91.8252 4.17994 91.8252C4.17994 91.8252 4.15128 91.8606 4.13814 91.878C3.38017 92.2652 1.86778 93.0458 1.86778 93.0458L0.898361 93.517C0.898361 93.517 -0.00952911 93.7915 0.335114 93.8773C0.325554 93.8779 0.316597 93.8778 0.308235 93.8784C0.229988 93.8676 0.152931 93.8694 0.0794601 93.8868C-1.75008 93.9995 -5.3942 94.9701 -5.3942 94.9701C-5.3942 94.9701 -6.96452 95.2884 -7.82284 95.5037C-5.51665 92.5866 -3.85616 89.1251 -2.1634 85.7788C-1.76798 85.2699 -1.40423 84.7429 -1.08049 84.1848C-0.977158 84.1218 -0.818878 83.9828 -0.818878 83.9828L0.271194 82.7706L1.46282 81.5806L1.67785 80.8025C1.67785 80.8025 1.06561 80.7905 0.888214 80.959C0.632568 81.179 0.38588 81.4086 0.143974 81.6418C-0.00714111 81.7785 -0.160057 81.9134 -0.312965 82.0476C1.98247 78.2241 6.47776 70.5274 6.47776 70.5274L12.0996 66.0073L18.9405 63.2371L26.0591 60.8331L34.4566 55.7046C34.4566 55.7046 37.0835 53.2899 38.0577 51.6904C38.7846 53.9775 40.7934 58.3435 40.7934 58.3435L45.2068 61.4272L46.8303 61.7689L53.0715 61.7707L58.8737 59.2775L69.2267 49.9028L73.0512 43.6448C73.0512 43.6448 73.9741 38.3615 74.3647 35.7004L74.4627 35.4546L74.5284 34.7191C74.5726 34.4931 74.6711 34.0434 74.6711 34.0434C74.6711 34.0434 74.3336 33.7473 74.0266 34.0147C73.9663 33.9589 73.8242 33.9859 73.8242 33.9859L69.0434 37.1764C69.0434 37.1764 67.844 38.2338 67.3136 38.8219C67.267 38.8249 67.2168 38.8711 67.2168 38.8711C67.2168 38.8711 67.1792 38.9532 67.16 38.9946C66.4379 39.8105 64.9984 41.4615 64.9984 41.4615L52.8517 46.0703C52.8517 46.0703 51.4594 46.0607 51.4044 46.0811C50.3036 46.3047 48.096 46.7819 48.096 46.7819C48.096 46.7819 43.5637 49.4921 41.9438 48.9622C41.899 48.8615 41.7299 48.8357 41.7299 48.8357C41.7299 48.8357 41.7054 48.8405 41.6941 48.8435C41.6648 48.8267 41.6045 48.7973 41.6045 48.7973C41.6045 48.7973 41.4701 48.738 41.3942 48.7332C41.9378 48.3363 42.4712 47.9281 42.989 47.5031C44.453 46.4743 45.8292 45.3611 47.1074 44.1531C47.519 43.8198 48.3206 43.1262 48.3206 43.1262L50.7719 40.7349C50.7719 40.7349 50.84 40.6509 50.8746 40.6102C54.7666 36.358 57.5172 31.1348 58.0423 25.4673C58.7447 22.7966 59.8467 17.3868 59.8467 17.3868L60.088 15.6621L60.2935 13.45L61.2617 0.341124C61.2617 0.341124 61.064 0.146874 60.8448 0.157664C60.8376 0.105509 60.8316 0.0527545 60.8209 0C52.6779 4.95832 42.559 20.4778 42.559 20.4778C42.559 20.4778 36.4486 38.0684 37.9185 47.6907C35.1715 44.3462 35.4051 34.2221 35.4051 34.2221L36.1834 28.4899L34.849 13.3427L34.4207 12.5778L33.9949 13.4464L31.0096 23.0136L25.8274 37.837L27.4317 44.2862L31.7 47.2015C31.7 47.2015 35.1023 48.9844 37.2107 49.389C35.3651 51.6796 30.9355 55.1075 30.9355 55.1075L19.3359 60.251L14.3269 61.5567C14.3269 61.5567 13.8389 61.8133 13.324 62.0957C13.2822 62.131 13.2422 62.1688 13.2004 62.2036C13.1789 62.2419 13.1072 62.3085 13.1072 62.3085L12.1993 62.9595C12.1993 62.9595 12.1175 63.0033 12.0799 63.0099C11.7734 63.2107 11.1618 63.61 11.1618 63.61L10.7957 63.1345C10.7957 63.1345 11.0041 62.9295 11.1075 62.8258C11.1642 61.679 11.5369 60.6335 11.9849 59.609C14.1107 50.9908 16.7024 42.4518 15.5687 33.2575C16.4431 33.4476 18.072 33.8151 18.072 33.8151L20.6559 32.9092C21.1463 32.953 21.4659 32.983 21.4659 32.983C21.4659 32.983 21.6397 32.8409 21.9013 32.6029C21.9879 32.5513 22.1217 32.4626 22.2549 32.3481L24.1155 31.6959L25.6709 26.0913C25.3274 26.7825 24.5449 28.1277 23.284 29.1199C23.2357 29.0072 23.1831 28.8969 23.1264 28.7914C25.4248 26.5817 25.4051 23.1802 26.1684 20.2038C26.2443 20.2589 26.4372 20.6654 26.4372 20.6654L25.9331 25.1477L27.2734 20.3147C27.2734 20.3147 27.1635 19.5899 27.0333 19.2032C26.8559 18.4647 26.6403 17.7279 26.3345 17.0415C26.3136 16.9846 26.2646 16.8682 26.2646 16.8682C26.2646 16.8682 26.2329 16.8119 26.2174 16.7891C26.2031 16.7028 26.1798 16.5302 26.1798 16.5302L25.8047 15.9654C25.8047 15.9654 25.8023 15.9648 25.8011 15.9642C25.6715 15.8707 25.3877 16.1609 25.3877 16.1609C25.3877 16.1609 25.0807 16.8479 24.9218 17.1884C24.9033 17.2184 24.886 17.2555 24.8687 17.3005C24.7671 17.5169 24.6644 17.7339 24.5629 17.9503C24.2612 18.5199 23.968 19.0912 23.6681 19.6589C23.5773 19.6349 23.5074 19.6481 23.4967 19.723L23.3438 20.1954C23.29 20.2775 23.2596 20.3578 23.2458 20.434C22.983 20.9094 22.6999 21.3746 22.4024 21.8332C21.841 22.3362 20.7073 23.3307 20.7073 23.3307C20.7073 23.3307 19.6118 24.0968 19.1101 24.5183C19.045 24.4937 18.8264 24.6196 18.8264 24.6196C18.8264 24.6196 18.4716 24.9427 18.3306 25.1166C18.1628 25.0722 17.8092 25.5596 17.8092 25.5596C17.8092 25.5596 17.5858 26.0673 17.7184 26.1818C17.5613 26.5595 17.274 27.379 17.274 27.379C17.274 27.379 16.8296 28.4683 16.574 28.9994C17.3696 26.1429 17.5111 21.1504 17.5111 21.1504L17.4896 17.7855L15.767 8.49108L15.1476 7.66799L14.5228 8.27289L11.596 16.5392C11.596 16.5392 10.8309 22.5112 11.5865 25.9816C10.4092 25.1597 7.68491 24.0549 7.68491 24.0549C7.68491 24.0549 4.11543 22.4794 2.3301 21.6929C1.424 20.856 -0.375679 19.1631 -0.375679 19.1631C-0.375679 19.1631 -0.758545 19.0756 -0.955658 19.217C-0.970589 19.2104 -0.980743 19.2068 -0.980743 19.2068C-0.980743 19.2068 -0.990906 19.2272 -1.00404 19.2548C-1.30209 19.4964 -1.51414 19.9286 -1.28537 20.16C-1.64614 24.2221 1.75967 30.9351 1.75967 30.9351L2.67833 31.6827L7.41373 33.4613L10.985 33.7875L13.9154 33.6718L14.3938 34.5854L13.9076 42.0621L11.5769 54.4774L9.14771 59.9951L2.308 72.7143L-3.77134 82.5218L-7.78282 89.0826L-17.3355 100.063C-17.3355 100.063 -20.4241 102.979 -21.4873 104.883C-21.4013 102.533 -20.1153 98.2019 -20.1153 98.2019L-19.4708 94.7033L-19.0868 90.3583L-17.1318 84.9677L-15.3506 81.7071L-13.5778 80.2762L-13.0373 80.4164L-11.0937 80.8073L-10.3685 78.3242L-11.8839 77.0606L-13.1173 78.1522C-13.1173 78.1522 -14.1495 78.9327 -15.2437 78.6953C-14.1584 78.377 -13.3556 77.1924 -13.3556 77.1924L-13.5623 74.87L-14.3776 74.2328L-15.1547 74.8533L-15.614 77.8705L-15.8536 79.4363C-15.8536 79.4363 -15.4731 80.6676 -16.0638 81.2767C-16.9395 80.5819 -16.6229 78.7619 -16.6229 78.7619L-16.6145 77.6127L-16.8266 77.3129C-17.6013 77.7601 -17.3223 78.88 -17.3223 78.88L-17.8557 80.4986L-18.5797 79.16C-18.5797 79.16 -18.3963 77.0407 -16.869 77.2536L-17.5875 76.2393L-19.1196 77.5809L-18.5366 80.9008C-18.5366 80.9008 -17.5332 81.1028 -17.139 80.8253C-16.3422 81.6915 -16.998 83.4264 -16.998 83.4264L-19.6859 87.0012L-19.9528 88.9567C-19.9528 88.9567 -19.6984 89.6371 -19.779 89.9261C-22.2817 88.7151 -22.5439 83.9642 -22.5439 83.9642L-21.9 82.8467L-20.9097 79.7115L-20.3984 77.6744L-19.1883 75.0949L-19.6452 74.0283L-21.0686 74.2843L-21.8081 76.8741C-21.8081 76.8741 -21.4682 78.4993 -22.5565 79.9009C-22.5565 79.0107 -22.5625 77.678 -22.5625 77.678L-23.6997 76.4754L-25.0562 77.6876L-23.8909 80.697L-23.1466 83.9564C-23.1466 83.9564 -22.98 84.7651 -23.3312 85.2093C-24.4452 84.1932 -25.7323 81.6238 -25.7323 81.6238L-25.7837 80.7144L-26.0728 77.3309L-27.7584 76.5606L-28.3999 78.0041L-27.0852 80.3847C-27.6999 79.2331 -27.8671 77.7799 -27.8671 77.7799L-27.4532 77.1097L-26.8057 77.5006C-26.8057 77.5006 -25.9892 79.0065 -26.3111 80.0184C-26.906 79.2642 -26.8863 78.3548 -27.5463 77.6966C-27.3074 78.6486 -27.0673 79.6 -26.731 80.9392C-26.8344 80.8073 -26.9269 80.6646 -27.0129 80.516L-26.4133 81.601L-25.0705 84.0571L-20.9665 89.7312C-20.9665 89.7312 -20.7299 89.9908 -20.6618 90.1311C-20.9354 94.3107 -23.7254 102.218 -23.7254 102.218C-23.7254 102.218 -24.1244 103.903 -24.2695 104.756C-25.19 99.2468 -28.4471 91.0818 -28.4471 91.0818L-34.6094 80.6796C-34.6094 80.6796 -37.4813 76.8507 -38.5206 73.9007C-38.2966 73.6789 -38.0678 73.4145 -37.8546 73.1471C-36.3978 73.2658 -34.5581 73.3174 -34.5581 73.3174L-28.2416 70.1988L-23.8926 62.3007L-23.4751 59.7295L-22.7853 57.2404L-22.6915 56.6415L-23.3294 56.6541L-27.9656 60.4489C-27.9865 60.4561 -28.0021 60.4615 -28.0021 60.4615C-28.0021 60.4615 -31.3703 62.7695 -32.7584 64.2514C-33.6609 64.9942 -35.2044 66.2854 -35.985 66.9383C-34.9642 64.5865 -33.3718 61.9404 -33.3718 61.9404L-25.7509 50.3859L-23.9793 42.6718L-26.1439 28.4137L-27.8767 19.5228L-28.4298 15.993L-28.818 15.2479L-29.4434 15.8665L-32.4424 20.7853L-35.5388 24.9943L-37.6425 33.0381L-38.6102 39.166L-38.4268 48.7727L-38.6006 60.0718L-38.7906 61.0124C-38.7906 61.0124 -38.79 61.6622 -39.0838 62.0663C-39.4518 60.808 -40.1805 58.2901 -40.1805 58.2901L-42.6641 49.0263L-45.5914 43.3498L-45.8572 42.5819L-48.4955 37.7213L-52.2681 30.4082L-58.3008 20.2793L-60.4535 16.4558L-61.2455 14.6975C-61.1613 14.4793 -61.0986 14.3229 -61.0986 14.3229L-61.5711 13.9776L-62.0232 12.974L-62.3398 12.4525L-62.8821 12.7396L-63.5917 15.3012C-63.3916 14.8978 -63.0691 14.4086 -62.6295 14.2389C-62.648 14.3852 -62.6647 14.5405 -62.6779 14.7023L-63.265 15.3989L-63.8414 16.5739L-63.8378 16.1909L-64.0779 17.0577L-64.2649 17.4396L-64.8926 19.7314L-64.9237 20.1133L-65.1142 20.8015L-65.1041 21.362L-65.0539 21.7379L-65.3723 25.7155L-63.1151 36.2465C-63.1151 36.2465 -62.9006 36.7543 -62.5709 37.5066L-57.2311 52.8912L-50.6345 60.9267L-52.0996 58.6558C-52.0106 58.7661 -51.9145 58.8836 -51.8482 58.9675C-51.2724 59.8973 -50.4403 60.9716 -49.5187 62.0573L-50.0987 61.5789L-47.8098 64.3677C-47.8098 64.3677 -45.6798 66.5606 -44.0641 68.4742C-44.5832 66.352 -44.9111 64.1717 -45.3627 62.0201C-45.4176 62.0369 -45.518 62.0507 -45.518 62.0507L-46.2706 61.8888L-48.8067 59.823L-48.572 59.6006L-47.8301 59.7787C-47.8301 59.7787 -46.2132 61.0394 -45.4314 61.7C-45.6936 60.4861 -46.4145 58.1067 -46.4145 58.1067C-46.4145 58.1067 -48.1551 54.1117 -49.2469 52.2282C-49.4339 52.3367 -49.7845 52.423 -49.7845 52.423L-53.2542 50.7912L-56.543 46.7957L-55.6823 45.5224L-53.1598 48.8147C-53.1598 48.8147 -50.8578 50.4129 -49.7988 51.2882C-50.6572 49.8422 -52.3642 46.9413 -52.3642 46.9413L-61.3972 23.8139L-60.1823 23.5711L-56.3566 35.966L-49.2015 49.3393L-43.6412 60.4699L-42.3057 66.4569C-42.3057 66.4569 -41.9103 68.1342 -41.9312 69.7223C-41.9186 69.7367 -41.9055 69.7552 -41.8941 69.769C-41.9073 69.7564 -41.918 69.7457 -41.9312 69.7337C-41.9419 70.5208 -42.0524 71.2857 -42.3684 71.8109C-42.0572 72.4026 -42.7023 73.0452 -42.7023 73.0452C-42.7023 73.0452 -49.5969 71.604 -53.0936 71.3181C-53.1616 71.3726 -53.2817 71.4326 -53.2817 71.4326L-64.8228 74.6122L-64.1926 73.6165C-64.1926 73.6165 -58.268 71.9841 -55.3107 71.1472C-59.9028 70.8061 -68.9071 68.9681 -68.9071 68.9681L-69.1472 67.3255C-69.1472 67.3255 -63.2955 68.9717 -60.2397 69.1936C-63.3869 67.7338 -69.06 63.5266 -69.06 63.5266L-68.2698 63.4955L-57.6133 69.2907C-57.6133 69.2907 -57.5739 69.329 -57.5685 69.3506C-56.5041 69.4039 -54.3957 69.5244 -54.3957 69.5244C-54.3957 69.5244 -46.924 70.3829 -43.25 71.2132C-43.4471 70.6742 -43.6144 70.1263 -43.7715 69.576C-44.7791 69.2385 -45.8841 68.6846 -45.8841 68.6846L-61.1398 62.2251L-73.9507 61.5915L-86.1351 65.5379L-91.1668 68.3483L-92 69.2379L-91.509 69.9357L-84.1491 70.4555L-79.5839 71.6862L-78.219 73.1813L-70.2755 76.1547L-53.2106 77.6289L-44.6137 75.0709C-44.6137 75.0709 -44.0606 74.7927 -43.4776 74.4995C-43.5206 74.6134 -43.5648 74.7274 -43.6066 74.8419C-43.6478 74.8964 -43.7213 75.0259 -43.7213 75.0259C-43.7213 75.0259 -43.9184 75.4707 -44.1973 76.1229C-46.8022 79.9213 -49.7761 85.1752 -49.7761 85.1752L-51.6469 93.0296L-51.7024 100.358L-51.3865 102.677L-51.0018 103.324L-50.4959 102.747L-47.6635 98.8386L-46.1768 97.3716L-43.2984 93.957L-39.1884 87.0785L-38.6018 80.1203L-38.9936 76.8004L-32.1109 89.8565C-32.1109 89.8565 -28.8365 98.8871 -27.6568 103.567C-27.6586 103.847 -27.6873 104.41 -27.6873 104.41C-27.6873 104.41 -27.7363 105.886 -27.7375 106.63C-29.4249 110.527 -33.9626 117.812 -33.9626 117.812C-33.9626 117.812 -35.902 120.296 -37.6348 122.964L-38.6436 123.776L-38.8198 122.981C-38.7828 122.855 -38.7595 122.774 -38.7595 122.774C-38.7595 122.774 -38.7983 122.774 -38.864 122.776L-39.4488 120.125C-39.4488 120.125 -39.5885 119.972 -39.6584 119.967C-39.7259 119.913 -39.806 119.868 -39.8848 119.831C-40.0102 119.16 -40.9241 120.478 -40.9241 120.478C-40.9241 120.478 -40.9164 120.52 -40.9128 120.541C-41.5154 121.911 -42.756 123.839 -43.167 124.463C-43.2739 124.586 -43.3796 124.709 -43.4913 124.831C-43.6717 124.571 -43.9572 125.075 -43.9572 125.075C-43.9572 125.075 -43.9477 125.251 -43.9435 125.338C-44.1543 125.688 -44.1645 126.301 -43.8921 126.281C-43.6162 132.975 -45.7414 146.388 -45.7414 146.388C-45.7414 146.388 -46.5627 152.59 -46.7807 155.71L-45.0144 155.598L-45.0819 156.19L-44.6328 156.158L-44.5306 156.878L-38.7147 157.149L-37.5727 155.382L-37.5601 155.12L-37.5374 155.119L-37.3499 152.565L-37.3302 150.205L-37.1563 146.506L-36.7663 143.98L-36.3273 141.22L-35.8238 138.796L-35.7019 135.456C-35.7019 135.456 -35.8596 135.185 -35.9014 135.051C-35.7903 134.948 -35.6679 134.745 -35.6679 134.745C-35.6679 134.745 -35.107 132.115 -34.9463 130.757C-34.2815 128.216 -31.6265 123.716 -31.6265 123.716L-28.063 118.562C-25.8835 115.805 -23.76 113.268 -22.7184 112.036L-18.017 107.79L-17.2972 107.077C-17.2972 107.077 -17.3193 107.074 -17.3486 107.069C-16.5112 106.321 -14.6446 105.181 -14.6446 105.181L-9.18768 103.814L-4.00728 102.443C-4.00728 102.443 -3.89857 102.304 -3.95113 102.179C-3.2499 102.034 -1.8552 101.706 -1.8552 101.706C-1.8552 101.706 -1.78233 101.627 -1.82234 101.552L3.41958 101.429L12.4526 99.2942L20.0282 98.7109L21.737 98.76L20.4791 100.036L16.8081 102.247L10.2563 105.93L3.71524 108.28C3.71524 108.28 1.89288 109.77 0.624802 111.29L0.609276 111.301L4.39616 110.784C4.39616 110.784 4.46964 110.802 4.50547 110.825C7.43882 110.413 12.7088 109.044 12.7088 109.044L13.235 109.365L3.26189 111.618C3.26189 111.618 3.20276 111.411 3.40405 111.267C2.59531 111.251 1.02977 111.694 1.02977 111.694L0.390663 111.441L-2.0081 112.979L-6.87134 120.451L-7.59467 121.855L-8.52048 123.37C-8.52048 123.37 -8.83646 125.153 -9.11898 127.054L-9.37224 128.051L-10.9425 132.098L-11.1779 133.141L-10.0466 132.935L-8.3855 131.877L-7.81388 132.031C-7.81388 132.031 -7.69861 131.828 -7.53614 131.555L-1.06497 129.25L10.5985 125.183L14.3842 120.353L21.1869 108.745C21.1869 108.745 21.6236 108.044 22.1958 107.041C22.2483 107.009 22.2824 106.988 22.2824 106.988C22.2824 106.988 22.8014 106.351 22.8677 105.83C22.9316 105.712 22.9961 105.593 23.0601 105.471C23.6914 105.093 24.3108 104.697 24.923 104.293C24.932 105.016 24.889 105.766 24.8203 106.486C24.2391 108.891 23.9351 111.541 23.9351 111.541L24.0982 114.969L24.0265 121.115L25.033 128.352L28.0416 141.701L36.0699 160.488L36.5238 162.481L36.8344 163L37.4389 162.759L40.7348 157.679L42.4724 150.774L44.6101 142.277L44.8867 131.635L42.9478 122.649L42.3601 120.834L36.23 106.875C36.23 106.875 34.1484 103.037 32.4992 100.851C32.4054 100.696 32.2173 100.389 32.2173 100.389C32.2173 100.389 32.0453 100.097 31.9616 99.95C32.0047 99.8643 32.007 99.688 32.007 99.688C32.007 99.688 31.5382 98.6833 31.1242 98.2618C32.1456 98.7846 34.2421 99.7174 34.2421 99.7174L41.3273 101.983C41.3273 101.983 41.4211 101.998 41.4713 101.998C43.268 102.691 46.8386 104.131 46.8386 104.131L50.5336 105.57L51.454 105.739L54.6316 106.897L63.8689 105.909L65.9881 105.203L68.3839 104.939C68.3839 104.939 69.7159 104.258 71.3919 103.404L75.0205 102.194L74.7571 101.686C75.4106 101.353 76.021 101.042 76.5365 100.78C76.5676 100.796 76.6297 100.829 76.6297 100.829L77 99.7072L71.8196 97.4304ZM51.3734 57.0102L51.9743 56.8322L57.5769 57.6727L58.262 58.145L51.3734 57.0102ZM62.2305 48.8884C64.7284 44.5608 67.8362 40.7349 70.9505 36.8526C71.1327 36.6248 72.0932 37.0403 71.9337 37.1949C68.4042 40.621 65.7086 45.0338 63.2083 49.2397C63.0673 49.4765 62.1373 49.0497 62.2305 48.8884ZM48.6963 54.791C50.306 53.541 53.5254 51.0412 53.5254 51.0412L54.5809 51.1575C54.5809 51.1575 51.4486 53.5974 49.8831 54.8173C50.5156 54.7988 51.8476 54.5937 51.8476 54.5937C51.8476 54.5937 57.4157 52.465 60.1406 51.1629C60.7444 50.8739 60.8938 52.857 60.8938 52.857L54.732 55.5829L48.8312 56.4L39.8562 51.1749L40.7665 50.347C40.7653 50.3482 45.6476 54.5284 48.6963 54.791ZM53.2782 17.4857L54.4345 15.8611L54.8102 16.472L54.2619 17.8112L53.1247 19.2794L52.2383 18.831L53.2782 17.4857ZM41.6511 40.9537C41.6511 40.9537 41.8016 40.8494 41.8769 40.7978C42.897 38.4838 44.4823 33.8204 44.4823 33.8204C44.4823 33.8204 45.5138 30.7109 45.9731 29.1421C45.8447 29.006 45.6769 28.6943 45.6769 28.6943L45.2719 19.8081L45.8692 20.383C45.8692 20.383 45.9821 25.924 46.1153 28.6577C46.896 25.9612 48.4884 20.5773 48.4884 20.5773L50.1483 21.5592L45.4117 36.4552C45.4117 36.4552 44.6155 38.28 44.192 39.2068C46.6033 37.5396 51.4934 34.3144 51.4934 34.3144L51.9605 34.9798C51.9605 34.9798 46.2873 38.9178 43.4233 40.8206C42.0883 43.5051 38.1413 47.8597 38.1413 47.8597L37.9347 47.0091C37.9347 47.0091 40.736 43.3144 41.7281 41.1233C41.6624 41.0394 41.6511 40.9537 41.6511 40.9537ZM32.9956 46.2681L30.3537 41.6395L32.4688 29.8249L33.4167 30.6756L32.1534 39.2877L32.8767 43.2072L35.727 46.3502L36.5244 48.1067L32.9956 46.2681ZM16.479 32.5867C16.6456 32.2306 16.9819 31.9261 17.3409 31.6821L17.7626 32.67C17.2937 32.6359 16.8475 32.6059 16.479 32.5867ZM20.6565 32.908C20.5693 32.9002 20.4684 32.8919 20.3704 32.8829C20.4224 32.8589 20.4743 32.8325 20.5078 32.8097C20.6876 32.7827 20.9432 32.7515 21.1809 32.7234L20.6565 32.908ZM23.655 30.2307C23.655 30.2307 23.6323 30.1366 23.5899 29.9886C23.8234 29.8867 24.0462 29.7769 24.2445 29.6546C23.8957 30.4849 23.1825 31.329 22.5643 31.9614C22.5828 31.9195 22.6007 31.8763 22.6073 31.8326C23.1556 31.4729 23.655 30.2307 23.655 30.2307ZM22.7076 26.5805L23.6675 26.9522L17.5452 31.1426L16.5638 30.8932L22.7076 26.5805ZM13.5904 33.429C13.5904 33.429 11.5339 31.2733 10.2515 30.4352C10.1876 30.5179 10.0628 30.6138 10.0628 30.6138L3.22724 30.199L3.98283 29.5078L6.82479 29.925C6.82479 29.925 8.36464 29.922 9.10052 29.7314C7.6216 28.8837 4.62315 27.4893 4.62315 27.4893L5.33214 26.0763L14.2098 31.9848L13.5904 33.429ZM13.999 28.0139L13.5044 16.1105L14.3753 16.5337C14.3753 16.5337 14.4631 19.3267 14.5037 20.7133C14.9965 19.6343 15.767 17.3808 15.767 17.3808L16.7448 17.7321C16.7448 17.7321 15.491 21.0814 14.573 22.6191C14.6548 24.4679 15.0986 28.1775 15.0986 28.1775L13.999 28.0139ZM-62.3917 21.844C-62.3941 21.6797 -62.387 21.5167 -62.3858 21.3524L-62.2376 21.7624C-62.289 21.7828 -62.3404 21.808 -62.3917 21.844ZM-54.5874 36.2699C-54.1412 37.325 -53.6783 38.4113 -53.2303 39.5185C-53.222 39.6336 -53.2142 39.7493 -53.2046 39.8644C-53.6699 38.6679 -54.1311 37.4701 -54.5874 36.2699ZM-51.9252 43.1166C-52.1827 42.4704 -52.4353 41.8218 -52.6886 41.1743C-52.7119 41.0238 -52.734 40.8734 -52.7537 40.7217C-52.4252 41.5742 -52.1122 42.4362 -51.8309 43.3048L-51.9252 43.1166ZM-50.2964 45.3431L-54.1334 34.0213L-52.9156 33.7467L-49.1878 45.4007L-50.2964 45.3431ZM-44.1358 47.557L-42.931 50.3032L-42.1014 53.4313L-44.1358 47.557ZM-85.5826 68.2727L-86.4331 68.0155L-82.2287 66.6451L-81.6338 67.2734L-85.5826 68.2727ZM-36.654 71.1322C-36.6331 71.0543 -36.6164 70.98 -36.6062 70.9176C-36.5895 70.9554 -36.5644 70.9854 -36.5351 71.013L-36.654 71.1322ZM-24.8388 59.3123C-24.9953 59.7409 -25.233 60.2457 -25.5251 60.7906C-25.6911 60.6455 -25.8679 60.5178 -26.0495 60.4183C-25.6129 60.034 -25.2025 59.6618 -24.8388 59.3123ZM-31.5913 67.4718L-27.6132 64.487L-26.5686 64.4786L-32.9185 69.32L-37.9191 71.3529L-38.3677 70.9932L-31.5913 67.4718ZM-36.663 68.7961C-36.6516 68.7535 -36.6379 68.7086 -36.6253 68.6648C-36.6223 68.6804 -36.6194 68.6959 -36.6158 68.7109C-36.6307 68.7391 -36.648 68.7685 -36.663 68.7961ZM-40.7174 69.7433C-40.7001 69.7637 -40.6816 69.784 -40.6649 69.8044C-40.6846 69.8254 -40.7025 69.8494 -40.7222 69.8703L-40.7521 69.7948C-40.7407 69.7762 -40.7264 69.7643 -40.7174 69.7433ZM-41.4115 70.052C-41.393 70.0951 -41.3739 70.1419 -41.3566 70.1833C-41.436 70.1419 -41.5202 70.0838 -41.6038 70.0202C-41.5507 70.0328 -41.4826 70.0436 -41.4115 70.052ZM-49.2009 95.1368C-49.2009 95.1368 -49.2063 95.2027 -49.2075 95.2351C-49.2559 95.3472 -49.3067 95.4719 -49.3586 95.6001C-49.1752 94.8322 -48.9704 94.0709 -48.7356 93.3221C-48.9978 94.3358 -49.2009 95.1368 -49.2009 95.1368ZM-42.3541 82.8347L-46.1338 90.4134L-47.317 88.9273C-47.317 88.9273 -44.9422 84.6009 -44.3228 82.2215C-44.6997 82.4373 -45.4302 82.9109 -45.4302 82.9109L-46.7789 83.9756L-47.688 84.3772L-47.6862 83.9432C-47.6862 83.9432 -45.4182 82.0788 -44.1197 81.339C-44.0104 80.8313 -43.8372 79.79 -43.8372 79.79L-41.608 72.3462L-40.4242 73.8323L-42.3541 82.8347ZM-40.1978 71.0687L-38.7726 65.1195L-36.0896 60.9962L-32.8522 50.5772L-31.4288 39.9909L-28.3545 29.9118L-27.6479 30.892L-29.2761 41.1545L-30.6917 51.4812L-33.6561 61.0549L-35.9713 64.8245L-37.7554 67.4244L-39.1752 70.3038L-40.1978 71.0687ZM-38.9548 74.906C-38.9757 74.8808 -38.9966 74.8586 -39.0175 74.843C-39.0289 74.8155 -39.042 74.7933 -39.054 74.7669C-39.0534 74.7514 -39.0528 74.734 -39.0528 74.7202C-39.0396 74.6872 -39.0277 74.6542 -39.0151 74.6212C-38.9626 74.5007 -38.9387 74.3791 -38.9267 74.2568C-38.907 74.2424 -38.8861 74.2238 -38.8646 74.2082C-38.8103 74.4282 -38.8037 74.6824 -38.9548 74.906ZM-39.926 153.552L-41.8625 153.354L-43.7685 152.754L-43.5236 152.222L-42.7023 151.977L-40.7234 152.622L-40.2725 152.802L-39.9278 153.225L-39.6345 153.427L-39.926 153.552ZM-40.3531 150.706L-41.6158 150.568L-44.002 149.079L-42.8134 148.441L-41.2861 149.488L-40.2014 149.765L-39.4488 149.814L-39.4518 149.932L-39.085 150.003L-38.6418 150.301L-40.3531 150.706ZM-37.8952 148.326L-39.7152 148.04L-40.7491 147.58L-42.6079 146.15L-41.4635 145.89L-39.6339 147.19C-39.6339 147.19 -38.3432 147.556 -37.9024 148.044C-37.9071 148.043 -37.9125 148.041 -37.9161 148.04C-37.8988 148.057 -37.8618 148.091 -37.8618 148.091L-37.8952 148.326ZM-42.6013 143.103L-41.4527 142.781L-39.84 143.604L-39.0235 143.811L-38.7028 143.956L-38.2363 144.375L-40.73 144.09L-42.6013 143.103ZM-37.8032 142.383L-41.4199 141.239L-41.6313 140.575L-37.7769 141.816L-37.8032 142.383ZM-37.5201 139.978L-37.8408 137.358L-38.7499 133.868L-39.4368 126.773H-38.2703L-36.4199 140.142L-37.5201 139.978ZM8.24936 123.615L7.48183 123.073L13.1717 114.666L14.1501 115.017L8.24936 123.615ZM19.1412 108.671L10.9038 115.656L1.75848 122.102L-2.4961 126.098L-6.40126 130.25L-6.78175 129.651L-5.75617 126.758L-4.01324 124.673L-0.395988 121.347C-0.395988 121.347 3.73256 118.239 5.8709 116.789C2.98833 117.953 -2.74756 120.482 -2.74756 120.482L-3.34726 120.196L6.85585 115.447C6.85585 115.447 7.21663 115.668 6.98248 116.035C7.25724 115.849 7.80736 115.476 7.80736 115.476L15.7449 109.207L19.5832 104.638L22.5464 99.3194L23.4764 98.8727L19.1412 108.671ZM39.2433 147.553L37.2549 143.638L35.1536 138.815L35.9654 139.177L40.337 147.559L39.2433 147.553ZM33.2214 113.866C33.3808 113.875 33.5558 114.016 33.5558 114.016L42.8104 129.853L41.6857 129.962L36.6959 123.009C36.6959 123.009 34.9565 119.907 34.1824 118.307C34.9918 123.24 36.0842 133.203 36.0842 133.203L34.7797 133.163C34.7797 133.163 32.7346 120.944 31.2945 114.869C30.9403 115.847 30.1841 117.784 30.1841 117.784L27.9812 123.038L26.8063 123.226C26.8063 123.226 29.8651 116.787 30.9552 113.523C29.5677 108.359 23.7643 99.0394 23.7643 99.0394L24.3216 97.5838C24.321 97.5844 31.5005 107.701 33.2214 113.866ZM31.5746 96.7626C32.0112 96.8051 32.4168 96.8717 32.7614 96.9688C32.7835 97.1007 32.8373 97.2415 32.9072 97.3842C32.4114 97.154 31.9587 96.9424 31.5746 96.7626ZM45.0223 99.221L42.3499 97.4022L43.3594 97.1666L46.0341 98.9333L48.6538 100.469L48.934 100.929L45.0223 99.221ZM37.1594 95.3136L25.7838 95.994L25.4708 95.575L25.3358 95.6361L25.5311 96.3069C25.2647 96.4184 25.0234 96.5581 24.8251 96.7356C24.794 96.1835 25.0574 95.7854 25.411 95.497L24.625 94.4456L32.4293 93.6422C32.1355 93.5433 31.8613 93.4522 31.6313 93.3761C31.6929 93.3725 31.7293 93.3713 31.7293 93.3713L32.8248 93.6021L35.2713 93.3503L48.4597 95.1931L49.3067 96.8998L37.1594 95.3136ZM47.6492 92.4535L43.8874 92.2802L37.0513 93.5157L36.0997 93.2268L41.5334 91.7653L51.7168 90.2576L52.6492 90.6592L47.6492 92.4535ZM52.1959 89.4884C52.7305 89.3325 53.4526 89.793 53.4526 89.793L57.6152 92.1981C57.6152 92.1981 57.9252 92.3875 58.2184 92.6219L52.1959 89.4884ZM56.644 101.515L56.23 100.891L62.5471 102.23L62.8613 102.907L56.644 101.515ZM69.5779 98.5268C69.5773 98.525 69.5768 98.5232 69.5768 98.5214L69.5899 98.528C69.5863 98.5274 69.5809 98.5268 69.5779 98.5268ZM74.3659 100.939L73.8689 99.9818C74.4477 100.08 75.0719 100.187 75.585 100.279C75.6202 100.297 75.6549 100.314 75.6901 100.332C75.2768 100.498 74.8246 100.71 74.3659 100.939Z" fill="white"/>
</svg>
