<svg width="1600" height="242" viewBox="0 0 1600 242" fill="none" xmlns="http://www.w3.org/2000/svg">
<path d="M1278.86 241.691L1276.62 237.127L1276.22 238.101L1271.5 227.868L1264.88 215.476L1261.74 210.554L1252.85 203.041L1246.65 199.781L1245.71 199.875L1244.78 202.606L1243.24 205.76L1240.06 209.433L1239.1 209.994C1239.1 209.994 1232.18 210.592 1228.85 208.731C1228.57 208.854 1228.28 208.496 1228.18 208.131C1228.16 208.108 1228.15 208.091 1228.15 208.091C1228.15 208.091 1228.15 208.084 1228.16 208.072C1228.11 207.839 1228.32 207.52 1228.32 207.52C1228.32 207.52 1230.4 206.507 1231.43 205.991C1232.73 204.65 1235.33 201.969 1235.33 201.969C1235.33 201.969 1237.23 199.886 1238.34 199.115C1235.12 198.503 1230.3 195.553 1230.3 195.553L1224.29 189.755L1224 188.955L1224.92 188.696L1233.44 190.615L1236.31 191.863C1236.31 191.863 1240.51 193.872 1242.67 195.678C1242.3 195.244 1241.53 194.426 1241.53 194.426C1241.53 194.426 1240.94 193.854 1240.67 193.568C1240.53 193.646 1240.17 193.249 1240.17 193.249C1240.17 193.249 1239.88 192.742 1239.98 192.605C1239.88 192.409 1239.73 191.963 1239.73 191.963C1239.73 191.963 1239.7 191.715 1239.74 191.664C1239.56 191.045 1239.3 189.752 1239.3 189.752C1239.3 189.752 1238.85 188.338 1238.62 187.634C1238.33 187.188 1238.03 186.754 1237.72 186.333C1237.66 186.291 1237.6 186.233 1237.55 186.153L1237.21 185.835C1237.15 185.796 1237.16 185.728 1237.21 185.655C1236.83 185.165 1236.45 184.681 1236.07 184.191C1235.92 184.015 1235.77 183.84 1235.63 183.665C1235.59 183.633 1235.57 183.603 1235.55 183.574C1235.32 183.299 1234.84 182.759 1234.84 182.759C1234.84 182.759 1234.69 182.39 1234.82 182.307C1234.82 182.306 1234.82 182.304 1234.82 182.304L1235.43 182.172C1235.43 182.172 1235.59 182.216 1235.67 182.235C1235.69 182.228 1235.75 182.22 1235.75 182.22C1235.75 182.22 1235.87 182.218 1235.92 182.22C1236.61 182.201 1237.32 182.279 1238.01 182.396C1238.39 182.421 1239.04 182.593 1239.04 182.593L1242.69 185.643L1239.05 183.492C1239.05 183.492 1238.63 183.516 1238.56 183.567C1241.43 185.869 1245.32 187.279 1245.22 192.329C1245.83 189.585 1244.12 187.132 1243.4 186.24L1247.62 189.775L1247.51 191.861C1247.21 191.004 1246.66 189.68 1245.93 188.89C1246.25 191.04 1245.12 194.542 1245.12 194.542C1245.12 194.542 1245.03 196.335 1245.69 197.116C1246.15 196.067 1246.97 194.365 1247.44 193.407L1247.3 196.116C1247.3 196.116 1246.41 197.472 1245.94 198.203C1254.79 200.807 1261.05 207.618 1267.26 214.296C1266.98 213.428 1266.23 211.873 1266.23 211.873L1263.44 206.962L1263.11 205.474L1264.42 205.141C1264.42 205.141 1264.95 205.394 1265.17 205.056C1264.79 204.522 1263.76 204.576 1263.76 204.576L1261.28 203.674L1261.07 201.211L1262.42 201.495C1262.42 201.495 1263.02 202.171 1263.5 201.876C1263.52 201.248 1263.09 200.309 1263.09 200.309L1264.88 200.995L1265.6 202.426C1265.6 202.426 1265.91 203.412 1266.67 203.433C1266.59 202.88 1267.24 202.193 1267.24 202.193L1268.4 204.184L1267.78 205.301L1266.43 207.275C1266.43 207.275 1267.62 211.826 1268.52 213.988C1268.53 213.272 1268.62 211.923 1268.62 211.923L1270.04 207.02L1271.67 194.561C1271.67 194.561 1271.14 189.042 1270.25 186.291C1268.9 187.859 1265.85 189.798 1265.85 189.798L1261.49 191.878L1255.66 189.871L1246.58 177.781L1240.55 170.281L1240.08 169.469L1240.88 169.507L1253.39 176.271L1257.5 179.912C1257.5 179.912 1265.31 185.382 1269.26 184.809C1261.02 181.038 1250.22 166.723 1250.22 166.723C1250.22 166.723 1243 150.107 1243.09 140.66C1243.14 140.679 1243.18 140.701 1243.23 140.722C1243.32 140.531 1243.57 140.466 1243.57 140.466L1253.36 148.109L1254.99 149.435L1256.22 150.537C1256.22 150.537 1259.92 154.284 1261.67 156.267C1265.85 159.662 1268.6 164.702 1270.03 170.197C1270.05 170.248 1270.08 170.349 1270.08 170.349L1270.75 173.661C1270.75 173.661 1270.91 174.698 1270.97 175.218C1271.29 176.925 1271.49 178.665 1271.58 180.434C1271.66 181.094 1271.72 181.754 1271.77 182.42C1271.81 182.358 1271.92 182.278 1271.92 182.278C1271.92 182.278 1271.98 182.241 1272 182.226C1272.01 182.214 1272.02 182.191 1272.02 182.191C1272.02 182.191 1272.12 182.061 1272.22 182.077C1273.42 180.986 1273.51 175.756 1273.51 175.756C1273.51 175.756 1274.21 173.645 1274.57 172.601C1274.58 172.544 1274.62 172.417 1274.62 172.417L1273.48 160.951C1273.48 160.951 1272.24 159.24 1271.63 158.384L1271.53 158.306C1271.53 158.306 1271.49 158.249 1271.5 158.203C1271.06 157.576 1270.31 156.21 1270.31 156.21L1268.26 150.956C1268.26 150.956 1268.26 150.814 1268.32 150.765C1268.14 150.416 1268.46 150.142 1268.46 150.142C1268.46 150.142 1268.85 150.323 1269.05 150.407L1269.7 150.61L1269.91 150.751C1272.24 151.627 1276.86 153.514 1276.86 153.514L1281.85 158.409L1288 172.393L1287.66 179.367L1284.62 184.628L1283.56 185.818L1279 187.933C1279 187.933 1274.61 187.352 1272.46 186.775C1273.24 188.428 1273.85 191.901 1273.85 191.901L1273.77 201.653L1272.19 208.906L1271.02 216.117L1271.82 223.21C1271.82 223.21 1275.66 231.009 1277.53 234.937L1277.14 235.874L1278.86 241.691Z" fill="#C4C4C4"/>
<path d="M1599.51 53.6663L1599.45 51.1766L1599.44 51.0571L1599.34 51.0183L1596.76 50.0232L1596.74 50.0136H1596.71L1593.7 50.006L1588.06 49.992H1588.05L1588.05 49.9931L1585.02 50.2764H1585.01L1585.01 50.2774C1584.99 50.2796 1583.68 50.454 1582.73 50.6274C1584.61 48.3627 1587.88 44.4688 1587.92 44.4279L1589.92 42.0587L1591.9 40.0472C1591.92 40.031 1593.53 38.4125 1594.36 37.5714C1594.71 37.5068 1594.89 37.2915 1595.11 37.0201C1595.2 36.9178 1595.3 36.8026 1595.41 36.6809L1595.62 36.4677L1595.69 36.4763L1595.66 36.4289L1595.76 36.3169L1595.6 36.3385L1595.49 36.1597C1595.45 36.0929 1595.41 36.0294 1595.38 35.9734C1595.33 35.8948 1595.29 35.8269 1595.25 35.7655C1595.04 34.161 1592.85 32.1979 1592.76 32.1128L1592.74 32.0935L1592.71 32.0827L1590.32 31.1706L1590.3 31.162L1590.28 31.1609L1587.8 30.9595L1587.74 30.9541L1587.7 30.9886L1585.65 32.4725L1585.64 32.4779L1585.64 32.4865L1583.89 34.1546L1582.92 33.0971L1582.91 33.0874L1582.9 33.0788L1582.03 32.3713L1582.01 32.3562L1581.98 32.3465L1580.13 31.5949L1580.1 31.5809L1580.07 31.583L1575.49 31.7564L1575.47 31.7575L1575.45 31.7628C1575.36 31.7952 1573.19 32.4887 1572.03 33.3017C1572.03 33.0756 1572.02 32.8537 1572.02 32.8375V32.8343V32.8289L1571.95 32.0708L1571.95 32.0375L1571.93 32.0073L1571.19 30.4922L1571.19 30.49L1571.19 30.4868L1570.37 28.9253L1570.35 28.8801L1570.3 28.8575L1569.45 28.3772L1569.42 28.3643L1569.4 28.3599L1568.81 28.2846L1568.09 28.1564L1568.06 28.1521L1568.04 28.1554L1566.4 28.417L1566.39 28.4181L1566.38 28.4202L1562.69 29.3959L1562.68 29.3981L1562.68 29.4002C1562.67 29.4045 1562.64 29.4153 1562.6 29.4293C1561.38 27.4403 1559.2 23.5452 1559.17 23.5054L1555.89 17.6731L1555.89 17.6678L1555.88 17.6602L1552.35 12.5547L1552.34 12.5473L1552.33 12.5397L1543.75 2.72407L1543.75 2.71973L1543.74 2.71441L1541.62 0.637114L1541.57 0.588608L1541.51 0.591894L1541.16 0.609114L1540.98 0.502506L1540.93 0.473389L1540.87 0.485285L1540 0.660775L1539.98 0.665113L1539.98 0.666165L1539.31 0.698503L1539.26 0.700606L1539.22 0.729723L1534.05 4.64625L1533.97 4.70658L1533.71 4.56764L1533.85 4.79919L1533.84 4.80458L1533.86 4.81319L1534.02 5.09102L1535.65 7.87579L1535.65 7.88335L1535.66 7.88979L1536.6 9.17771L1536.6 9.18093L1536.6 9.18421L1537.08 9.77753L1537.32 10.0651C1536.96 10.3526 1536.47 10.7877 1536.44 10.8081C1536.42 10.8329 1535.89 11.3099 1535.5 11.7202C1535.15 9.54494 1533.9 6.01064 1533.84 5.8545L1533.84 5.84911L1533.84 5.84372L1532.8 3.44338L1532.79 3.40355L1532.75 3.37877C1532.7 3.33677 1532.31 3.02454 1531.96 2.91362L1532.08 2.68963L1531.81 2.68102L1531.51 2.67024L1531.49 2.66912L1531.46 2.67668L1529.36 3.34972C1529.3 3.3648 1528.75 3.5231 1528.42 3.68894C1528.37 3.67171 1528.3 3.66416 1528.21 3.66416C1528.1 3.66416 1528 3.67603 1528 3.67711L1527.93 3.68677L1527.89 3.75249L1527.19 4.83041L1527.19 4.83685L1527.19 4.84224L1526.86 5.44318C1526.81 5.46903 1526.78 5.50023 1526.76 5.50884L1526.74 5.52928L1526.73 5.55623C1526.7 5.60038 1526.12 6.63092 1525.9 7.22319L1525.55 7.86396L1525.23 8.45622C1525.11 8.50038 1524.98 8.58223 1524.95 8.60161L1524.84 8.677L1524.89 8.81161L1524.93 8.9311L1524.95 8.9731L1524.92 9.01727L1525 9.11093C1525.01 9.12385 1525.03 9.14865 1525.07 9.17127C1525.44 11.3272 1526.55 15.3751 1526.56 15.4171L1526.56 15.4225L1526.56 15.4289L1527.71 18.7231L1528.06 19.7009C1527.15 18.232 1526.18 16.4972 1526.16 16.4746L1526.16 16.4692L1526.16 16.4659L1522.65 10.946L1519.54 5.83833L1519.52 5.80606L1519.49 5.7845L1517.81 4.70224L1517.76 4.67319L1517.71 4.67963L1515.68 4.90146L1515.64 4.90685L1515.6 4.93597L1513.65 6.58249L1513.54 6.66432L1513.41 6.76771L1513.42 6.77737L1513.39 6.8011L1513.48 6.9292L1512.81 14.393L1512.8 14.4468L1512.83 14.4932L1514.9 18.5195L1514.9 18.5228L1514.91 18.526L1517.16 22.5061L1518.49 24.8741L1519.11 26.0124L1519.11 26.0167L1519.11 26.021C1519.12 26.0253 1519.31 26.3419 1519.49 26.6617C1516.45 25.1703 1511.05 22.6245 1511 22.5987L1506.19 20.1984L1506.18 20.1941L1506.17 20.1919L1503.61 19.2119L1500.62 17.8228L1500.6 17.8131L1500.58 17.8099C1500.57 17.8088 1500.55 17.8056 1500.53 17.8056C1500.48 17.8056 1500.45 17.8142 1500.42 17.8282C1500.4 17.826 1500.38 17.825 1500.36 17.825H1500.34L1500.27 17.8292L1500.22 17.8885L1496.89 22.2132L1496.78 22.3543L1496.92 22.4641L1497.15 22.6483L1497.28 22.7538L1497.32 22.6891C1497.12 23.3859 1496.96 24.0557 1496.94 24.0998L1496.94 24.1138L1496.94 24.1257C1496.93 24.1828 1496.8 25.4546 1496.79 26.2041C1496.78 26.2278 1496.76 26.2568 1496.76 26.2881C1496.76 26.3268 1496.76 26.3807 1496.79 26.441C1496.79 26.5583 1496.8 26.7178 1496.8 26.7253L1496.81 26.8825L1496.95 26.8922H1496.98C1497.04 26.8922 1497.16 26.8846 1497.29 26.833C1498.24 27.5103 1499.97 28.8531 1499.99 28.8671L1500 28.8715L1500 28.8747L1503.4 31.1609L1503.41 31.1652L1503.41 31.1695L1510.28 34.833L1510.28 34.8351L1510.29 34.8362C1510.29 34.8395 1510.68 35.0193 1511.11 35.2207C1509.27 35.0742 1506.8 34.9288 1506.77 34.9277L1506.76 34.9267H1506.76L1503.49 34.8858C1503.41 34.8815 1501.76 34.7931 1500.8 34.7135C1500.8 34.5573 1500.75 34.4109 1500.67 34.273C1500.63 34.1933 1500.56 34.1448 1500.48 34.1448C1500.47 34.1448 1500.45 34.1459 1500.44 34.147L1500.43 34.1492L1500.42 34.1514C1499.23 34.496 1496.89 35.4059 1496.87 35.4155L1496.86 35.4199L1496.84 35.4263L1495.4 36.2598L1495.38 36.2749L1495.36 36.2954L1494.12 37.7093L1494.11 37.7126L1494.11 37.7168L1491.73 40.7428L1491.71 40.7654L1491.7 40.7924L1491.27 42.0189L1491.24 42.1029L1491.28 42.1761C1491.3 42.2009 1491.35 42.2806 1491.39 42.3301C1491.41 42.3603 1491.44 42.3894 1491.46 42.4099C1490.43 42.5585 1489.23 42.7759 1489.21 42.7792L1489.2 42.7803L1489.2 42.7824L1486.15 43.7085L1486.14 43.7106L1486.12 43.7182L1484.8 44.3923L1484.79 44.3977L1484.78 44.4063C1484.78 44.4117 1484.23 44.8242 1483.89 45.0298C1483.79 44.9965 1483.69 44.9868 1483.67 44.9857L1483.43 44.9652L1483.51 45.2139C1483.51 45.2139 1483.51 45.2161 1483.51 45.2193L1482.72 45.5575L1482.61 45.6027C1480.79 45.13 1478 44.71 1477.8 44.6809L1475.45 43.982L1475.44 43.9778L1475.42 43.9766L1473.53 43.898H1473.52H1473.51C1473.5 43.8991 1473.23 43.9185 1472.99 43.9552C1472.98 43.9099 1472.95 43.87 1472.92 43.8388L1472.82 43.7139L1472.7 43.8238L1472.32 44.1694L1472.32 44.1716C1472.32 44.1748 1472.31 44.177 1472.31 44.177L1472.2 44.2244L1472.21 44.3352C1472 44.6378 1471.58 45.0804 1471.57 45.0847L1471.56 45.0955L1471.55 45.1063L1470.99 45.9398L1470.98 45.9505L1470.98 45.9624L1470.02 47.918L1470 47.9589L1470 48.0041C1470 48.0978 1470.03 48.9076 1470.27 49.3233C1470.4 50.4131 1471.35 52.1554 1471.39 52.2297L1471.4 52.2577L1471.43 52.2793L1474.11 54.4976L1474.14 54.5181L1474.17 54.5267L1480.89 56.6277L1487.63 58.7147L1485.5 58.93L1485.45 58.9354L1485.41 58.972L1481.91 62.3146L1481.9 62.3308L1481.88 62.3501C1481.86 62.3986 1481.19 63.5089 1481.07 64.2282C1481.03 64.2788 1481.03 64.3305 1481.03 64.3617C1481.03 64.3789 1481.04 64.3951 1481.04 64.4113L1481.04 64.4188L1481.04 64.4468L1481.05 64.4759L1481.52 66.7588L1481.53 66.7728L1481.53 66.7868L1482.04 68.12L1482.04 68.1265L1482.04 68.134L1482.53 69.1656L1482.56 69.2292L1482.62 69.2518L1484.68 69.9852L1484.71 69.9948L1484.74 69.9938L1487.46 69.8732C1485.11 70.6916 1482.09 71.7361 1482.06 71.7491L1477.74 73.2502C1477.63 73.2793 1475.72 73.8242 1474.68 74.1332C1474.64 74.1192 1474.57 74.102 1474.49 74.102C1474.44 74.102 1474.39 74.1074 1474.35 74.1181L1474.32 74.116L1474.32 74.1149H1474.3C1474.24 74.1149 1474.19 74.1429 1474.16 74.1914C1474.09 74.228 1474.04 74.2721 1474.03 74.2797L1474.01 74.2947L1473.99 74.3163C1473.99 74.3163 1473.98 74.3314 1473.97 74.3475L1473.95 74.3551L1472.86 74.6932H1473.74C1473.57 74.9764 1473.39 75.3156 1473.38 75.335L1473.38 75.3436L1473.37 75.3533L1473.06 76.1664L1472.7 76.9955L1472.69 77.0192L1472.69 77.0451L1472.44 79.1622L1472.43 79.2246L1472.46 79.2764L1473.25 80.6407L1473.27 80.6817L1473.31 80.7043L1477.21 82.7977L1479.25 83.853L1480.25 84.3635L1480.25 84.3656L1480.26 84.3667L1481.21 84.7931L1481.24 84.8071L1481.27 84.8061C1481.35 84.8039 1481.73 84.7834 1481.92 84.6036C1482.5 84.4431 1483.58 84.2181 1483.64 84.2051L1486.29 83.7518L1486.3 83.7496L1486.31 83.7443L1491 82.1731L1491 82.172L1491.01 82.1699L1500.09 78.6582C1500.21 78.6108 1511.72 74.0482 1517.49 71.7717C1518.11 71.9698 1519.24 72.3208 1519.36 72.3564L1521.48 73.3278L1521.48 73.3288L1521.48 73.3299L1523.59 74.2269L1523.6 74.2301L1523.61 74.2345L1526.01 74.9258L1530.4 76.7909L1534.11 78.5333L1541.78 83.082L1550.08 88.6289L1550.08 88.63L1550.08 88.6322L1554.21 91.1262L1556.4 92.3775L1557.49 92.9741L1558.03 93.2681L1558.03 93.2691L1558.04 93.2713C1558.08 93.2907 1558.14 93.324 1558.19 93.3499C1558.28 93.6999 1558.66 94.0929 1558.8 94.2243L1558.93 94.3481L1559.03 94.2007L1561 91.4503L1561.02 91.4266L1561.03 91.3997L1561.93 88.4049L1561.95 88.3532L1561.93 88.2994L1560.39 82.9312L1560.38 82.9032L1560.37 82.8796C1560.35 82.8602 1560.1 82.5037 1559.89 82.227C1560.15 82.101 1560.46 81.9427 1560.48 81.9351L1560.49 81.9297L1560.5 81.9243L1561.8 81.0251L1561.81 81.0187L1561.82 81.0101L1562.68 80.2078L1562.69 80.2003L1562.69 80.1949L1563.03 79.7997L1563.13 79.6844L1563.03 79.5671L1562.79 79.272C1564.09 79.7275 1566.25 80.4038 1566.27 80.4113L1566.28 80.4146L1566.29 80.4167L1569.64 81.0349L1569.67 81.0413L1569.7 81.0327L1576.32 79.425L1576.45 79.3937L1576.45 79.2558C1576.45 79.2354 1576.45 78.8036 1576.11 78.5915C1576.18 78.1586 1576.09 77.5264 1576.08 77.4467L1576.07 77.3929L1576.04 77.3541L1574.05 75.0572L1574.04 75.0432L1574.02 75.0324L1568.47 70.8725L1569.32 70.9155L1571.73 71.1933L1575.96 72.0129L1580.09 73.3698L1582.22 74.2097L1583.17 74.5952L1583.17 74.5984L1583.18 74.6006L1584.11 74.8558L1584.18 74.8763L1584.24 74.8311C1584.24 74.8289 1584.3 74.7858 1584.37 74.7266C1584.49 74.7653 1584.63 74.7847 1584.81 74.7847C1584.92 74.7847 1585 74.7783 1585 74.7783L1585.05 74.7718L1585.09 74.7373L1585.79 74.0923L1585.8 74.0891L1585.8 74.0847L1586.57 73.2685L1588.3 71.4691L1588.32 71.4529L1588.33 71.4346L1588.6 70.9511L1588.76 70.6732L1588.46 70.6851L1588.24 70.6959L1588.18 70.6991L1588.14 70.7443L1586.51 72.4242L1585.67 73.289L1585.34 73.6228L1584.82 73.6023L1582.92 70.9349L1582.15 68.8533L1581.48 66.621L1582.23 65.7552L1583.43 65.0068L1583.44 65.0035L1583.44 65.0003C1583.48 64.9723 1584.36 64.3466 1584.9 63.8793C1585.38 64.8722 1586.15 66.5768 1586.16 66.5941L1586.16 66.5994L1586.17 66.6038L1586.65 67.5126L1586.95 68.5131L1587.19 69.3207L1587.19 69.3368L1587.2 69.3508C1587.21 69.3713 1587.43 69.8193 1587.61 70.0562C1587.66 70.319 1587.9 70.5764 1587.92 70.6076L1588.05 70.7486L1588.17 70.5914L1588.36 70.3211C1588.4 70.3771 1588.45 70.4084 1588.51 70.4084C1588.62 70.4084 1588.69 70.3243 1588.73 70.1585L1588.73 70.1402V70.1208C1588.74 69.7191 1588.36 69.0343 1588.31 68.9449L1587.7 67.8045L1586.88 65.8575L1586.5 64.9723L1586.49 64.9605L1586.49 64.9487L1585.37 63.1535L1585.74 63.09L1585.3 62.8466L1585.05 62.7055L1585.02 62.6915L1584.99 62.6872L1583.77 62.5192L1578.87 61.7191L1578.27 61.6007L1579.23 61.6523L1582.14 61.7675H1582.14H1582.15L1587.74 61.4563L1587.75 61.4553H1587.75L1592.89 60.807L1592.92 60.8038L1592.94 60.7876L1596.82 58.5563L1596.85 58.5402L1596.87 58.5155C1596.91 58.467 1597.8 57.3255 1598.18 56.66C1598.31 56.4845 1598.53 56.1431 1598.53 56.128L1598.54 56.114L1598.55 56.0979L1599.49 53.7557L1599.51 53.7202L1599.51 53.6663ZM1481.89 79.3818C1481.68 79.4938 1481.47 79.6393 1481.41 79.6823L1481.35 79.7243L1481.34 79.7976L1480.99 82.0342L1480.83 83.0249L1480.66 83.433L1480.32 83.2898L1476.33 81.0725L1474.58 80.0409L1473.72 79.5358L1473.71 79.5304L1473.7 79.5272C1473.52 79.4465 1473.29 79.3205 1473.24 79.257L1473.22 79.2354L1473.2 79.2225L1473.19 79.215C1473.18 79.1267 1473.18 79.0383 1473.19 78.95V78.9468V78.9436C1473.2 78.2512 1473.5 76.8534 1473.53 76.6822C1473.6 76.5314 1474.11 75.348 1474.5 74.7751C1474.53 74.7643 1474.57 74.7545 1474.6 74.7438L1474.61 74.7427C1475.95 75.573 1478.41 77.4317 1478.44 77.4511L1478.44 77.4575L1478.45 77.4629C1478.48 77.479 1480.59 78.6463 1481.89 79.3818ZM1541.09 0.960161L1541.8 1.36721L1543.78 3.64372L1551.85 13.1503L1558.4 23.5054C1558.51 23.724 1562.03 30.1583 1564.24 33.0422C1564.24 33.0583 1564.25 33.0723 1564.27 33.0874L1564.28 33.1035L1564.29 33.1068L1564.3 33.124C1564.33 33.1649 1564.36 33.2069 1564.39 33.2468L1564.43 33.3038C1564.44 33.3264 1564.46 33.3469 1564.49 33.3652C1564.62 33.5332 1564.86 33.8293 1564.86 33.8336L1564.86 33.8369L1564.87 33.839L1569.37 38.9541C1569.37 38.9552 1570.56 40.3067 1571.22 41.0508L1571.27 41.1186C1571.28 41.1348 1571.3 41.165 1571.34 41.1876C1572.27 42.2354 1574.08 44.2825 1574.1 44.3051L1574.14 44.3482L1574.19 44.3568C1574.2 44.359 1574.24 44.3643 1574.29 44.3708C1573.67 45.1009 1572.77 46.195 1572.76 46.2068C1572.75 46.2187 1572.02 47.1071 1571.55 47.6897C1571.54 47.6671 1571.53 47.6509 1571.53 47.6466L1571.52 47.6402L1571.52 47.6337L1569.76 45.3712L1567.81 42.9741L1564.42 38.5191L1558.23 29.8299L1552.53 21.2096L1546.67 12.1025L1545.08 9.7237L1545.08 9.71936L1545.07 9.71404L1544.02 8.35284L1544.02 8.34856L1544.02 8.34318L1542.68 6.81398L1540.82 4.24137L1540.81 4.23059L1540.8 4.21981L1538.65 2.07797L1538.62 2.05642L1538.6 2.04459L1538.51 2.00364L1538.99 1.62459L1540.07 1.00643L1541.09 0.960161ZM1575.2 61.0073C1575 60.9868 1574.78 60.9707 1574.58 60.9707C1575.54 59.6817 1577.12 57.5829 1577.14 57.5592L1577.46 57.1446C1580.15 57.0143 1585.44 56.8495 1585.49 56.8484H1585.49L1585.5 56.8474L1593.85 56.3617L1596.01 56.1937L1596.97 56.114L1596.98 56.1129L1597 56.1076L1597.83 55.8534C1597.75 56.0548 1597.67 56.239 1597.59 56.3951C1597.1 57.1554 1596.46 57.8855 1595.58 58.6867C1594.63 59.2273 1592.48 59.6214 1592.35 59.644L1582.33 60.6002L1579.54 60.8587L1575.76 60.9556L1575.14 60.9728L1575.2 61.0073ZM1483.68 47.1017C1483.69 47.0425 1483.81 46.5633 1483.68 46.1864C1483.71 46.1401 1483.74 46.0927 1483.77 46.0453C1484.03 46.9542 1484.37 48.3293 1484.38 48.3455L1484.76 49.9436C1484.76 49.9436 1484.84 50.3 1484.91 50.5714C1484.88 50.5854 1484.86 50.5973 1484.85 50.6016L1484.82 50.622L1484.8 50.6532L1483.59 52.5442L1483.58 52.555L1483.58 52.5679C1483.57 52.5905 1483.35 53.0837 1483.21 53.4251C1483.19 53.424 1483.17 53.423 1483.15 53.423C1483.13 53.423 1483.12 53.4229 1483.1 53.424C1483.05 53.4208 1482.95 53.3939 1482.87 53.3702L1482.33 52.5485L1482.09 51.5061L1482.09 51.5007L1482.08 51.4953C1482.08 51.4856 1481.84 50.6672 1481.7 50.1514L1481.71 50.1342L1482.12 49.5182L1482.13 49.4999L1482.14 49.4794L1482.27 49.1263L1482.63 48.1118C1482.63 48.1054 1482.87 47.4625 1483.06 47.0834C1483.24 47.1394 1483.47 47.218 1483.48 47.2191L1483.64 47.273L1483.68 47.1017ZM1498.2 21.6242C1498.16 21.5833 1498.12 21.5498 1498.08 21.5218C1498.41 21.0599 1498.93 20.3782 1498.98 20.3071C1499.05 20.2318 1499.8 19.4165 1500.33 18.8081L1500.36 19.8904L1500.39 20.6054C1500.39 20.67 1500.38 20.9673 1500.41 21.1934C1500.4 21.2009 1500.39 21.2074 1500.39 21.2117L1500.37 21.2278L1500.35 21.2484C1500.34 21.2677 1499.06 23.1683 1498.43 24.2657C1498.36 24.2517 1498.3 24.2496 1498.29 24.2496L1498.18 24.2484L1498.14 24.3464L1497.69 25.3275C1497.81 23.8726 1498.25 21.8201 1498.25 21.7964L1498.28 21.6942L1498.2 21.6242ZM1532.01 3.41006H1532.03L1532.53 4.24893L1533.2 7.04119L1533.2 7.04875L1533.2 7.05631L1534.85 12.2209C1534.86 12.2629 1534.88 12.3771 1534.91 12.4794C1534.65 12.9726 1534.56 13.9073 1534.55 13.9493L1534.55 14.0398L1534.61 14.1001C1534.63 14.1152 1534.7 14.1787 1534.79 14.2196C1534.91 14.4124 1536.08 16.1924 1536.81 17.3792L1536.85 17.5913L1537.31 19.9776V19.9809L1537.31 19.9841L1537.6 21.216C1537.6 21.2526 1537.64 21.4454 1537.68 21.6511C1537.61 21.6144 1537.57 21.5875 1537.56 21.5843L1534.68 20.0724L1532.95 19.0957L1532.94 19.0881L1532.93 19.0838L1531.63 18.6326L1531.31 18.5217C1531.2 17.7539 1530.81 16.6738 1530.77 16.5855L1529.6 12.9069L1528.99 10.4872L1528.99 10.4743L1528.98 10.4624C1528.98 10.4473 1528.45 9.14218 1528.18 8.38084C1528.59 8.00932 1529.12 7.28889 1529.15 7.25658C1529.17 7.22966 1530.9 4.79919 1531.66 3.45311C1531.72 3.43265 1531.83 3.41006 1532.01 3.41006ZM1579.79 32.9323C1579.84 32.9431 1580 32.9733 1580.19 33.0185C1580.07 33.1186 1579.96 33.2371 1579.92 33.2888L1579.43 33.7928L1577.68 35.5308L1575.78 37.0664C1575.62 37.1827 1572.89 39.1781 1571.59 40.5587C1570.75 39.6358 1569.61 38.3371 1568.57 37.1612L1568.62 37.1913L1568.72 37.2646L1568.81 37.172L1570.37 35.5835L1572.08 34.5207L1575.7 33.0788L1579.79 32.9323ZM1579.93 38.1013L1579.93 38.1034L1579.92 38.1056C1579.89 38.1444 1576.41 41.893 1574.64 43.9552C1573.78 42.9914 1572.91 42.0211 1572.05 41.0788L1573.59 39.5055L1575.82 37.9796L1575.83 37.9785L1575.83 37.9774L1579.66 35.1733L1579.66 35.1701L1579.66 35.1668L1580.6 34.3807L1581.07 34.0167L1581.1 33.9941L1581.12 33.9607C1581.24 33.7249 1581.32 33.5515 1581.35 33.4234C1581.47 33.4923 1581.6 33.5655 1581.63 33.5838L1582.32 34.1115L1583.08 34.8524L1583.11 34.8847L1583.14 34.8901L1579.93 38.1013ZM1569.71 35.3639L1569.71 35.3671L1569.7 35.3693L1568.33 36.7412L1568.26 36.8101C1567.08 35.463 1566.12 34.357 1566.07 34.3C1566.04 34.2655 1565.63 33.7658 1565.32 33.3803C1565.77 33.2597 1566.32 33.0002 1566.45 32.9409L1571.15 32.4509L1571.2 32.4467L1571.22 32.4897L1571.34 33.7464L1571.35 33.8348L1571.38 33.8541C1570.73 34.4367 1569.72 35.352 1569.71 35.3639ZM1570.98 31.9147L1570.92 31.9157L1567.74 31.9427H1567.72L1567.7 31.9481L1565.99 32.3551L1565.99 32.3562L1565.99 32.3573L1565.28 32.5533C1565.23 32.5619 1564.96 32.606 1564.76 32.6405C1564.14 31.8059 1563.53 30.9024 1562.88 29.8848L1565.34 29.3549L1566.73 29.1083L1567.5 28.9975L1567.51 28.9963L1567.51 28.9953C1567.52 28.9942 1568.24 28.8424 1568.61 28.8251H1568.62L1568.63 28.8219C1568.71 28.8036 1568.79 28.7971 1568.86 28.7971C1569.02 28.7971 1569.17 28.8327 1569.32 28.9027L1569.36 28.9242L1569.41 28.9167C1569.43 28.9124 1569.46 28.9091 1569.48 28.9091C1569.58 28.9091 1569.63 28.9544 1569.65 28.9985L1569.66 29.0136L1569.67 29.0255C1569.7 29.0642 1569.77 29.187 1569.8 29.2581L1570.14 29.9516L1570.8 31.3246L1571.03 31.9523L1570.98 31.9147ZM1587.71 32.4165C1587.74 32.4467 1588.22 33.1499 1588.53 33.5128C1588.6 33.9575 1588.9 34.6671 1588.91 34.6995C1588.92 34.7221 1589.12 35.1733 1589.3 35.4715C1585.54 38.952 1578.82 46.4987 1578.75 46.5751L1578.75 46.5816L1578.74 46.587L1576.04 50.1708L1576.03 50.173L1576.03 50.1762L1573.35 54.0335L1573.35 54.0378L1573.34 54.0421L1570.99 57.8822C1570.74 58.257 1565.66 65.8554 1564.84 68.6401C1563.27 67.7614 1561.65 66.9484 1560.03 66.2226C1560.87 64.7246 1562.45 62.0454 1562.47 62.0185L1563.76 59.7668L1565.38 57.6238L1565.38 57.6206L1565.38 57.6173L1568.42 53.1634L1568.42 53.1602L1568.42 53.157L1569.14 52.0069L1569.88 50.9461L1571.63 48.5899L1585.95 33.2037L1587.07 32.3476C1587.15 32.3185 1587.44 32.2054 1587.71 32.1365C1587.69 32.2151 1587.68 32.2786 1587.68 32.2937L1587.67 32.3616L1587.71 32.4165ZM1521.42 54.3458H1521.42H1521.42C1521.43 54.3458 1522.5 54.363 1523.93 54.363C1525.62 54.363 1527.82 54.3404 1529.54 54.2435C1529.23 54.3781 1528.98 54.4901 1528.96 54.4998L1527.35 55.2622L1525.2 55.8254L1525.1 55.8523C1522.67 55.2665 1518.24 54.3092 1518.2 54.2995L1518.19 54.2984L1518.18 54.2973L1516.12 54.0734L1521.42 54.3458ZM1526.93 55.9396L1527.72 55.8653L1527.73 55.8642H1527.73L1528.59 55.7393H1528.6L1528.61 55.7371L1531.7 55.0005L1531.71 54.9984L1531.72 54.9951L1537.25 52.9728L1537.26 52.9696L1537.27 52.9663L1547.37 48.1377L1547.37 48.1344L1547.38 48.1312L1550.2 46.5084C1550.27 46.4696 1551.79 45.5974 1552.63 44.9879L1552.81 45.2872C1552.96 45.5338 1553.12 45.7879 1553.26 46.0432L1552.85 45.9365L1553.31 46.3878L1553.5 46.574L1553.53 46.6042L1553.57 46.6139C1553.57 46.6139 1553.58 46.6161 1553.59 46.6204C1553.92 47.2385 1554.39 48.4338 1554.44 48.5447C1554.45 48.5824 1554.49 48.7256 1554.52 48.8559C1554.28 48.9647 1553.96 49.1381 1553.94 49.1467L1553.93 49.1499L1553.93 49.1543L1552.72 49.9544L1550.44 51.3101L1548.65 52.1221L1548.64 52.1264L1548.63 52.1329L1547.18 53.0848L1537.81 57.1974L1536.08 57.6733L1535.71 57.7379L1535.21 57.7476L1535.13 57.7487L1535.08 57.8165C1535.07 57.8337 1535.01 57.9231 1534.98 57.9931L1534.97 58.0115L1534.96 58.0341C1534.94 58.1493 1534.91 58.2731 1534.88 58.4099C1534.33 58.2602 1533.48 58.0255 1533.48 58.0255L1526.27 56.142C1526.57 56.0483 1526.86 55.96 1526.93 55.9396ZM1555.78 59.2175C1556.48 58.6899 1557.41 57.9522 1557.42 57.9425L1557.42 57.9393L1557.42 57.9361L1558.03 57.3933C1558.22 57.7616 1558.47 58.2645 1558.48 58.2699L1559.07 59.3877C1558.49 59.3662 1556.9 59.2994 1555.78 59.2175ZM1558.81 56.2572L1558.77 56.2174L1558.72 56.2077C1558.71 56.2056 1558.66 56.1927 1558.59 56.1851C1558.59 56.184 1558.59 56.1819 1558.59 56.1808L1558.56 56.0537H1558.52C1558.2 55.413 1557.64 54.2941 1557.63 54.2812L1556.42 51.9735L1558.17 52.7833L1558.19 52.7897L1558.2 52.793L1562.09 53.761L1562.09 53.7622H1562.09L1563.92 54.1121L1564.91 54.2758L1564.92 54.2769H1564.92L1565.7 54.3501L1565.79 54.3587L1565.84 54.2769L1566.46 53.3217L1566.48 53.2958L1566.49 53.2657C1566.49 53.2571 1566.52 53.1376 1566.54 53.0191C1566.57 53.0148 1566.6 53.0073 1566.63 52.9997C1566.74 53.1257 1566.84 53.2431 1566.95 53.3497L1566.96 53.3518C1566.96 53.3583 1566.97 53.3691 1566.98 53.3788L1567.02 53.4078L1567.03 53.4111C1566.63 53.9559 1566.04 54.796 1566.04 54.8056L1566.03 54.8099L1566.03 54.8143L1562.09 61.2539C1562.08 61.2808 1561.92 61.5178 1561.79 61.7234C1561.23 61.0063 1560.45 59.7678 1560.4 59.672L1558.95 56.9076C1558.95 56.9076 1558.87 56.7472 1558.8 56.6115C1558.84 56.5545 1558.86 56.4963 1558.87 56.437C1558.87 56.338 1558.82 56.2744 1558.81 56.2572ZM1565.79 51.9003L1565.68 51.9541L1565.7 52.0811C1565.7 52.0876 1565.77 52.6583 1565.79 53.0632C1565.68 53.0374 1565.56 53.0008 1565.51 52.9836L1565.5 52.9792L1565.49 52.9771L1564.69 52.8403L1563.2 52.5884L1560.53 52.0219L1558.13 51.4372L1558.12 51.4339L1558.11 51.4329L1556.78 51.3123C1556.68 51.2907 1555.81 51.0969 1555.26 50.9364C1555.34 50.51 1555.38 50.0793 1555.37 49.655C1555.41 49.5451 1555.5 49.3179 1555.5 49.3158L1555.51 49.2931L1555.51 49.2705L1555.55 48.9291L1555.57 48.7579L1555.41 48.7353C1555.4 48.7332 1555.35 48.7257 1555.29 48.7203C1555.28 48.6169 1555.26 48.5135 1555.26 48.5071L1555.26 48.4984L1555.26 48.4909C1555.24 48.4467 1555.01 47.5605 1554.78 46.923C1556.49 47.3849 1559.37 48.3186 1559.46 48.3509L1562.19 49.3481L1563.62 49.9166L1563.62 49.9177L1563.62 49.9188C1563.63 49.9231 1564.68 50.2946 1565.22 50.5444C1565.41 50.9741 1565.58 51.323 1565.74 51.6321C1565.76 51.729 1565.78 51.8162 1565.8 51.8959C1565.8 51.8981 1565.79 51.8992 1565.79 51.9003ZM1536.94 58.7631L1538.75 58.2721L1538.76 58.2699L1538.77 58.2667L1541.83 57.0768L1541.85 57.0692L1541.87 57.0606L1543.35 56.0559L1543.36 56.0505L1543.37 56.044C1543.37 56.0397 1543.76 55.7102 1543.96 55.5595C1544.02 55.5347 1544.11 55.4959 1544.13 55.4883L1547.33 54.3297L1548.43 53.9162L1548.45 53.9129L1548.45 53.9075L1550.78 52.6616L1550.79 52.6594L1550.79 52.6573L1553.06 51.2584L1553.75 50.916L1554.45 50.6468L1554.47 50.6392L1554.49 50.6242L1554.64 50.5046C1554.63 50.5768 1554.62 50.6511 1554.61 50.7232L1554.46 50.6726L1554.51 50.9537L1554.53 51.0592L1554.53 51.1044C1554.38 51.6547 1553.91 52.5377 1553.82 52.7014L1550.62 55.4981L1546.31 57.697L1541.51 59.7678L1541.45 59.7904L1541.43 59.8464C1541.42 59.869 1541.35 60.0134 1541.32 60.1921C1541.15 60.1415 1540.96 60.0876 1540.96 60.0876C1540.93 60.0779 1538.3 59.3435 1536.58 58.8708C1536.78 58.8105 1536.94 58.7631 1536.94 58.7631ZM1546.76 59.1551L1546.77 59.1519L1546.77 59.1486L1551.37 56.4974L1551.39 56.4866L1551.4 56.4758C1551.53 56.3531 1554.54 53.5543 1555.16 51.4027C1555.28 51.4522 1555.41 51.5115 1555.54 51.5697L1555.57 51.6493L1556.89 54.9855L1556.89 54.9897L1556.9 54.9941C1556.9 55.0048 1557.38 56.0484 1557.68 56.6643C1557.65 56.6934 1557.62 56.7181 1557.61 56.7257L1554.1 59.5729C1554 59.6569 1551.58 61.6103 1550.41 62.838C1549.71 62.6334 1548.47 62.2726 1548.47 62.2726C1548.43 62.2618 1545.18 61.3121 1543.17 60.7284C1544.6 60.1577 1546.74 59.1659 1546.76 59.1551ZM1553.87 60.5906C1553.93 60.5507 1554.71 59.9886 1555.14 59.6795C1555.86 59.7582 1557.2 59.854 1557.22 59.855H1557.22H1557.22L1559.35 59.9046L1560.04 61.1893L1560.04 61.1979L1560.05 61.2087L1560.88 62.3814L1560.9 62.4083L1560.92 62.4255C1560.95 62.4395 1561.09 62.5289 1561.26 62.5731C1560.63 63.6209 1560.05 64.6891 1559.39 65.9404C1558.14 65.4084 1555.84 64.5448 1555.82 64.5362L1555.81 64.5351L1555.81 64.534C1555.78 64.5233 1552.82 63.5541 1551.12 63.0447C1552.04 62.0497 1553.79 60.6573 1553.87 60.5906ZM1560.19 43.3068L1560.09 43.2713C1560.07 43.2627 1557.96 42.4798 1556.74 42.0609L1556.85 41.5386L1556.87 41.4794L1556.84 41.4245L1554.04 35.057L1551.42 29.0696L1551.42 29.0663L1551.42 29.0621L1548.32 22.8485L1548.31 22.841L1548.31 22.8324L1546.4 19.8032L1544.42 14.3876L1544.41 14.3542L1544.39 14.3305L1542.68 12.46L1541.74 11.1494L1541.42 10.554L1541.41 10.5281L1541.39 10.5077C1541.38 10.4991 1540.56 9.78188 1540.06 9.25421L1540.05 9.20465C1540.08 9.2025 1540.12 9.20143 1540.16 9.20143C1540.93 9.20143 1542.04 9.66986 1542.23 9.75709L1544.84 12.7519L1549.28 20.3868L1558.33 36.7401C1558.36 36.7951 1561.36 42.2925 1562.88 45.0266C1562.91 45.1009 1562.93 45.1784 1562.95 45.2581C1562.06 44.5635 1561.08 43.9831 1560.2 43.4824C1560.2 43.4576 1560.2 43.435 1560.2 43.4145L1560.19 43.3068ZM1507.77 61.7708L1507.24 61.4563L1507 61.3163L1506.98 61.3035L1506.96 61.2981L1506.4 61.1807C1506.4 61.1807 1506.36 61.171 1506.32 61.1635C1506.17 61.0471 1505.94 60.8544 1505.94 60.8544L1505.44 60.442L1504.99 60.0769L1505.12 59.1842L1505.53 58.1881C1505.56 58.1278 1505.74 57.8004 1505.9 57.5333L1505.93 57.5462L1506.01 57.5818L1506.08 57.529L1507.49 56.4963L1507.51 56.4855L1507.52 56.4726L1508.43 55.4463L1509.18 54.755L1510.71 55.3979L1511.83 56.1689L1512.44 56.5824L1512.62 56.7117L1512.67 56.7494C1512.61 57.0412 1512.23 57.5538 1512.08 57.7304L1511.15 58.7761L1509.16 60.7801L1508.24 61.6275L1508.24 61.6308L1508.24 61.6329C1508.12 61.7492 1507.77 62.0497 1507.52 62.0573L1507.51 61.9915L1507.46 61.9507C1507.45 61.9442 1507.36 61.8688 1507.24 61.7783L1507.77 61.7708ZM1567.34 52.99C1567.28 52.8877 1567.21 52.7865 1567.15 52.6864C1567.08 52.5668 1567 52.4462 1566.93 52.3277C1566.52 51.4867 1566.19 49.5914 1566.19 49.572L1566.18 49.5494L1566.17 49.5279C1566.14 49.4612 1565.45 47.9072 1564.91 47.1954C1564.65 46.433 1564.37 45.8214 1564.07 45.3238C1561.06 39.7381 1554.88 28.5645 1554.82 28.4525L1550.12 19.8409L1550.11 19.8387L1550.11 19.8365L1547.29 15.0531L1551.57 21.2204L1563.16 38.2057L1563.16 38.209L1563.16 38.2122L1566.68 42.875L1568.53 45.3055L1568.53 45.3077L1568.53 45.3109L1570.8 48.0892L1570.8 48.0924L1570.8 48.0946C1570.83 48.1237 1570.93 48.2303 1571.04 48.3207C1570.46 49.0487 1569.5 50.2634 1569.49 50.2752C1569.48 50.2925 1568.11 51.9831 1567.34 52.99ZM1540.37 23.3633C1540.35 23.3558 1539.38 22.6881 1538.71 22.2627L1538.78 22.2207L1538.97 22.0947L1538.79 21.9375C1538.79 21.9353 1538.78 21.9224 1538.75 21.9084C1538.57 21.0125 1538.26 20.1542 1537.95 19.3251C1537.93 19.2766 1537.91 19.2281 1537.89 19.1797C1537.97 19.3154 1538.03 19.4047 1538.03 19.4069L1538.03 19.4091L1538.03 19.4123C1538.05 19.4392 1539.63 21.8923 1540.7 23.5991C1540.51 23.4678 1540.37 23.3655 1540.37 23.3633ZM1545.4 38.392L1544.35 37.453L1544.34 37.4466L1544.33 37.4412L1543.39 36.781L1541.37 35.3671L1537.39 32.5953L1537.39 32.5931L1537.39 32.5909L1533.33 30.0377C1533.31 30.0205 1530.75 28.3309 1529.36 27.366C1529.64 26.9816 1529.96 26.371 1530 26.3107L1530.81 24.9506C1530.81 24.9506 1531.74 23.3751 1532.25 22.5223C1533.4 23.3687 1535.37 25.0324 1535.39 25.0497L1539.07 28.0358L1542.55 30.7894L1544.24 32.1699L1545.02 32.816L1545.41 33.1348L1545.44 33.1574L1545.47 33.166C1545.48 33.1681 1545.61 33.2015 1545.82 33.2015C1545.95 33.2015 1546.09 33.1864 1546.22 33.1574C1546.55 33.7927 1547.1 34.8459 1547.1 34.8578L1548.56 37.7954L1549.32 39.4075L1549.32 39.4118L1549.32 39.4151C1549.33 39.4205 1549.53 39.7952 1549.69 40.1333C1549.49 40.086 1549.3 40.0418 1549.1 39.9987L1549.1 39.9782L1549.02 39.9502C1548.99 39.9416 1546.87 39.19 1545.49 38.6429L1545.63 38.5977L1545.4 38.392ZM1531.76 22.1497L1531.76 22.1626C1531.24 23.0047 1530.27 24.5834 1530.27 24.5834L1529.47 25.8821C1529.46 25.8972 1529.42 25.9553 1529.37 26.0329C1529.35 25.6807 1529.3 25.3296 1529.29 25.2661L1529.21 23.5905L1529.21 23.5345L1529.17 23.4914C1529.17 23.4817 1529.16 23.4645 1529.14 23.4462C1530.03 22.2606 1530.8 21.1579 1531.47 20.0885V20.095L1531.72 21.9192C1531.71 21.9375 1531.71 21.959 1531.71 21.9817C1531.7 22.0204 1531.71 22.085 1531.76 22.1497ZM1537.07 22.4383L1537.07 22.4393L1539.76 24.2872L1541.1 25.209L1541.73 25.6537C1541.81 25.7141 1541.99 25.8401 1542.12 25.8983C1543.26 27.8075 1544.35 29.7017 1545.36 31.5399L1544.73 31.0188L1542.98 29.5941L1539.45 26.8039L1539.44 26.8006L1539.44 26.7974L1536.04 24.466L1536.03 24.4638L1536.03 24.4628C1536.01 24.4466 1533.63 22.9584 1532.41 22.1184L1532.4 22.1012C1532.39 22.084 1532.34 22.015 1532.29 21.9537L1531.93 19.2744L1534.27 20.3976L1537.07 22.4371L1537.07 22.4383ZM1487.74 50.7426L1490.35 50.2624L1496.11 49.586L1507.33 49.0713L1530.03 49.5171L1536.42 49.684L1539.65 49.7691C1539.66 49.7691 1540.21 49.7842 1540.77 49.7853C1537.83 51.1152 1534.83 52.3159 1531.83 53.3572C1530.41 53.5101 1528.51 53.5866 1526.2 53.5866C1520.43 53.5866 1513.88 53.102 1513.82 53.0966L1509.14 52.8328L1504.18 52.5431H1504.17H1504.17L1494.52 52.8425L1494.52 52.8436H1494.52L1489.3 53.3077H1489.3L1489.29 53.3088L1486.69 53.7083C1486.61 53.718 1484.99 53.9021 1483.94 53.9915C1483.95 53.9678 1483.95 53.9409 1483.94 53.914C1483.94 53.8677 1483.92 53.8267 1483.88 53.7944C1483.86 53.7718 1483.84 53.7481 1483.82 53.7266C1484.06 53.0719 1484.42 52.3923 1484.9 51.7031C1484.91 51.7031 1484.92 51.7043 1484.93 51.7043C1484.98 51.7043 1485.02 51.6989 1485.03 51.6978L1485.05 51.6957L1485.07 51.6838L1486.36 51.0775L1487.74 50.7426ZM1531.45 18.89L1531.44 18.904C1531.41 18.8502 1531.37 18.7941 1531.33 18.7371C1531.33 18.7274 1531.33 18.7177 1531.33 18.708L1531.45 18.89ZM1492.64 42.0351L1492.65 42.0275L1492.66 42.0189C1492.66 42.0178 1492.68 41.9888 1492.71 41.95C1492.77 41.9091 1492.82 41.8681 1492.87 41.8261L1492.96 41.7519C1493.06 41.7454 1493.17 41.7421 1493.3 41.7421C1494.2 41.7421 1495.51 41.8983 1495.53 41.8993L1495.53 41.9005H1495.54L1498.45 42.0706L1503.84 42.3937L1515.12 42.9526L1537.75 44.6174C1537.82 44.6228 1545.07 45.1882 1549.16 45.4778C1548.44 45.8946 1547.53 46.4082 1547.52 46.4158C1547.5 46.4255 1545.42 47.5432 1544.34 48.0871C1542.9 47.904 1540.09 47.5077 1540.06 47.5034L1540.06 47.5023H1540.06L1534.86 46.9316L1524.39 45.6641L1518.93 44.9814L1518.93 44.9803H1518.92L1513.34 44.4763L1503.01 43.3768L1497.5 42.6295C1497.41 42.6112 1496.45 42.4152 1495.92 42.3592C1495.55 42.203 1494.88 42.1793 1494.51 42.1793C1494.37 42.1793 1494.29 42.1826 1494.29 42.1826C1494.28 42.1836 1493.3 42.216 1492.79 42.2537C1492.69 42.2311 1492.58 42.2084 1492.46 42.1815C1492.55 42.1072 1492.63 42.0394 1492.64 42.0351ZM1577.35 55.3537L1577.35 55.357L1572.33 62.194L1572.32 62.1983L1572.32 62.2026C1572.29 62.2554 1568.97 67.3781 1567.28 70.0778C1566.67 69.7019 1566.08 69.3433 1565.49 69.0073C1566.31 66.439 1573.2 55.3473 1573.37 55.0749L1575.76 51.7118L1578.47 48.4219L1581.7 45.2021L1584.73 42.0953C1584.77 42.0587 1588.73 38.1853 1590.86 36.2211C1591.4 36.8241 1592.59 37.3217 1592.65 37.3453L1592.66 37.3507L1592.67 37.354L1593.48 37.5133C1592.71 38.2725 1591.55 39.4624 1591.54 39.4753L1588.57 42.5563L1582.75 48.7547L1582.75 48.759L1582.74 48.7633L1577.36 55.3505L1577.35 55.3537ZM1593.64 35.1097L1593.64 35.1108C1593.64 35.1108 1593.53 35.1281 1593.46 35.1388L1593.43 35.1356C1592.69 34.9364 1591.27 34.5508 1590.98 34.4475C1590.84 34.3215 1590.59 34.1018 1590.55 34.0662L1588.97 32.3928C1588.94 32.353 1588.89 32.2517 1588.82 32.1397L1591.29 32.7395C1591.5 32.8645 1593.32 33.9833 1594.03 35.0914C1594.02 35.0871 1594 35.085 1593.99 35.0828L1593.97 35.0807L1593.95 35.0817L1593.65 35.1076L1593.64 35.1097ZM1542.62 8.40989L1542.62 8.41206L1542.62 8.41528L1543.43 9.60309L1543.43 9.60631L1543.43 9.60848L1544.54 11.1236L1542.19 9.09266L1542.17 9.07005L1542.13 9.05927C1542.09 9.04958 1541.17 8.78466 1540.23 8.78466C1539.56 8.78466 1539.05 8.9182 1538.7 9.17988C1538.47 9.29402 1538.25 9.42217 1538.02 9.5697C1537.81 9.31771 1537.48 9.00755 1537.42 8.95371L1536.4 7.73041L1534.56 5.0738L1538.23 2.21902L1538.24 2.23624L1539.77 4.53642L1539.78 4.54292L1539.78 4.54825L1541.75 7.00136L1542.62 8.40989ZM1537.82 10.3827C1537.89 10.4075 1537.97 10.4474 1538.03 10.4743L1538.06 10.485L1538.08 10.4883L1538.16 10.4958L1538.37 10.5184L1538.33 10.2934C1538.33 10.2621 1538.31 10.1383 1538.27 10.0241C1538.41 9.92506 1538.54 9.83893 1538.67 9.76248L1538.74 9.80987L1538.82 9.74631C1538.83 9.74415 1539.04 9.58475 1539.16 9.51475C1539.32 9.4523 1539.47 9.40387 1539.62 9.37048C1539.74 9.57293 1539.88 9.91217 1539.93 10.0425L1539.93 10.0565L1539.94 10.0683L1548.69 25.5816L1550.16 28.781L1553.06 35.113L1554.68 38.7097C1554.69 38.7312 1555.54 40.6017 1555.98 41.8089C1555.29 41.5903 1554.31 41.3039 1554.3 41.3006C1554.28 41.2931 1552.01 40.689 1550.8 40.3939L1550.79 40.381L1550.29 39.4807L1550 38.8465L1549.35 37.438L1548.03 34.7005L1548.03 34.6984L1548.02 34.6952L1545.27 29.4099L1545.27 29.4056L1545.27 29.4002L1539.2 19.2679L1539.2 19.2583L1539.19 19.2497L1537.29 16.8235L1535.22 14.1152L1536.77 11.396C1536.87 11.2937 1537.45 10.7112 1537.82 10.3827ZM1528.85 6.53727L1528.24 7.33736L1528.24 7.34275L1528.24 7.34702C1528.24 7.35133 1528.03 7.6626 1527.87 7.86074C1527.81 7.82736 1527.75 7.80362 1527.73 7.79823L1527.45 7.69163L1527.53 8.00606C1527.53 8.00606 1527.53 8.03407 1527.54 8.07284L1526.44 8.25918H1526.43C1527.09 7.21031 1527.93 5.52497 1527.97 5.44528L1527.97 5.43884L1527.97 5.43129L1528.26 4.70014L1529.35 3.9592C1529.48 3.91398 1530.23 3.64477 1530.82 3.44016C1530.11 4.65487 1528.91 6.44358 1528.85 6.53727ZM1527.4 8.83527L1527.42 8.83422L1527.44 8.82561C1527.46 8.81699 1527.57 8.77178 1527.69 8.71578C1527.86 9.52881 1528.12 10.8382 1528.12 10.8522L1528.12 10.863L1528.13 10.8738L1529.02 13.6456L1529.61 16.0912L1529.96 17.5148L1529.96 17.5213L1529.96 17.5288L1530.65 19.6029L1530.67 19.6718L1530.74 19.7019L1530.86 19.7665L1530.9 19.7827C1530.45 20.4988 1529.88 21.3657 1529.41 22.0872C1529.41 22.0786 1529.41 22.0689 1529.41 22.0613C1529.46 21.9795 1529.5 21.8815 1529.51 21.8589L1529.51 21.8449L1529.52 21.8298C1529.57 21.5865 1529.64 21.1654 1529.47 20.9931C1529.44 20.9447 1529.39 20.9005 1529.34 20.8638C1529.02 20.0788 1528.45 18.5841 1528.41 18.4625L1527.44 14.9498L1527.44 14.9454L1527.44 14.9422L1525.56 9.13466C1525.64 9.10881 1525.69 9.08299 1525.71 9.07761L1525.75 9.0571L1525.77 9.02588C1525.81 9.01942 1525.85 9.00327 1525.89 8.97527C1526.03 8.9645 1526.24 8.94832 1526.24 8.94832L1527.4 8.83527ZM1528.42 23.5647L1528.36 23.6594L1528.42 23.7585L1528.51 23.9157L1528.63 24.1192L1528.68 24.0492C1528.68 24.5844 1528.67 25.194 1528.67 25.2026L1528.65 26.0651L1528.64 26.5023L1528.63 26.5433L1528.65 26.581L1528.81 26.9309C1528.75 27.0882 1528.69 27.2766 1528.69 27.3036L1528.66 27.4026L1528.73 27.4748L1528.89 27.6482L1529.01 27.7688L1529.08 27.6837C1530.42 28.6141 1532.86 30.407 1532.88 30.4264L1536.94 33.5128L1536.94 33.5149L1536.94 33.5181L1540.92 36.2706L1542.48 37.3518C1541.06 36.7272 1539.55 36.051 1539.53 36.0413L1530.15 31.7445C1530.15 31.7445 1529.46 31.4236 1529.05 31.2309L1529.04 31.2082L1527.66 28.6001L1526.29 26.1115L1523.46 21.1998C1523.44 21.1643 1521.46 17.7765 1520.36 15.9867L1520.4 15.9243L1520.33 15.8295L1519.97 15.36L1518.46 12.9995L1518.58 13.0017L1518.36 12.7153L1517.5 11.55L1517.51 11.452L1517.52 11.3832L1517.47 11.3282L1514.3 6.94753L1514.26 6.89259L1514.19 6.88293L1514.19 6.88187L1514.14 6.81832L1514.11 6.77415L1514.06 6.7591L1513.99 6.73754L1515.53 5.54328L1517.65 5.2999L1519.05 6.84737L1522.42 12.1057L1525.07 16.5241L1528.84 22.6041L1528.94 22.7559L1528.99 22.7183C1528.66 23.2179 1528.43 23.5528 1528.42 23.5647ZM1514.57 9.5277L1514.92 9.89275L1514.94 9.92075L1514.98 9.9337L1515.08 9.97031L1516.3 11.6082L1519.49 16.6329L1525.29 26.399L1526.81 29.1741L1527.51 30.4964C1527.51 30.5007 1527.52 30.5083 1527.52 30.5212C1525.05 29.3625 1520.79 27.3025 1520.75 27.2788C1520.75 27.2788 1520.56 27.184 1520.4 27.1076C1520.42 26.8631 1520.37 26.5293 1520.36 26.4517L1520.36 26.4141L1520.33 26.3817L1519.68 25.335L1519.1 24.3184L1518 22.3349L1515.72 18.2083L1513.82 14.3079L1514.57 9.5277ZM1545.5 39.2557C1542.08 38.6397 1537.19 37.9387 1537.13 37.9322C1537.09 37.9268 1533.82 37.523 1532.16 37.327C1530.49 36.2286 1527.05 34.2741 1527.01 34.2547L1527.01 34.2515L1527 34.2494L1520.6 31.1092L1520.6 31.107L1520.59 31.106L1514.03 28.2878L1507.93 25.069C1507.89 25.0464 1503.53 22.616 1501.29 21.2182V21.2106L1501.12 18.5637C1502.79 19.4887 1505.27 21.0706 1505.3 21.0868L1505.3 21.0922L1505.31 21.0965L1510.17 23.541L1519.28 27.9486L1519.28 27.9496H1519.28L1528.52 32.0729L1537.8 36.01L1543.11 38.2553C1543.13 38.2617 1544.34 38.7614 1545.5 39.2557ZM1497.75 26.4108L1497.8 26.4022L1497.83 26.3688L1498.2 26.0059L1498.22 25.9887L1498.23 25.9683C1498.25 25.9381 1499.94 23.0025 1501 21.5584C1502.88 22.8388 1506.42 25.3146 1506.46 25.3404L1506.46 25.3447L1506.47 25.3469L1512.73 28.9221L1512.74 28.9253L1512.74 28.9285L1525.57 34.735C1525.71 34.8169 1527.9 36.1015 1529.44 37.018C1524.9 36.5108 1519.97 36.0164 1514.41 35.5103C1514.03 35.2346 1513.26 34.8976 1513.2 34.8685L1511.43 34.006L1508 32.2819L1501.44 28.6862C1501.41 28.6712 1498.95 27.3919 1497.63 26.5465C1497.66 26.5034 1497.71 26.4539 1497.75 26.4108ZM1532.55 38.8217L1532.59 38.8174C1532.62 38.8152 1532.72 38.8034 1532.82 38.7517C1537.53 39.2891 1546.82 40.885 1547.08 40.9292L1553.41 42.4303L1559.5 43.996L1559.53 44.0046L1559.56 43.9993C1559.57 43.996 1559.67 43.9788 1559.77 43.9368C1561.37 44.8974 1562.65 45.7912 1563.71 46.9984L1564.71 49.3265C1564.71 49.3265 1564.85 49.6496 1564.98 49.963C1564.57 49.781 1564.08 49.529 1564.08 49.5247L1564.07 49.5214L1564.06 49.5182L1562.64 48.9507H1562.63L1562.63 48.9497L1559.65 47.8835L1559.65 47.8825L1559.64 47.8814C1559.61 47.8696 1556.29 46.839 1554.55 46.3781C1554.06 45.354 1552.89 43.6687 1552.84 43.5965L1552.8 43.5459L1552.75 43.5319L1552.6 43.4932L1552.54 43.4759L1552.48 43.5093L1549.98 45.0019C1549.98 45.0019 1549.93 45.0298 1549.88 45.0611C1549.86 45.0438 1549.85 45.0341 1549.84 45.0277L1549.8 44.9997L1549.76 44.9965L1527.36 43.3478L1516.53 42.4992L1505.5 41.4148L1499.06 40.8548H1499.05H1499.04L1496.08 40.8527H1496.07L1496.06 40.8538C1496.04 40.8559 1494.72 41.0174 1493.7 41.1477C1495.06 40.0407 1497.09 38.3565 1497.12 38.3382L1499.53 36.3255C1499.64 36.2448 1500.39 35.6815 1500.67 35.1829C1501.47 35.2508 1502.9 35.4263 1502.97 35.4349L1505.95 35.9239L1505.96 35.9249H1505.96L1511.99 36.6184L1523.91 37.8159C1523.97 37.8202 1529.53 38.3855 1532.32 38.6968L1532.51 38.7991L1532.55 38.8217ZM1498.77 36.2685C1498.19 36.7466 1497.61 37.1709 1497.61 37.1752L1497.6 37.1773L1497.6 37.1795L1495.55 38.8217C1495.53 38.8389 1493.57 40.4489 1492.56 41.2888C1492.51 41.2942 1492.44 41.3006 1492.44 41.3006L1492.42 41.3028L1492.41 41.3082C1492.36 41.3244 1492.32 41.348 1492.29 41.3728H1492.28C1492.23 41.3728 1492.16 41.3674 1492.13 41.3653C1492.11 41.3556 1492.1 41.3448 1492.08 41.3351L1493.01 40.1774C1493.61 39.4247 1494.85 37.9796 1495.02 37.7793L1497.45 36.4494L1498.83 35.8915L1498.83 35.8894L1498.83 35.8873C1498.84 35.8851 1499.22 35.7042 1499.6 35.5168C1499.43 35.6934 1499.17 35.9357 1498.77 36.2685ZM1492.92 43.7042L1494.4 43.6213L1495.06 43.5933L1495.08 43.5922L1495.09 43.59C1495.09 43.59 1495.13 43.5803 1495.17 43.5706C1495.8 43.7408 1496.99 43.9293 1497.05 43.9368L1497.05 43.9379H1497.05L1502.37 44.5388L1512.76 45.6469L1522.78 46.7313L1533.22 47.652L1539.13 48.2583L1539.13 48.2593H1539.14C1539.16 48.2615 1541.66 48.4435 1543.34 48.5835C1543.22 48.6384 1543.11 48.6944 1543 48.7472C1542.99 48.7138 1542.99 48.6912 1542.98 48.6847L1542.95 48.5749L1542.84 48.5695L1536.5 48.2691L1530.75 48.1333L1519.39 47.8437H1519.39H1519.38L1497 48.0547H1496.99L1496.98 48.0558L1490.92 48.9313L1490.92 48.9324L1490.91 48.9335L1488.19 49.571L1488.18 49.5742L1488.17 49.5774L1486.63 50.1858L1486.62 50.1891L1486.61 50.1934C1486.61 50.1956 1486.2 50.4099 1485.9 50.5596L1485.94 50.5024L1485.84 50.3937C1485.81 50.3646 1485.79 50.3312 1485.78 50.2925L1485.77 50.286L1485.77 50.2796C1485.71 50.173 1485.69 50.0577 1485.69 49.9274L1485.69 49.908L1485.69 49.8876C1485.67 49.7465 1485.62 49.4633 1485.62 49.4633V49.459L1485.62 49.4536L1485.42 48.5792L1485.42 48.5695L1485.41 48.5598C1485.38 48.4769 1484.76 46.6409 1484.29 45.5564C1484.48 45.5338 1484.69 45.5209 1484.69 45.5209L1484.71 45.5198L1484.72 45.5155L1486.54 45.0051L1489.82 44.1598L1492.92 43.7042ZM1480.73 48.8645L1480.7 48.9023L1480.7 48.9475C1480.7 49.0239 1480.69 49.2135 1480.75 49.3265L1480.9 49.6356C1480.9 49.655 1480.91 49.6733 1480.91 49.6916C1480.87 49.6722 1480.84 49.6625 1480.84 49.6614L1480.81 49.6507L1480.79 49.6496L1473.35 49.2425L1471.64 48.9669C1471.47 48.9281 1471.2 48.8484 1471.03 48.7623C1471.05 48.7246 1471.06 48.6815 1471.07 48.6341C1471.14 48.4963 1471.22 48.2593 1471.24 48.2087C1471.25 48.1861 1472.12 45.719 1472.77 44.5797C1473.13 44.4698 1473.81 44.3945 1473.87 44.387C1473.88 44.387 1473.88 44.3859 1473.89 44.3859C1473.95 44.4042 1474.06 44.4343 1474.07 44.4386L1474.3 44.5086L1474.99 44.7854L1477.83 46.083L1477.85 46.0916L1477.87 46.0949C1477.9 46.1003 1480.63 46.5375 1482.23 46.881C1481.54 47.5648 1480.76 48.8053 1480.73 48.8645ZM1472.4 50.5164L1472.41 50.5186H1472.42L1476.69 50.8277L1476.69 50.8288H1476.7C1476.72 50.8299 1479.1 50.9171 1480.4 50.9774C1480.41 51.0248 1480.43 51.0754 1480.47 51.1152C1480.5 51.1561 1480.55 51.1809 1480.6 51.1841C1480.68 51.2056 1480.75 51.2153 1480.83 51.2153C1480.91 51.2153 1480.99 51.2024 1481.06 51.1798C1481.2 51.9186 1481.58 53.046 1481.59 53.0977L1481.6 53.1171L1481.61 53.1343L1482.39 54.4309L1482.41 54.4556L1482.43 54.4739C1482.45 54.4901 1482.57 54.5956 1482.7 54.6807L1482.65 54.8024L1482.87 54.8369C1482.87 54.8379 1482.91 54.8444 1482.97 54.8444C1483.02 54.8444 1483.07 54.8401 1483.12 54.8315C1483.14 54.8326 1483.15 54.8325 1483.17 54.8325C1483.38 54.8325 1483.51 54.7087 1483.61 54.5579C1484.21 54.5062 1485.28 54.4546 1485.37 54.4503L1487.81 54.5106L1487.81 54.5116L1487.82 54.5106L1492.88 54.3426L1502.62 53.8924L1504.94 53.8257L1507.09 53.7094C1507.14 53.7094 1507.54 53.7105 1507.93 53.7148C1507.51 54.0798 1507.08 54.5655 1507.06 54.5935C1507.06 54.5935 1506.96 54.7044 1506.89 54.7765C1506.72 54.8659 1506.43 55.0296 1506.42 55.0371L1506.4 55.049L1506.38 55.0695L1504.42 57.2254L1504.4 57.2426L1504.39 57.2641C1504.38 57.2899 1504.09 57.8499 1503.95 58.2483C1503.4 58.2096 1502.51 58.2031 1502.47 58.2031L1500.39 58.1417L1496.48 58.0287L1488.9 57.5839L1481.78 55.4809L1474.7 53.4972L1472.29 51.6245C1472.21 51.4975 1471.74 50.8072 1471.42 50.2278C1471.86 50.3926 1472.37 50.51 1472.4 50.5164ZM1487.55 59.8809L1487.55 59.8798L1487.55 59.8788L1488.92 59.4922C1489.04 59.4792 1489.92 59.3748 1490.39 59.1734C1492.17 59.3543 1495.7 59.4329 1495.74 59.434L1500.16 59.5632L1502.36 59.6268L1503.63 59.6634C1503.63 59.6634 1503.72 59.6666 1503.8 59.6688C1503.88 59.9412 1504.04 60.2761 1504.07 60.3202L1504.08 60.3429L1504.09 60.3622C1504.12 60.3827 1504.45 60.7263 1504.77 61.031C1504.56 61.0246 1504.38 61.0181 1504.38 61.0181L1501.74 60.9815H1501.73H1501.73C1501.7 60.9815 1499.04 61.0396 1497.71 61.1247C1497.56 61.1279 1497.26 61.1344 1497.26 61.1344H1497.26L1497.25 61.1355L1487.19 61.9787L1487.18 61.9797H1487.18C1487.16 61.984 1485.07 62.3082 1483.73 62.5461C1483.8 62.46 1483.86 62.3868 1483.88 62.3555L1486.69 60.0758L1487.55 59.8809ZM1486.38 63.7048L1491.52 63.1094L1501.12 62.3577L1503.76 62.1499C1503.76 62.1499 1504.21 62.1186 1504.46 62.1003C1504.87 62.1929 1505.63 62.3943 1505.7 62.4115L1506.32 62.6194C1506.35 62.6323 1506.54 62.7023 1506.72 62.7023C1506.74 62.7023 1506.76 62.7012 1506.78 62.698C1506.86 62.7572 1506.93 62.8132 1507 62.8714L1505.31 63.552L1502.04 64.7591L1495.44 67.0711C1495.44 67.0711 1492.42 68.1243 1490.42 68.8232L1490.6 68.5045L1490.76 68.2266L1490.46 68.2406L1487.65 68.3709H1487.64L1487.64 68.372L1485.18 68.624L1484.11 68.6961C1484.07 68.6918 1483.95 68.6843 1483.83 68.6843C1483.78 68.6843 1483.74 68.6854 1483.71 68.6875C1483.69 68.6498 1483.68 68.6175 1483.67 68.6003L1482.93 66.341L1482.88 64.0645C1483.28 63.9977 1483.94 63.9343 1483.95 63.9332L1486.38 63.7048ZM1487.74 70.9005L1487.75 70.8994L1500.86 66.312H1500.87L1500.87 66.3108L1504.55 64.9109L1506.35 64.2681L1507.26 63.9428L1507.72 63.7856L1507.74 63.7802L1507.75 63.7706C1507.76 63.7609 1508.09 63.5616 1508.28 63.3861C1508.44 63.3753 1508.6 63.3279 1508.77 63.2396C1508.99 63.3624 1509.33 63.5293 1509.34 63.5368L1509.36 63.5444L1509.37 63.5476L1511.14 64.0387L1511.15 64.043L1511.16 64.0441L1514.86 64.3661L1514.87 64.3671L1514.87 64.3661L1518.59 64.2863C1518.69 64.2928 1519.83 64.3747 1520.7 64.4953C1520.7 64.4996 1520.69 64.5018 1520.69 64.5028L1520.69 64.5039L1520.68 64.5049L1518.83 65.4892L1515.39 67.0733L1508.29 69.7902L1500.68 72.6342L1498.22 73.43L1495.54 73.9211L1495.53 73.9222L1495.52 73.9254L1491.2 75.3425L1487.1 76.5766L1487.09 76.5798L1487.08 76.5852L1484.83 77.6309L1484.32 77.731L1484.29 77.7364L1484.26 77.7558L1483.45 78.3233C1483.41 78.3502 1483.04 78.5742 1482.78 78.7045C1482.71 78.6475 1482.64 78.5958 1482.62 78.5893L1482.62 78.5861L1482.62 78.5839L1482.43 78.4719L1481.71 78.0132L1480.78 77.4166L1478.96 76.329L1478.96 76.3236L1478.95 76.3192L1476.89 75.3985C1476.88 75.3932 1475.9 74.943 1475.19 74.5737C1476.19 74.2721 1477.62 73.807 1477.7 73.7822L1480.97 72.9002L1487.74 70.9026L1487.74 70.9005ZM1482.55 82.8149L1482.55 82.8096L1482.55 82.8042L1482.87 81.3763L1482.87 81.3709L1482.88 81.3655L1483.02 80.4997L1483.02 80.4975V80.4932L1483.11 79.8783C1483.11 79.8718 1483.12 79.8643 1483.13 79.8578C1483.22 79.7448 1483.23 79.5261 1483.22 79.4378L1483.22 79.411L1483.21 79.3862C1483.21 79.3722 1483.19 79.3183 1483.16 79.2484C1483.53 79.216 1484.01 79.2117 1484.01 79.2117H1484.03L1484.04 79.2096L1484.95 79.0685L1484.96 79.0674L1484.97 79.0642C1485 79.0556 1485.23 78.9899 1485.38 78.9296C1485.54 78.9716 1485.78 79.0061 1485.8 79.0071L1485.81 79.0082H1485.82H1486.46H1486.47L1486.49 79.006L1487.51 78.8273L1487.51 78.8262L1487.52 78.8251L1489.55 78.2867L1489.55 78.2856L1489.55 78.2845L1493.31 77.0763L1493.31 77.0752H1493.31L1495.08 76.4496L1495.09 76.4452L1495.1 76.4388L1497.36 75.2036L1500.08 74.0772L1502.62 73.192L1517.5 67.7668L1517.5 67.7646L1517.51 67.7614L1520.9 66.1407L1520.92 66.1321L1520.93 66.1246L1522.19 65.2006L1522.2 65.1931L1522.21 65.1855C1522.21 65.1834 1522.4 64.9906 1522.55 64.8571C1524.3 65.2297 1526.1 65.6141 1527.84 66.1246C1521.82 68.5981 1510.46 73.0176 1510.34 73.0628L1491.99 80.1971L1487.08 81.9771L1487.08 81.9782L1487.08 81.9793L1484.72 82.9538L1482.62 83.8283C1482.58 83.8401 1482.4 83.8821 1482.22 83.9241C1482.36 83.4524 1482.54 82.8473 1482.55 82.8149ZM1524.51 63.7501L1524.5 63.749L1520.45 63.2914L1520.45 63.2902H1520.45L1517.56 63.0566L1515.79 62.9446H1515.79H1515.78L1512.39 62.965L1510.6 62.8821C1510.6 62.8811 1509.91 62.8423 1509.37 62.7712C1509.41 62.7389 1509.44 62.7152 1509.44 62.712L1509.44 62.7098L1509.44 62.7088L1511.87 60.3526L1511.87 60.3482L1511.87 60.344L1513.03 59.0829L1513.04 59.07L1513.05 59.0539L1513.83 57.7099L1513.87 57.6572L1513.86 57.5947C1513.86 57.5688 1513.84 57.4149 1513.81 57.2566C1514.84 57.4494 1516.53 57.7551 1516.62 57.7713L1519.75 58.4885L1519.75 58.4896H1519.76L1525.78 59.6784L1538.14 62.7626L1549.97 67.433L1561.46 72.7214L1567.77 76.175L1570.79 78.0358C1570.8 78.0444 1572.15 78.908 1573.08 79.4518C1571.77 79.8061 1569.63 79.8901 1569.43 79.8977L1566.55 79.4131L1563.2 77.857L1563.19 77.8559L1563.19 77.8549L1537.95 67.1616L1537.94 67.1584L1537.93 67.1551L1531.25 65.2933L1531.24 65.2921L1531.24 65.2911L1524.52 63.7522L1524.51 63.7501ZM1563.54 73.0466L1563.54 73.0445L1552.1 67.6979L1552.1 67.6968L1552.09 67.6946L1540.39 62.9414L1540.38 62.9381L1540.37 62.936L1527.92 59.3898L1527.91 59.3888L1527.91 59.3877L1521.04 58.019L1521.03 58.0179H1521.03L1517.04 57.3836C1516.95 57.3675 1514.8 56.9464 1513.64 56.7214C1513.24 55.9223 1511.92 55.0339 1511.86 54.9941L1510.55 54.1132C1511.54 54.2521 1512.77 54.4707 1512.85 54.4869L1516.55 55.3763L1516.56 55.3775L1516.56 55.3785L1523.97 56.7989L1537.73 60.4107L1541.25 61.5069L1544.68 62.5289L1551.62 64.5868L1564.44 69.7945C1564.47 69.8096 1564.54 69.8505 1564.61 69.8904L1564.6 69.9852L1564.71 70.0368L1565.05 70.1865L1565.23 70.2673L1565.23 70.25C1565.74 70.5483 1566.26 70.8638 1566.8 71.2095C1566.82 71.2278 1566.83 71.2429 1566.84 71.2547L1566.87 71.2839L1566.91 71.2957C1566.92 71.3 1566.94 71.3064 1566.96 71.3097C1568.12 72.0516 1570.31 73.6066 1570.41 73.6734L1573.34 75.9768L1574.7 77.1614L1575.2 77.7009C1575.3 77.8872 1575.45 78.1941 1575.51 78.4191C1575.33 78.4267 1575.16 78.4698 1575.15 78.4719L1575.13 78.4762L1575.11 78.4891C1575.1 78.4934 1574.28 78.9813 1573.78 79.201C1573.05 78.6119 1571.65 77.7235 1571.59 77.6847L1568.96 76.0619L1568.95 76.0598L1568.95 76.0576L1563.55 73.0531L1563.54 73.0466ZM1598.03 55.3301L1598.01 55.3117L1597.99 55.301L1597.95 55.2849L1597.89 55.1589L1597.85 55.0522L1597.74 55.0576L1596.76 55.1017H1596.76L1596.75 55.1029L1595.65 55.2051L1587.24 55.946C1587.17 55.9525 1581.18 56.4575 1577.88 56.605C1579.1 55.0371 1580.43 53.3928 1582.14 51.3306C1582.44 51.2477 1582.94 51.1346 1583.04 51.1131L1584.91 51.1669L1587.79 51.3941H1587.8H1587.8L1593.34 51.4275L1595.93 51.4426L1597.21 51.4469H1597.21L1597.22 51.4458L1597.7 51.3919L1597.71 51.3898L1597.73 51.3877L1598.02 51.308L1598.75 53.115C1598.74 53.2162 1598.71 53.4714 1598.69 53.6512C1598.68 53.6534 1598.68 53.6555 1598.68 53.6577L1598.65 53.6857L1598.64 53.7266C1598.63 53.7385 1598.35 54.5461 1598.04 55.3333L1598.03 55.3301ZM1561.68 79.0168L1561.67 79.0244L1561.66 79.0297C1561.65 79.0416 1561.64 79.0523 1561.63 79.062L1561.62 79.0706L1561.61 79.0825L1561.6 79.0976L1561.58 79.132L1561.57 79.1546L1561.56 79.1784C1561.56 79.2042 1561.54 79.2731 1561.55 79.3344L1561.55 79.3431L1561.55 79.3517L1561.6 79.6037L1561.64 79.7846C1561.24 80.4178 1560.22 81.3633 1560.09 81.4817C1560.02 81.5205 1559.74 81.6724 1559.54 81.7639C1558.5 80.5611 1556.21 78.8176 1556.12 78.7411L1556.11 78.7379L1556.11 78.7347L1550.38 75.0152L1550.38 75.0109L1550.37 75.0077L1548.57 74.0428L1545.56 72.2638L1545.16 72.0107L1549.26 73.4106L1555.61 76.0112L1561.62 78.824L1561.63 78.8262L1561.63 78.8284C1561.63 78.8284 1561.71 78.8575 1561.82 78.8973C1561.8 78.9135 1561.78 78.9307 1561.76 78.949C1561.73 78.9684 1561.71 78.9931 1561.68 79.0168ZM1559.78 85.4877L1558.65 84.7662L1556.49 83.4061L1552.23 80.8303L1552.23 80.8281L1552.22 80.8259L1550.04 79.6586L1550.02 79.6478L1550 79.6436L1548.7 79.3528L1546.44 78.1823L1546.44 78.1811L1546.43 78.179L1544.33 77.212L1544.32 77.2098L1544.32 77.2087L1541.77 76.1405L1536.46 73.555L1535.9 73.2825L1536.26 73.8155L1536.38 73.9921L1536.41 74.0277L1536.45 74.0481L1540.84 76.1792L1545.41 79.0286L1545.42 79.033L1545.43 79.0362L1546.67 79.6382L1547.38 80.0657L1547.94 80.6537L1547.95 80.6665L1547.96 80.6763L1550.53 82.4434L1550.53 82.4466L1550.53 82.4488L1555.06 85.1388L1557.47 86.6324L1559.77 88.1293L1559.8 88.1487L1559.83 88.154C1559.84 88.154 1559.89 88.1627 1559.97 88.1627C1560.06 88.1627 1560.15 88.154 1560.25 88.1271C1560.17 88.9186 1559.85 90.0493 1559.8 90.2195C1559.7 90.3831 1559.03 91.5343 1558.59 92.2967C1558.55 92.2386 1558.52 92.1944 1558.51 92.1847L1558.49 92.1578L1558.46 92.1416L1557.58 91.6409L1555.61 90.5565L1551.54 88.2133L1543.46 83.0756L1539.44 80.0851L1539.44 80.0797L1539.43 80.0754L1535.79 77.913L1535.78 77.9098L1535.78 77.9065L1532.01 76.0952L1532.01 76.0931L1532 76.091L1527.57 74.4078L1524.65 73.2556L1524.65 73.2534L1524.65 73.2524L1522.79 72.6073L1522.78 72.603L1522.77 72.6008L1519.68 71.9763C1519.59 71.9472 1518.81 71.6887 1518.18 71.482L1518.49 71.3603L1529.03 67.1864L1529.1 67.1594L1529.12 67.0862C1529.13 67.0518 1529.21 66.8191 1529.22 66.5661C1529.24 66.5747 1529.26 66.5801 1529.26 66.5801L1536.33 68.9998L1541.51 70.7669L1541.53 70.7863L1542.25 71.4411L1542.26 71.4443L1542.26 71.4475L1542.97 72.0118L1542.98 72.015L1542.99 72.0204L1544.79 73.1813L1544.8 73.1866L1544.81 73.191L1546.35 73.9674L1548.35 75.3641L1548.35 75.3673L1548.36 75.3705L1551.3 77.0752L1554.38 78.8219L1558.53 82.5478C1558.65 82.7675 1559.56 84.4162 1559.94 85.6008C1559.85 85.5362 1559.78 85.4888 1559.78 85.4877ZM1584.55 63.2838L1584.53 63.2935L1584.5 63.3161L1583.12 64.5405L1581.5 65.4268L1581.46 65.4451L1581.44 65.4752L1580.61 66.6382L1580.56 66.7028L1580.58 66.7814L1580.76 67.6375L1580.76 67.6462L1580.76 67.6548L1581.09 68.7489L1581.1 68.7553L1581.1 68.7607L1582.58 72.6482L1582.59 72.659L1582.59 72.6687C1582.6 72.6806 1582.68 72.8227 1582.77 72.9918C1582.51 72.8916 1582.27 72.799 1582.27 72.7979L1580.08 71.9375L1580.07 71.9353L1580.07 71.9343L1575.85 70.5839L1575.84 70.5796L1575.83 70.5774L1571.62 69.9162L1571.6 69.913L1571.58 69.914L1569.49 70.1112H1569.49L1569.49 70.1122L1567.98 70.3286C1567.96 70.3297 1567.9 70.3362 1567.82 70.3426C1569.26 68.1868 1572.06 64.3434 1572.08 64.3047C1572.1 64.2896 1573.42 62.53 1574.11 61.6071C1574.32 61.5457 1574.58 61.5145 1574.89 61.5145C1576.3 61.5145 1578.18 62.1714 1578.2 62.1779L1578.21 62.1822L1578.22 62.1843L1583.13 63.0296L1583.13 63.0307H1583.14L1584.19 63.146H1584.19L1584.19 63.147L1584.55 63.1696L1584.61 63.272C1584.58 63.2763 1584.56 63.2816 1584.55 63.2838Z" fill="#C4C4C4"/>
<path d="M138.001 160.31L137.077 159.516C137.041 159.475 136.999 159.425 136.954 159.371C137.157 159.118 137.325 158.869 137.374 158.796L137.477 158.642L137.487 158.454L137.598 156.386L137.622 155.921L137.224 155.745C137.171 155.722 136.83 155.574 136.402 155.482C136.483 155.322 136.541 155.196 136.566 155.143L136.623 155.017L136.627 154.876L136.672 153.31L136.693 152.596L136.03 152.638L135.217 152.69L134.701 152.724L134.649 153.277L134.604 153.76L134.377 153.82L133.454 154.066L133.145 154.146L133.032 154.466L132.549 155.835L131.269 156.776C131.207 156.811 131.068 156.89 130.931 156.973C130.621 156.911 130.346 156.881 130.092 156.881C129.771 156.881 129.476 156.93 129.205 157.027C128.543 155.483 127.224 153.575 127.158 153.481L127.125 153.433L127.082 153.391L123.658 150.021L123.511 149.875L123.312 149.852L114.563 148.89L114.525 148.886L114.486 148.887L109.856 149.013L107.658 148.53L106.062 147.643C106.084 147.41 106.086 147.192 106.084 147.08C106.118 146.506 106.716 136.234 107.198 131.039C107.222 130.943 107.259 130.804 107.259 130.804L107.263 130.786L107.267 130.768C107.304 130.586 107.303 130.414 107.266 130.263C107.521 126.652 106.502 120.071 106.457 119.788L106.422 119.554L106.255 119.4C106.228 119.376 106.184 119.337 106.125 119.298C105.293 117.466 102.615 115.52 102.299 115.295L102.209 115.23L102.104 115.204L97.625 114.071L97.582 114.06L97.54 114.056L92.313 113.549L92.275 113.544L92.2369 113.545L81.892 113.947L81.792 113.95L81.7009 113.987L71.657 118.024L71.588 118.052L71.526 118.097C71.363 118.217 67.608 121.001 66.131 123.162C66.068 123.2 65.998 123.251 65.926 123.32L65.8619 123.379L65.816 123.455C65.727 123.6 65.4989 123.993 65.3459 124.405L65.035 124.334L65.017 125.121L64.9769 126.863L64.976 126.907L64.796 126.954L64.963 127.478L64.958 127.657C64.88 128.142 64.89 128.711 64.894 128.846L64.905 129.191L65.177 129.377C65.212 129.399 65.282 129.445 65.377 129.493C65.428 130.664 65.258 132.496 65.256 132.518L65.245 132.622L65.266 132.723L65.693 134.822L65.697 134.845L65.703 134.866C65.703 134.866 65.733 134.978 65.777 135.139C63.815 134.929 61.126 134.902 59.934 134.902C59.668 134.902 59.516 134.904 59.516 134.904L48.9459 134.944L42.813 135.046C42.701 135.046 40.022 135.053 38.417 135.171C36.335 133.055 31.45 131.362 31.236 131.289L31.167 131.265L31.094 131.26L29.02 131.107L26.661 130.943L24.851 130.273L24.772 130.244L24.688 130.239C24.678 130.238 24.442 130.224 24.155 130.224C24.093 130.224 24.0339 130.225 23.9769 130.226C23.9549 129.859 23.9309 129.524 23.9299 129.5L23.923 129.412L23.895 129.329L23.4509 127.996C24.8819 127.781 26.219 127.083 27.189 125.896C27.335 125.717 25.871 125.242 25.598 125.564C24.917 126.368 24.1259 126.941 23.1899 127.216L22.048 123.792L21.929 123.435L21.5809 123.37L20.032 123.078C20.313 122.587 20.595 122.097 20.877 121.606C20.87 121.584 20.863 121.565 20.856 121.542C20.831 121.488 20.795 121.442 20.749 121.403C20.603 121.232 19.866 120.687 19.651 120.897C19.13 121.407 18.783 122.12 18.415 122.772L17.609 122.618C17.604 122.611 17.5999 122.601 17.5909 122.592C16.4699 121.369 15.332 120.192 14.312 118.865C14.114 118.608 13.54 118.615 13.261 118.615C13.174 118.615 12.478 118.643 12.637 118.86C13.543 120.094 14.512 121.327 15.611 122.373L9.07703 121.822L7.94495 121.726L8.50195 122.793L8.64099 123.059L8.79199 123.35L9.10193 123.387L14.699 124.049L14.7369 124.052H14.775L17.856 124.001L20.423 124.9L20.5969 125.378C20.5479 125.332 20.502 125.282 20.452 125.236C20.056 124.871 18.241 126.043 18.423 126.244C19.783 127.747 20.84 129.498 21.533 131.427C21.487 131.451 21.447 131.472 21.427 131.483L19.7059 132.282L16.1749 133.743L9.05603 136.317C8.70603 136.446 0.936028 139.33 -3.39697 141.62L-3.77698 140.337L-4.43396 141.845L-5.12708 143.44L-5.35107 143.228L-5.75 143.584C-6.815 144.532 -7.69003 146.968 -8.42603 151.022L-10.906 156.726L-11 156.94L-10.943 157.167L-6.42798 175.676L-6.35498 175.976L-6.09302 176.104L3.79199 180.945L3.91394 181.008L4.05103 181.006L9.99597 180.924L10.1019 180.922L10.203 180.881L11.172 180.487L10.204 181.297L13.78 179.914L21.736 176.836L21.79 176.814L21.84 176.784C22.02 176.67 25.68 174.343 28.254 172.533L28.578 180.374L28.594 180.722L28.3879 180.81L28.603 180.952L28.702 183.324L29.407 181.478L29.4349 181.497L35.923 185.751L36.004 185.805L36.0959 185.829L43.4869 187.744L43.589 187.769L43.691 187.758L60.583 185.92L60.626 185.916L60.665 185.905L65.11 184.743L65.1279 184.739L65.146 184.733C65.222 184.708 66.977 184.127 67.874 183.544C68.275 183.42 68.862 183.195 68.89 183.184L68.912 183.175L68.934 183.164L70.7579 182.276L70.855 182.229L70.931 182.15C71.03 182.046 71.346 181.708 71.656 181.289C73.727 185.574 78.974 190.728 79.217 190.966L79.3409 191.085L79.504 191.122C79.575 191.137 81.254 191.495 82.761 191.495C83.323 191.495 83.7829 191.447 84.1639 191.347C84.3769 191.367 84.623 191.377 84.895 191.377C86.474 191.377 88.569 191.034 88.657 191.019L88.665 191.018L88.674 191.016C88.6799 191.015 89.198 190.915 89.608 190.841C89.86 191.017 90.12 191.07 90.187 191.082L90.397 191.116L90.582 191.002C90.601 190.991 90.972 190.761 91.233 190.589C92.103 190.465 93.619 190.257 93.619 190.257L93.644 190.254L93.668 190.247L104.549 187.754C104.598 187.742 108.452 186.796 110.612 186.392C111.165 186.767 111.902 186.839 112.065 186.851L112.329 186.87L112.521 186.675C112.542 186.655 112.951 186.239 113.248 185.917C113.725 185.827 114.408 185.693 114.408 185.693L114.425 185.69L114.44 185.686L118.747 184.586L118.785 184.575L118.822 184.561L122.956 182.876L122.99 182.862L123.023 182.843L126.786 180.713L126.855 180.673L126.912 180.618L128.575 178.993L128.616 178.953L128.65 178.905L130.644 176.076L130.714 175.976L130.744 175.856L131.805 171.751L133.096 170.652L134.867 170.379L135.305 170.311L135.379 169.841L135.555 168.729L135.715 168.676L136.096 168.55L136.139 168.123C136.146 168.055 136.299 166.51 136.12 165.139L136.487 162.811L136.545 162.447L136.283 162.206C136.219 162.145 135.969 161.919 135.618 161.65L135.604 161.549L136.424 162.079L136.774 162.305L137.1 162.042L137.988 161.325L138.614 160.819L138.001 160.31ZM-7.26196 151.439L-4.26807 144.556L0.000976562 142.313L4.52698 142.834L13.234 148.093L19.0499 155.387L19.7369 165.754L17.579 171.203C17.326 171.622 15.391 174.825 14.182 176.259C14.044 176.372 13.938 176.495 13.866 176.622L13.84 176.669C13.756 176.737 13.595 176.853 13.49 176.925L12.584 177.402L10.41 178.106L6.047 178.375L-4.25 173.979L-8.40308 160.991C-8.34708 160.168 -8.00296 155.6 -7.26196 151.439ZM22.8929 172.867L23.286 172.181L22.5809 171.908L21.98 171.677L21.564 171.517L21.2949 171.896L18.75 175.477L16.436 177.019L18.4969 173.518L18.51 173.497L18.521 173.474C18.582 173.35 19.9249 170.623 20.6069 168.834L22.15 169.83L22.303 169.929L22.481 169.923L23.975 169.871L24.141 169.865L24.28 169.77L24.449 169.654L24.583 169.686L25.474 170.089L25.679 170.182L25.891 170.111L27.043 169.721L28.474 169.238L27.134 168.515L26.877 168.376L26.845 168.359L26.811 168.345L25.066 167.667L24.819 167.57L24.585 167.699L23.973 168.036L23.3099 167.864L21.844 166.919L21.679 166.813L21.4869 166.829C21.4239 166.834 21.2589 166.849 21.0549 166.88L21.601 155.949L21.6119 155.718L21.485 155.529L15.259 146.322L15.1799 146.206L15.062 146.135L5.74902 140.606L5.60095 140.519L5.43201 140.526L2.61499 140.649C5.74399 139.369 9.20698 138.149 9.25598 138.13L15.853 135.819L15.8619 135.815L15.871 135.813L19.241 134.5C19.32 134.468 20.704 133.917 21.844 133.33C21.795 134.904 21.673 136.871 21.673 136.896L21.6539 137.178L18.528 135.553L17.8149 135.69L22.082 138.101L25.7729 141.066L26.58 140.96L22.835 137.791L22.4199 137.576L23.2739 137.417L23.734 137.331L23.7739 136.829C23.7819 136.72 23.9369 134.764 24.0029 133.037C24.1999 132.845 24.322 132.644 24.291 132.457C24.272 132.338 24.247 132.219 24.225 132.102C25.431 132.624 27.064 133.208 27.144 133.238L27.2109 133.261L27.282 133.268L30.8719 133.604C31.3219 133.791 33.659 134.78 35.278 135.833C34.853 136.024 34.42 136.252 34.025 136.478L32.957 136.772L32.313 136.949L32.0909 137.01L31.9609 137.214L30.4979 139.528L30.434 139.629L30.408 139.751L29.49 144.127L29.4869 144.142L29.485 144.157L27.9609 153.386L27.953 153.433L27.9509 153.479L27.6699 162.605L27.668 162.662L27.676 162.717L28.275 167.404L28.276 167.416L28.278 167.426L28.621 169.575C26.663 170.951 23.425 173.179 22.189 174.026C22.591 173.391 22.8639 172.916 22.8929 172.867ZM63.66 142.668L58.894 143.076L53.903 143.21L44.37 143.135L39.413 142.636L35.376 141.84C35.026 141.679 34.259 141.292 33.767 140.93C33.748 140.831 33.724 140.745 33.703 140.681L33.553 139.512L34.825 138.643L38.8669 137.772L47.772 137.707L57.7839 137.664L66.413 138.057L70.01 139.27L70.792 141.168L63.66 142.668ZM73.8199 147.857L73.903 147.712L73.911 147.543L74.011 145.412L74.073 143.707L74.074 143.688V143.669L74.009 139.546L73.999 138.994L73.493 138.911L73.426 138.9L73.412 138.869L73.266 138.762L69.463 135.996L69.384 135.94L69.292 135.912C69.264 135.902 68.7279 135.735 68.2739 135.61C68.0789 134.892 67.821 133.898 67.769 133.699L67.6219 132.71C67.7459 132.816 67.8299 132.887 67.8409 132.897L69.8669 134.688L69.906 134.722L69.95 134.749L71.528 135.724L71.6169 135.778L71.72 135.8L72.8199 136.019L74.139 136.428L74.223 136.454L74.311 136.453L74.703 136.449L76.3929 136.436L75.08 135.29L73.038 133.507L73.012 133.483L72.9819 133.463L70.778 131.957L70.644 131.866L78.709 133.731L78.812 133.754L78.915 133.739L98.921 130.917L99.0649 130.896L99.186 130.808L102.875 128.092L102.938 128.044L102.989 127.982L104.54 126.072C104.606 125.987 104.9 125.601 105.232 125.114C105.334 126.644 105.328 128.305 105.216 130.205C105.175 130.261 105.14 130.308 105.121 130.334L104.507 131.103L102.822 132.787L98.4659 135.456L97.5449 136.022L98.463 136.59L98.777 136.784L99.047 136.95L99.329 136.812L103.281 134.881L103.313 134.866L103.343 134.846L104.919 133.826C104.854 134.486 104.784 135.146 104.717 135.792C104.549 137.402 104.374 139.064 104.26 140.709C103.96 140.918 103.681 141.191 103.576 141.296L102.597 142.099L97.7729 144.331L96.636 144.857L97.72 145.501L97.8719 145.592L95.8259 145.26L95.427 145.199C95.744 143.153 96.202 139.922 96.207 139.885L96.2369 139.675L96.146 139.485L94.704 136.502L93.4089 133.436L93.199 132.941L92.709 133.072L91.7949 133.32L91.092 133.509L91.39 134.22L93.947 140.345L94.246 143.278C94.119 143.595 93.829 144.321 93.599 144.921L90.156 144.401L90.141 144.399L90.124 144.398L87.298 144.132L87.277 144.129L87.2579 144.128L86.63 144.113L87.797 142.399L87.3729 142.094L85.894 144.094L84.142 144.051L83.968 144.047L83.819 144.141L83.0599 144.624L82.556 144.945L77.547 144.712L77.309 144.701L77.126 144.868L76.798 145.172L75.085 146.748L74.769 146.787L74.4709 146.824L74.318 147.102L73.918 147.826L73.733 147.995L73.8199 147.857ZM103.346 124.562L99.723 126.846L82.892 130.776L73.261 129.984L69.022 128.29L67.65 126.802L67.434 124.792C68.553 123.122 71.0269 120.606 71.5179 120.113L79.7109 116.788L88.851 116.113L98.323 116.902L104.103 121.043L103.346 124.562ZM81.955 147.22L82.061 147.308L81.6959 147.252L81.955 147.22ZM100.128 145.677L100.149 145.675L100.17 145.671L101.812 145.346L101.863 145.336L101.912 145.316L104.039 144.474L104.096 144.453L104.122 144.433C104.124 145.27 104.151 146.069 104.204 146.839C102.844 146.428 101.107 146.123 101.017 146.107L99.118 145.798L100.128 145.677ZM69.094 164.925L69.493 164.871L69.557 164.375L70.025 160.756L70.917 157.219L70.981 156.965L70.876 156.758C70.917 156.625 70.9599 156.495 71.0029 156.364L71.028 156.287C71.171 156.03 71.347 155.639 71.369 155.592L71.474 155.357L71.408 155.137C71.479 154.926 71.557 154.695 71.593 154.588L73.606 150.951L77.136 147.992C76.128 148.702 74.691 149.792 73.634 150.903L74.858 148.689L75.595 148.011L77.376 147.79L77.136 147.992C77.24 147.918 77.341 147.848 77.436 147.783L80.724 147.376L81.978 147.479L82.582 147.746L87.657 151.988L88.9199 155.825L89.911 160.056L91.036 168.28L90.392 177.186L89.163 181.347L88.1799 183.423L87.65 184.143L87.625 184.178L87.604 184.216C87.592 184.237 87.3199 184.735 87.1219 185.354C86.9859 185.637 86.732 186.093 86.625 186.281L84.902 187.854L79.958 188.192L72.681 177.909L72.604 177.8L72.493 177.732C72.491 177.731 72.49 177.73 72.488 177.729L72.4869 177.718L72.308 177.547C72.253 177.496 72.134 177.396 71.969 177.342C70.893 175.411 69.638 171.717 69.458 171.181C69.393 170.647 68.994 167.135 69.094 164.925ZM68.7319 175.473C68.6669 175.535 68.61 175.593 68.559 175.649L68.4969 174.889C68.575 175.091 68.6529 175.289 68.7319 175.473ZM133.419 168.089L133.398 168.096L133.377 168.106L131.826 168.765L131.615 168.854L131.511 169.071L129.707 172.802L127.902 176.664L124.635 179.12L120.516 181.371L116.474 182.787C116.469 182.789 115.819 183 115.086 183.234C115.853 181.657 116.471 179.8 116.505 179.693L116.529 179.62L116.537 179.541L116.73 177.503L116.972 175.113L116.976 175.075V175.04L116.958 169.702V169.577L116.914 169.461L116.525 168.421L116.135 167.376L115.487 168.26L115.149 168.722L115.03 168.883L115.019 169.092L114.809 173.468L113.729 177.767L109.926 184.476L109.892 184.538L109.87 184.606C109.859 184.639 109.845 184.694 109.83 184.765C108.806 185.034 107.361 185.399 107.206 185.438L101.134 186.659L95.5129 187.83C95.4989 187.833 94.775 187.986 93.936 188.154C95.105 186.765 96.1889 185.157 96.2529 185.061L96.288 185.007L96.313 184.947L98.418 179.946L98.427 179.928L98.434 179.908L100.122 175.14L100.397 174.361L99.629 174.259L98.8829 174.159L98.385 174.092L98.231 174.607L96.816 179.343L94.6539 182.814L89.124 188.137L89.02 188.236L88.967 188.372C88.945 188.428 88.8829 188.6 88.8459 188.826C88.603 188.836 88.344 188.845 88.094 188.854C88.152 188.796 88.189 188.759 88.197 188.753L88.236 188.713L88.2679 188.666L89.25 187.272L89.287 187.22L89.313 187.16C89.322 187.141 89.347 187.085 89.375 187.017C89.742 186.717 90.16 186.225 90.252 186.115L90.288 186.072L90.316 186.021L91.264 184.369L91.292 184.318L91.313 184.262L92.792 180.187L92.8149 180.12L92.8259 180.049L94.0709 171.209L94.089 171.087L94.063 170.966L90.139 152.635L90.108 152.489L90.022 152.374L85.592 146.398L88.502 147.105L88.528 147.111L88.5549 147.115L93.743 147.854L98.778 148.553L103.357 149.101L107.485 150.847L107.588 150.888L107.696 150.891L112.516 150.986L121.412 151.925L124.883 154.591L126.368 156.694C126.427 156.802 126.614 157.147 126.742 157.392C126.771 157.633 126.823 157.878 126.83 157.909L126.873 158.104L127.008 158.24L129.15 160.394L129.139 160.433L128.668 162.122L128.621 162.284L128.657 162.452C128.693 162.625 128.772 162.948 128.914 163.25C128.892 163.322 128.881 163.396 128.879 163.461L128.866 163.941L129.287 164.097L130.695 164.615L130.777 164.646L130.863 164.65L132.246 164.718L132.277 164.719L132.306 164.718L133.395 164.656L133.782 164.982L134.065 165.221L134.396 165.067C134.56 164.991 134.703 164.914 134.828 164.839C134.849 164.928 134.868 165.028 134.886 165.139L134.478 167.727L133.419 168.089ZM30.291 179.174L30.345 179.037L30.337 178.888L30.0029 172.4C30.0659 172.106 30.2629 171.199 30.3459 170.624C30.4149 170.436 30.4699 170.215 30.4869 170.141L30.496 170.103L30.502 170.065C30.536 169.76 30.51 169.534 30.449 169.368C30.453 169.004 30.4359 168.54 30.4349 168.516L30.433 168.472L30.426 168.428L29.788 164.565L30.38 148.847L31.376 143.587L31.694 142.077C31.844 142.348 32.056 142.626 32.132 142.721L32.278 142.906L32.5179 142.946C32.5179 142.946 32.56 142.951 32.626 142.951C32.685 142.951 32.741 142.947 32.796 142.936C33.689 143.52 35.096 144.183 35.161 144.215L35.204 144.235L35.249 144.248L40.2839 145.689L40.351 145.708L40.418 145.71L50.842 146.092L50.887 146.093L50.933 146.088L56.2889 145.416L61.8519 145.139L66.9719 144.888L67.0389 144.883L67.104 144.865L71.136 143.673L71.241 143.643L71.33 143.575C71.41 143.512 71.816 143.193 72.255 142.773C72.266 143.299 72.2669 143.756 72.2679 143.876L71.87 148.201L71.8209 148.728L72.29 148.887L72.6219 148.999L72.646 149.008L71.0649 150.465L70.95 150.571L70.894 150.724L69.276 155.177L69.272 155.187L69.269 155.196L69.1169 155.655C69.0589 155.757 68.999 155.871 68.939 155.992L69.432 146.178L68.957 146.349L68.5449 147.062L68.48 152.153L67.976 157.181L68.476 157.046C68.339 157.391 68.241 157.664 68.219 157.726L68.072 158.135L68.283 158.347C68.083 159.055 67.845 159.944 67.833 159.992L67.8149 160.057L67.811 160.125L67.1279 170.27L67.12 170.381L67.146 170.488C67.166 170.57 67.432 171.625 67.806 172.855L67.488 172.872L67.934 180.064L68.579 179.777L68.645 180.43L69.423 180.011L70.017 179.692L69.3359 180.539L68.105 180.886L68.0389 180.904L67.979 180.938L66.2159 181.922L66.025 182.029L65.939 182.24L65.764 182.667C65.265 182.77 64.675 182.838 64.298 182.866L64.2789 182.868L64.261 182.87L60.127 183.434L52.1329 184.72L37.671 183.447C37.475 183.375 36.911 183.165 36.426 182.975L35.691 180.925C35.839 180.56 36.135 180.061 36.348 179.75L37.33 178.471L37.3979 178.382L37.433 178.275L38.443 175.231L51.48 177.8L64.894 174.696L65.344 173.92L58.804 175.989L51.592 176.986L38.85 174.803L38.547 174.92L38.785 174.2L37.786 174.357L37.337 174.427L37.131 174.46L36.986 174.622L36.4919 175.181L36.375 175.313L36.339 175.492L35.9769 177.268L35.051 178.634C34.454 179.215 33.269 180.538 33.553 181.631C32.326 180.932 30.951 180.037 30.933 180.025L30.678 179.859L30.3989 179.975L29.902 180.184L30.291 179.174ZM135.458 161.548C135.242 161.388 134.997 161.22 134.739 161.067C134.824 161.018 134.908 160.967 134.992 160.916C135.18 161.157 135.361 161.366 135.394 161.402L135.452 161.469L135.469 161.481L135.458 161.548Z" fill="#C4C4C4"/>
</svg>
