<svg width="156" height="16" viewBox="0 0 156 16" fill="none" xmlns="http://www.w3.org/2000/svg">
<path d="M155.278 4.79205L135.82 7.33203L80.879 10.982L74.2551 11.487L42.564 8.82001L9.87799 6.45001L-40.026 8.07104L-61.794 6.36401L-130.452 8.05402L-195.175 9.68701L-246.985 6.73199L-288.475 0L-289 3.33405L-284.357 4.75903L-280.14 5.164L-245.921 10.688L-224.743 11.028L-199.518 13.3391L-185.228 12.786L-162.795 12.433L-141.42 12.018L-136.773 11.637L-77.663 10.543L-55.403 10.645L-44.823 12.008L29.716 11.765L62.814 15.29L80.253 15.579L94.809 13.926L155.696 9.604L155.278 4.79205Z" fill="#E3B520"/>
</svg>
