<svg width="150" height="73" viewBox="0 0 150 73" fill="none" xmlns="http://www.w3.org/2000/svg">
<path d="M149.001 43.428L148.077 42.69C148.041 42.652 147.999 42.606 147.954 42.556C148.157 42.321 148.325 42.089 148.374 42.022L148.477 41.879L148.487 41.704L148.598 39.784L148.622 39.352L148.224 39.188C148.171 39.167 147.83 39.03 147.402 38.944C147.483 38.796 147.541 38.679 147.566 38.629L147.623 38.512L147.627 38.381L147.672 36.927L147.693 36.264L147.03 36.303L146.217 36.351L145.701 36.383L145.649 36.897L145.604 37.345L145.377 37.401L144.454 37.629L144.145 37.704L144.032 38.001L143.549 39.272L142.269 40.146C142.207 40.178 142.068 40.252 141.931 40.329C141.621 40.271 141.346 40.243 141.092 40.243C140.771 40.243 140.476 40.289 140.205 40.379C139.543 38.945 138.224 37.173 138.158 37.086L138.125 37.041L138.082 37.002L134.658 33.873L134.511 33.737L134.312 33.716L125.563 32.823L125.525 32.819L125.486 32.82L120.856 32.937L118.658 32.488L117.062 31.665C117.084 31.448 117.086 31.246 117.084 31.142C117.118 30.609 117.716 21.07 118.198 16.246C118.222 16.157 118.259 16.028 118.259 16.028L118.263 16.011L118.267 15.994C118.304 15.825 118.303 15.665 118.266 15.525C118.521 12.172 117.502 6.06097 117.457 5.79797L117.422 5.58099L117.255 5.43799C117.228 5.41499 117.184 5.37902 117.125 5.34302C116.293 3.64202 113.615 1.83498 113.299 1.62598L113.209 1.565L113.104 1.54102L108.625 0.489014L108.582 0.479004L108.54 0.474976L103.313 0.00402832L103.275 0L103.237 0.000976562L92.892 0.374023L92.792 0.377014L92.7009 0.411011L82.657 4.15997L82.588 4.18597L82.526 4.22803C82.363 4.33903 78.608 6.92403 77.131 8.93103C77.068 8.96603 76.998 9.014 76.926 9.078L76.8619 9.133L76.816 9.203C76.727 9.338 76.4989 9.70302 76.3459 10.085L76.035 10.019L76.017 10.75L75.9769 12.368L75.976 12.409L75.796 12.452L75.963 12.939L75.958 13.105C75.88 13.556 75.89 14.084 75.894 14.209L75.905 14.53L76.177 14.702C76.212 14.723 76.282 14.766 76.377 14.81C76.428 15.898 76.258 17.599 76.256 17.619L76.245 17.716L76.266 17.81L76.693 19.759L76.697 19.78L76.703 19.8C76.703 19.8 76.733 19.904 76.777 20.053C74.815 19.858 72.126 19.833 70.934 19.833C70.668 19.833 70.516 19.835 70.516 19.835L59.9459 19.872L53.813 19.967C53.701 19.967 51.022 19.973 49.417 20.083C47.335 18.118 42.45 16.546 42.236 16.478L42.167 16.456L42.094 16.451L40.02 16.309L37.661 16.157L35.851 15.535L35.772 15.508L35.688 15.503C35.678 15.502 35.442 15.489 35.155 15.489C35.093 15.489 35.0339 15.49 34.9769 15.491C34.9549 15.15 34.9309 14.839 34.9299 14.817L34.923 14.735L34.895 14.658L34.4509 13.42C35.8819 13.22 37.219 12.572 38.189 11.47C38.335 11.304 36.871 10.863 36.598 11.162C35.917 11.908 35.1259 12.44 34.1899 12.696L33.048 9.51599L32.929 9.185L32.5809 9.12402L31.032 8.85303C31.313 8.39703 31.595 7.94202 31.877 7.48602C31.87 7.46602 31.863 7.448 31.856 7.427C31.831 7.377 31.795 7.33397 31.749 7.29797C31.603 7.13897 30.866 6.633 30.651 6.828C30.13 7.301 29.783 7.96303 29.415 8.56903L28.609 8.42603C28.604 8.41903 28.5999 8.40998 28.5909 8.40198C27.4699 7.26598 26.332 6.17298 25.312 4.94098C25.114 4.70198 24.54 4.70898 24.261 4.70898C24.174 4.70898 23.478 4.73497 23.637 4.93597C24.543 6.08197 25.512 7.227 26.611 8.198L20.077 7.68701L18.9449 7.59802L19.502 8.58801L19.641 8.83502L19.792 9.10602L20.1019 9.14001L25.699 9.755L25.7369 9.758H25.775L28.856 9.71002L31.423 10.545L31.5969 10.989C31.5479 10.946 31.502 10.9 31.452 10.857C31.056 10.518 29.241 11.606 29.423 11.793C30.783 13.189 31.84 14.815 32.533 16.606C32.487 16.628 32.447 16.648 32.427 16.658L30.7059 17.4L27.1749 18.757L20.056 21.147C19.706 21.267 11.936 23.945 7.60303 26.072L7.22302 24.88L6.56604 26.281L5.87292 27.762L5.64893 27.565L5.25 27.895C4.185 28.776 3.30997 31.038 2.57397 34.803L0.0939941 40.099L0 40.298L0.0570068 40.509L4.57202 57.697L4.64502 57.975L4.90698 58.094L14.792 62.59L14.9139 62.648L15.051 62.646L20.996 62.57L21.1019 62.568L21.203 62.53L22.172 62.164L21.204 62.917L24.78 61.632L32.736 58.774L32.79 58.754L32.84 58.726C33.02 58.62 36.68 56.459 39.254 54.778L39.578 62.059L39.594 62.383L39.3879 62.464L39.603 62.596L39.702 64.799L40.407 63.085L40.4349 63.102L46.923 67.053L47.004 67.103L47.0959 67.125L54.4869 68.903L54.589 68.927L54.691 68.916L71.583 67.21L71.626 67.206L71.665 67.196L76.11 66.117L76.1279 66.113L76.146 66.107C76.222 66.084 77.977 65.545 78.874 65.003C79.275 64.888 79.862 64.679 79.89 64.669L79.912 64.661L79.934 64.65L81.7579 63.826L81.855 63.782L81.931 63.709C82.03 63.612 82.346 63.298 82.656 62.909C84.727 66.888 89.974 71.674 90.217 71.895L90.3409 72.006L90.504 72.04C90.575 72.054 92.254 72.387 93.761 72.387C94.323 72.387 94.7829 72.342 95.1639 72.249C95.3769 72.268 95.623 72.277 95.895 72.277C97.474 72.277 99.569 71.959 99.657 71.945L99.665 71.944L99.674 71.942C99.68 71.941 100.198 71.848 100.608 71.779C100.86 71.943 101.12 71.992 101.187 72.003L101.397 72.035L101.582 71.929C101.601 71.919 101.972 71.705 102.233 71.545C103.103 71.43 104.619 71.237 104.619 71.237L104.644 71.234L104.668 71.228L115.549 68.913C115.598 68.902 119.452 68.023 121.612 67.648C122.165 67.996 122.902 68.063 123.065 68.074L123.329 68.092L123.521 67.911C123.542 67.892 123.951 67.506 124.248 67.207C124.725 67.123 125.408 66.999 125.408 66.999L125.425 66.996L125.44 66.992L129.747 65.971L129.785 65.961L129.822 65.948L133.956 64.383L133.99 64.37L134.023 64.352L137.786 62.374L137.855 62.337L137.912 62.286L139.575 60.777L139.616 60.74L139.65 60.695L141.644 58.068L141.714 57.975L141.744 57.864L142.805 54.052L144.096 53.031L145.867 52.778L146.305 52.715L146.379 52.278L146.555 51.246L146.715 51.196L147.096 51.079L147.139 50.683C147.146 50.62 147.299 49.185 147.12 47.912L147.487 45.75L147.545 45.412L147.283 45.188C147.219 45.132 146.969 44.922 146.618 44.672L146.604 44.578L147.424 45.07L147.774 45.28L148.1 45.036L148.988 44.37L149.614 43.9L149.001 43.428ZM3.73804 35.19L6.73193 28.798L11.001 26.715L15.527 27.199L24.234 32.083L30.0499 38.856L30.7369 48.483L28.579 53.543C28.326 53.932 26.391 56.907 25.182 58.238C25.044 58.343 24.938 58.457 24.866 58.575L24.84 58.619C24.756 58.682 24.595 58.79 24.49 58.857L23.584 59.3L21.41 59.953L17.047 60.203L6.75 56.121L2.59692 44.06C2.65292 43.296 2.99704 39.054 3.73804 35.19ZM33.8929 55.088L34.286 54.451L33.5809 54.198L32.98 53.983L32.564 53.835L32.2949 54.187L29.75 57.512L27.436 58.944L29.4969 55.693L29.51 55.673L29.521 55.652C29.582 55.537 30.9249 53.004 31.6069 51.343L33.15 52.268L33.303 52.36L33.481 52.354L34.975 52.306L35.141 52.301L35.28 52.212L35.449 52.105L35.583 52.134L36.474 52.509L36.679 52.595L36.891 52.529L38.043 52.167L39.474 51.718L38.134 51.047L37.877 50.918L37.845 50.902L37.811 50.889L36.066 50.259L35.819 50.169L35.585 50.289L34.973 50.602L34.3099 50.442L32.844 49.565L32.679 49.466L32.4869 49.481C32.4239 49.486 32.2589 49.5 32.0549 49.529L32.601 39.378L32.6119 39.163L32.485 38.988L26.259 30.438L26.1799 30.33L26.062 30.264L16.749 25.13L16.601 25.049L16.432 25.056L13.615 25.17C16.744 23.981 20.207 22.848 20.256 22.831L26.853 20.685L26.8619 20.681L26.871 20.679L30.241 19.46C30.32 19.43 31.704 18.918 32.844 18.373C32.795 19.835 32.673 21.662 32.673 21.685L32.6539 21.947L29.528 20.438L28.8149 20.565L33.082 22.804L36.7729 25.557L37.58 25.459L33.835 22.516L33.4199 22.316L34.2739 22.169L34.734 22.089L34.7739 21.623C34.7819 21.521 34.9369 19.705 35.0029 18.101C35.1999 17.923 35.322 17.736 35.291 17.563C35.272 17.452 35.247 17.342 35.225 17.233C36.431 17.718 38.064 18.26 38.144 18.288L38.2109 18.309L38.282 18.316L41.8719 18.628C42.3219 18.801 44.659 19.72 46.278 20.698C45.853 20.875 45.42 21.087 45.025 21.297L43.957 21.57L43.313 21.734L43.0909 21.791L42.9609 21.98L41.4979 24.129L41.434 24.223L41.408 24.336L40.49 28.4L40.4869 28.414L40.485 28.428L38.9609 36.998L38.953 37.041L38.9509 37.084L38.6699 45.559L38.668 45.612L38.676 45.663L39.275 50.015L39.276 50.026L39.278 50.036L39.621 52.031C37.663 53.309 34.425 55.378 33.189 56.165C33.591 55.575 33.8639 55.134 33.8929 55.088ZM74.66 27.045L69.894 27.424L64.903 27.548L55.37 27.478L50.413 27.015L46.376 26.276C46.026 26.126 45.259 25.767 44.767 25.431C44.748 25.339 44.724 25.259 44.703 25.2L44.553 24.114L45.825 23.307L49.8669 22.498L58.772 22.438L68.7839 22.398L77.413 22.763L81.01 23.889L81.792 25.652L74.66 27.045ZM84.8199 31.863L84.903 31.729L84.911 31.572L85.011 29.593L85.073 28.01L85.074 27.992V27.974L85.009 24.146L84.999 23.633L84.493 23.556L84.426 23.546L84.412 23.517L84.266 23.418L80.463 20.849L80.384 20.797L80.292 20.771C80.264 20.762 79.7279 20.607 79.2739 20.491C79.0789 19.824 78.821 18.901 78.769 18.716L78.6219 17.798C78.7459 17.896 78.8299 17.962 78.8409 17.971L80.8669 19.634L80.906 19.666L80.95 19.691L82.528 20.596L82.6169 20.647L82.72 20.667L83.8199 20.87L85.139 21.25L85.223 21.274L85.311 21.273L85.703 21.27L87.3929 21.258L86.08 20.193L84.038 18.538L84.012 18.515L83.9819 18.497L81.778 17.098L81.644 17.014L89.709 18.746L89.812 18.767L89.915 18.753L109.921 16.133L110.065 16.113L110.186 16.031L113.875 13.509L113.938 13.465L113.989 13.407L115.54 11.633C115.606 11.554 115.9 11.196 116.232 10.744C116.334 12.165 116.328 13.707 116.216 15.471C116.175 15.523 116.14 15.567 116.121 15.591L115.507 16.305L113.822 17.869L109.466 20.348L108.545 20.873L109.463 21.401L109.777 21.581L110.047 21.735L110.329 21.607L114.281 19.814L114.313 19.8L114.343 19.781L115.919 18.834C115.854 19.447 115.784 20.06 115.717 20.66C115.549 22.155 115.374 23.698 115.26 25.226C114.96 25.42 114.681 25.673 114.576 25.771L113.597 26.516L108.773 28.589L107.636 29.078L108.72 29.676L108.872 29.76L106.826 29.452L106.427 29.395C106.744 27.495 107.202 24.495 107.207 24.46L107.237 24.265L107.146 24.089L105.704 21.319L104.409 18.472L104.199 18.012L103.709 18.134L102.795 18.364L102.092 18.54L102.39 19.2L104.947 24.888L105.246 27.611C105.119 27.906 104.829 28.58 104.599 29.137L101.156 28.654L101.141 28.652L101.124 28.651L98.298 28.404L98.277 28.402L98.2579 28.401L97.63 28.387L98.797 26.795L98.3729 26.512L96.894 28.369L95.142 28.329L94.968 28.325L94.819 28.413L94.0599 28.861L93.556 29.159L88.547 28.943L88.309 28.933L88.126 29.088L87.798 29.37L86.085 30.834L85.769 30.87L85.4709 30.904L85.318 31.162L84.918 31.835L84.733 31.992L84.8199 31.863ZM114.346 10.231L110.723 12.352L93.892 16.002L84.261 15.266L80.022 13.693L78.65 12.311L78.434 10.445C79.553 8.89401 82.0269 6.55798 82.5179 6.09998L90.7109 3.01202L99.851 2.38501L109.323 3.11798L115.103 6.96301L114.346 10.231ZM92.955 31.272L93.061 31.354L92.6959 31.302L92.955 31.272ZM111.128 29.839L111.149 29.837L111.17 29.833L112.812 29.532L112.863 29.522L112.912 29.504L115.039 28.722L115.096 28.702L115.122 28.684C115.124 29.461 115.151 30.203 115.204 30.918C113.844 30.536 112.107 30.253 112.017 30.238L110.118 29.951L111.128 29.839ZM80.094 47.713L80.493 47.663L80.557 47.202L81.025 43.842L81.917 40.557L81.981 40.321L81.876 40.129C81.917 40.006 81.9599 39.885 82.0029 39.763L82.028 39.692C82.171 39.453 82.347 39.09 82.369 39.046L82.474 38.828L82.408 38.624C82.479 38.428 82.557 38.213 82.593 38.114L84.606 34.737L88.136 31.989C87.128 32.648 85.691 33.66 84.634 34.692L85.858 32.636L86.595 32.006L88.376 31.801L88.136 31.989C88.24 31.92 88.341 31.855 88.436 31.795L91.724 31.417L92.978 31.512L93.582 31.76L98.657 35.7L99.9199 39.263L100.911 43.192L102.036 50.829L101.392 59.099L100.163 62.963L99.1799 64.891L98.65 65.559L98.625 65.592L98.604 65.627C98.592 65.647 98.3199 66.109 98.1219 66.684C97.9859 66.947 97.732 67.37 97.625 67.545L95.902 69.006L90.958 69.319L83.681 59.77L83.604 59.669L83.493 59.606C83.491 59.605 83.49 59.604 83.488 59.603L83.4869 59.593L83.308 59.434C83.253 59.387 83.134 59.294 82.969 59.244C81.893 57.451 80.638 54.02 80.458 53.523C80.393 53.027 79.994 49.765 80.094 47.713ZM79.7319 57.508C79.6669 57.566 79.61 57.62 79.559 57.672L79.4969 56.966C79.5749 57.154 79.6529 57.337 79.7319 57.508ZM144.419 50.651L144.398 50.658L144.377 50.667L142.826 51.279L142.615 51.362L142.511 51.563L140.707 55.028L138.902 58.614L135.635 60.895L131.516 62.985L127.474 64.3C127.469 64.302 126.819 64.498 126.086 64.715C126.853 63.251 127.471 61.526 127.505 61.427L127.529 61.359L127.537 61.286L127.73 59.393L127.972 57.174L127.976 57.139V57.106L127.958 52.149V52.033L127.914 51.925L127.525 50.96L127.135 49.989L126.487 50.81L126.149 51.239L126.03 51.389L126.019 51.583L125.809 55.646L124.729 59.639L120.926 65.869L120.892 65.926L120.87 65.989C120.859 66.02 120.845 66.071 120.83 66.137C119.806 66.387 118.361 66.726 118.206 66.762L112.134 67.896L106.513 68.983C106.499 68.986 105.775 69.128 104.936 69.284C106.105 67.994 107.189 66.501 107.253 66.412L107.288 66.362L107.313 66.306L109.418 61.662L109.427 61.645L109.434 61.627L111.122 57.199L111.397 56.476L110.629 56.381L109.883 56.288L109.385 56.226L109.231 56.704L107.816 61.102L105.654 64.325L100.124 69.268L100.02 69.36L99.967 69.487C99.945 69.539 99.8829 69.698 99.8459 69.908C99.6029 69.917 99.344 69.926 99.094 69.934C99.152 69.88 99.189 69.846 99.197 69.84L99.236 69.803L99.2679 69.76L100.25 68.465L100.287 68.417L100.313 68.361C100.322 68.343 100.347 68.291 100.375 68.228C100.742 67.95 101.16 67.493 101.252 67.391L101.288 67.351L101.316 67.303L102.264 65.769L102.292 65.722L102.313 65.67L103.792 61.886L103.815 61.824L103.826 61.758L105.071 53.549L105.089 53.435L105.063 53.323L101.139 36.3L101.108 36.165L101.022 36.058L96.592 30.509L99.502 31.165L99.528 31.171L99.5549 31.174L104.743 31.861L109.778 32.51L114.357 33.019L118.485 34.64L118.588 34.678L118.696 34.681L123.516 34.769L132.412 35.641L135.883 38.117L137.368 40.07C137.427 40.17 137.614 40.49 137.742 40.718C137.771 40.942 137.823 41.169 137.83 41.198L137.873 41.379L138.008 41.505L140.15 43.506L140.139 43.542L139.668 45.11L139.621 45.261L139.657 45.417C139.693 45.577 139.772 45.877 139.914 46.158C139.892 46.225 139.881 46.293 139.879 46.354L139.866 46.799L140.287 46.944L141.695 47.425L141.777 47.454L141.863 47.458L143.246 47.521L143.277 47.522L143.306 47.521L144.395 47.463L144.782 47.766L145.065 47.988L145.396 47.845C145.56 47.774 145.703 47.703 145.828 47.633C145.849 47.716 145.868 47.809 145.886 47.912L145.478 50.315L144.419 50.651ZM41.291 60.945L41.345 60.818L41.337 60.68L41.0029 54.655C41.0659 54.382 41.2629 53.539 41.3459 53.005C41.4149 52.831 41.4699 52.626 41.4869 52.557L41.496 52.522L41.502 52.486C41.536 52.203 41.51 51.993 41.449 51.839C41.453 51.501 41.4359 51.07 41.4349 51.048L41.433 51.007L41.426 50.966L40.788 47.379L41.38 32.783L42.376 27.898L42.694 26.496C42.844 26.748 43.056 27.006 43.132 27.094L43.278 27.266L43.5179 27.303C43.5179 27.303 43.56 27.308 43.626 27.308C43.685 27.308 43.741 27.304 43.796 27.294C44.689 27.836 46.096 28.452 46.161 28.481L46.204 28.5L46.249 28.512L51.2839 29.85L51.351 29.868L51.418 29.87L61.842 30.224L61.887 30.225L61.933 30.221L67.2889 29.597L72.8519 29.339L77.9719 29.106L78.0389 29.102L78.104 29.085L82.136 27.978L82.241 27.95L82.33 27.887C82.41 27.829 82.816 27.532 83.255 27.142C83.266 27.631 83.2669 28.055 83.2679 28.167L82.87 32.183L82.8209 32.672L83.29 32.82L83.6219 32.924L83.646 32.932L82.0649 34.285L81.95 34.384L81.894 34.526L80.276 38.661L80.272 38.67L80.269 38.679L80.1169 39.105C80.0589 39.2 79.999 39.305 79.939 39.418L80.432 30.304L79.957 30.463L79.5449 31.125L79.48 35.853L78.976 40.522L79.476 40.397C79.339 40.717 79.241 40.97 79.219 41.028L79.072 41.408L79.283 41.605C79.083 42.262 78.845 43.088 78.833 43.132L78.8149 43.193L78.811 43.256L78.1279 52.677L78.12 52.78L78.146 52.879C78.166 52.955 78.432 53.935 78.806 55.077L78.488 55.093L78.934 61.772L79.579 61.505L79.645 62.111L80.423 61.722L81.017 61.426L80.3359 62.213L79.105 62.535L79.0389 62.552L78.979 62.583L77.2159 63.497L77.025 63.596L76.939 63.792L76.764 64.189C76.265 64.284 75.675 64.348 75.298 64.374L75.2789 64.375L75.261 64.377L71.127 64.901L63.1329 66.095L48.671 64.913C48.475 64.846 47.911 64.651 47.426 64.475L46.691 62.571C46.839 62.232 47.135 61.769 47.348 61.48L48.33 60.292L48.3979 60.21L48.433 60.11L49.443 57.284L62.48 59.669L75.894 56.787L76.344 56.066L69.804 57.987L62.592 58.913L49.85 56.886L49.547 56.995L49.785 56.326L48.786 56.472L48.337 56.537L48.131 56.568L47.986 56.718L47.4919 57.237L47.375 57.36L47.339 57.526L46.9769 59.175L46.051 60.444C45.454 60.983 44.269 62.212 44.553 63.227C43.326 62.578 41.951 61.747 41.933 61.735L41.678 61.581L41.3989 61.689L40.902 61.883L41.291 60.945ZM146.458 44.577C146.242 44.429 145.997 44.273 145.739 44.131C145.824 44.085 145.908 44.038 145.992 43.99C146.18 44.214 146.361 44.408 146.394 44.442L146.452 44.504L146.469 44.515L146.458 44.577Z" fill="#5E1B17"/>
</svg>
