<svg width="335" height="336" viewBox="0 0 335 336" fill="none" xmlns="http://www.w3.org/2000/svg">
<path d="M261.681 100.679C261.681 100.679 256.212 104.325 253.138 105.535C246.502 106.991 233.458 111.112 233.458 111.112L218.974 119.237L210.474 133.87L211.286 149.444C211.286 149.444 211.699 150.027 211.932 149.913C211.839 150.682 211.006 152.224 211.006 152.224L202.947 162.912L195.31 175.638L186.95 183.425C186.95 183.425 184.598 184.995 183.006 186.066C184.063 183.27 186.48 178.809 186.48 178.809L191.093 172.233L193.596 162.58L196.258 158.961L197.167 157.74L198.31 156.868L198.794 156.283C197.897 155.34 197.509 153.336 197.509 153.336L197.63 152.764L199.578 152.409L198.815 151.441L198.049 151.047L198.946 150.118L199.961 148.179L199.28 146.575L198.558 145.337L197.767 146.3L196.745 146.705L195.616 147.928L195.027 152.673L195.882 157.072L194.727 158.055L192.576 157.419L192.863 152.705L191.794 149.761L188.623 149.318L189.69 153.154L191.022 154.91L190.482 155.899L188.672 156.451L190.822 159.124L191.991 160.238L191.796 161.736L190.324 161.027L188.716 159.527L187.523 155.819L187.23 152.733L185.6 151.564L184.234 153.609L183.741 155.86L184.623 158.041L185.407 160.797C185.407 160.797 187.353 162.354 188.431 160.57C188.943 160.767 189.564 161.203 190.106 161.641C189.897 161.598 189.739 161.931 189.739 161.931C189.739 161.931 189.679 164.126 189.554 165.218C189.49 165.261 189.472 165.464 189.472 165.464C189.472 165.464 189.483 165.528 189.488 165.559C189.144 166.724 188.466 169.059 188.466 169.059L188.003 170.528C188.003 170.528 187.396 171.739 187.821 171.466C187.815 171.476 187.806 171.485 187.796 171.495C187.71 171.566 187.635 171.648 187.582 171.741C185.903 173.75 183.329 178.486 183.329 178.486C183.329 178.486 182.118 180.428 181.497 181.532C180.741 176.283 178.788 171.172 176.986 166.14C176.847 165.231 176.66 164.337 176.4 163.456C176.434 163.286 176.447 162.985 176.447 162.985L176.262 160.667L176.201 158.266L175.606 157.281C175.606 157.281 174.993 157.906 174.993 158.254C174.97 158.735 174.965 159.216 174.97 159.695C174.962 159.986 174.952 160.278 174.941 160.568C173.237 154.442 169.682 142.243 169.682 142.243L170.523 131.982L174.371 122.167L178.872 112.42L181.809 98.6791C181.809 98.6791 181.889 93.5872 181.186 91.0109C184.269 92.4942 190.761 94.6776 190.761 94.6776L198.285 93.1088L200.232 91.7571L206.361 85.2746L208.887 75.536L203.619 53.8896L197.474 45.4311C197.474 45.4311 191.026 41.335 187.736 39.3709L187.466 39.1076L186.536 38.619C186.263 38.4393 185.726 38.0612 185.726 38.0612C185.726 38.0612 185.15 38.3469 185.336 38.897C185.229 38.9474 185.186 39.1473 185.186 39.1473L186.773 47.2014C186.773 47.2014 187.509 49.3615 187.993 50.3813C187.971 50.4435 188.005 50.5359 188.005 50.5359C188.005 50.5359 188.091 50.6304 188.135 50.678C188.815 52.0756 190.201 54.8766 190.201 54.8766L188.617 71.4142C188.617 71.4142 188.518 71.5817 188.484 71.6591C187.636 73.0208 185.962 75.7802 185.962 75.7802C185.962 75.7802 184.315 83.1397 182.178 84.3037C182.029 84.252 181.836 84.4032 181.836 84.4032C181.836 84.4032 181.817 84.4334 181.809 84.4492C181.764 84.4625 181.674 84.4962 181.674 84.4962C181.674 84.4962 181.481 84.5766 181.401 84.6511C181.523 83.6997 181.625 82.7454 181.693 81.7921C182.067 79.2632 182.264 76.7457 182.268 74.2365C182.327 73.4814 182.396 71.9713 182.396 71.9713L182.327 67.0866C182.327 67.0866 182.309 66.9329 182.299 66.8575C181.719 58.6555 179.013 50.6882 173.663 44.6003C171.587 41.2586 167.07 34.8217 167.07 34.8217L165.521 32.8848L163.434 30.5061L150.816 16.6783C150.816 16.6783 150.42 16.6944 150.217 16.9336C150.155 16.8887 150.096 16.8436 150.03 16.8031C147.169 30.1121 153.298 55.8046 153.298 55.8046C153.298 55.8046 165.504 79.3601 176.908 87.2441C170.749 86.8254 160.499 76.6797 160.499 76.6797L155.331 70.2663L138.342 56.8364L137.132 56.5318L137.612 57.8234L144.583 70.2836L154.839 90.1656L163.09 94.8076L170.297 93.2259C170.297 93.2259 175.482 91.4346 177.971 89.6411C178.53 93.7989 177.73 101.752 177.73 101.752L171.666 118.835L168.1 125.315C168.1 125.315 167.571 127.191 167.35 128.199C166.614 124.867 166.117 118.072 166.117 118.072L168.74 115.706L169.999 114.322L168.809 111.149C168.809 111.149 167.635 111.92 167.594 112.723C166.454 112.459 166.267 110.971 166.267 110.971L165.586 108.726L163.066 107.201C163.066 107.201 163.452 108.664 163.235 109.541C162.433 109.81 161.714 108.67 161.714 108.67L159.755 107.85L159.364 111.392L162.847 113.432C162.847 113.432 164.433 113.677 164.845 114.546C164.413 114.958 163.693 114.438 163.693 114.438L161.603 114.499L161.676 116.702L164.48 124.498C164.48 124.498 165.171 126.929 165.342 128.239C157.874 116.888 151.459 104.746 140.027 96.3411C141.082 95.6187 143.061 94.2845 143.061 94.2845L144.66 90.7179C143.494 91.7504 141.437 93.5884 140.226 94.7438C139.67 93.3236 140.733 90.964 140.733 90.964C140.733 90.964 144.169 86.8793 144.815 83.8073C145.461 85.2738 145.574 87.3596 145.572 88.6825L146.802 85.9348L142.529 78.8389C143.115 80.4415 144.31 84.6839 142.02 88.0379C144.766 81.3017 139.875 77.2501 136.921 72.5615C137.054 72.5373 137.665 72.733 137.665 72.733L141.808 77.6419L138.123 71.5231C138.123 71.5231 137.265 70.9263 136.735 70.6852C135.795 70.1451 134.822 69.6491 133.812 69.2943C133.733 69.2612 133.564 69.1988 133.564 69.1988C133.564 69.1988 133.475 69.1758 133.436 69.1713C133.332 69.1013 133.131 68.9564 133.131 68.9564L132.176 68.793C132.176 68.793 132.175 68.7945 132.174 68.796C131.948 68.8413 131.972 69.4185 131.972 69.4185C131.972 69.4185 132.38 70.4086 132.576 70.9067C132.588 70.9559 132.61 71.0119 132.64 71.0712C132.765 71.3895 132.888 71.7072 133.013 72.0255C133.306 72.8958 133.608 73.758 133.902 74.6247C133.789 74.6966 133.734 74.7802 133.802 74.866L134.14 75.4874C134.173 75.623 134.227 75.7333 134.291 75.8234C134.524 76.5617 134.73 77.3107 134.912 78.0689C134.88 79.1443 134.797 81.2942 134.797 81.2942C134.797 81.2942 134.516 83.1817 134.459 84.1142C134.37 84.1585 134.285 84.5089 134.285 84.5089C134.285 84.5089 134.273 85.1933 134.315 85.5098C134.103 85.6402 134.26 86.4833 134.26 86.4833C134.26 86.4833 134.567 87.2145 134.815 87.1891C135.051 87.7207 135.617 88.821 135.617 88.821C135.617 88.821 136.309 90.3492 136.609 91.1337C134.433 87.5132 129.404 82.4816 129.404 82.4816L125.901 79.212L114.59 71.9104L113.129 71.7501L113.141 72.9905L118.823 84.117C118.823 84.117 124.253 90.7544 128.587 93.3631C126.581 93.7806 122.763 95.5311 122.763 95.5311C122.763 95.5311 117.628 97.6987 115.061 98.7828C113.305 98.9061 109.787 99.1187 109.787 99.1187C109.787 99.1187 109.32 99.4304 109.272 99.7742C109.251 99.7832 109.236 99.79 109.236 99.79C109.236 99.79 109.249 99.8201 109.264 99.8607C109.222 100.408 109.461 101.05 109.925 101.038C113.775 105.387 124.067 108.415 124.067 108.415L125.744 108.191L132.232 105.012L136.075 101.622L138.833 98.4623L140.248 98.8602L147.51 106.677L158.073 121.243L161.398 129.164L167.848 148.71L172.031 164.619L174.885 175.204L176.875 195.869C176.875 195.869 176.858 201.93 177.786 204.896C175.437 202.509 172.218 196.935 172.218 196.935L169.231 192.844L165.11 188.196L161.449 180.892L159.821 175.851L160.082 172.609L160.758 172.186L163.071 170.551L161.213 167.369L158.416 167.707L158.336 170.056C158.336 170.056 158.129 171.892 156.81 172.795C157.545 171.358 157.108 169.366 157.108 169.366L154.502 167.307L153.041 167.533L152.922 168.944L155.593 172.374L156.979 174.154C156.979 174.154 158.627 174.964 158.678 176.173C157.099 176.403 155.526 174.294 155.526 174.294L154.345 173.161L153.825 173.089C153.529 174.33 154.959 175.137 154.959 175.137L156.112 177.274L154.016 176.717C154.016 176.717 152.003 174.452 153.722 173.075L151.968 172.828L151.852 175.732L155.861 178.374C155.861 178.374 157.054 177.53 157.155 176.847C158.833 176.868 159.985 179.247 159.985 179.247L161.046 185.535L162.807 187.726C162.807 187.726 163.761 188.128 163.983 188.493C160.271 189.91 155.096 185.534 155.096 185.534L154.572 183.77L152.299 179.674L150.692 177.152L149.211 173.371L147.658 172.802L146.525 174.531L148.479 177.832C148.479 177.832 150.495 179.07 150.878 181.572C149.956 180.7 148.572 179.403 148.572 179.403L146.211 179.408L146.134 182.004L150.392 183.737L154.497 186.151C154.497 186.151 155.498 186.769 155.612 187.57C153.466 187.731 149.543 186.556 149.543 186.556L148.552 185.719L144.766 182.712L142.314 183.708L143.179 185.788L146.935 186.75C145.138 186.263 143.472 185.014 143.472 185.014L143.183 183.929L144.223 183.64C144.223 183.64 146.584 184.264 147.316 185.587C145.951 185.468 145.029 184.558 143.7 184.599C144.919 185.282 146.139 185.965 147.857 186.925C147.62 186.903 147.38 186.859 147.142 186.802L148.854 187.241L152.714 188.247L162.616 189.535C162.616 189.535 163.117 189.542 163.327 189.609C167.386 193.981 172.831 204.613 172.831 204.613C172.831 204.613 174.183 206.677 174.924 207.662C168.319 203.229 156.669 198.627 156.669 198.627L139.852 194.855C139.852 194.855 131.659 193.936 127.875 191.72C129.472 190.416 132.283 187.602 132.283 187.602L135.257 177.99L131.351 165.746L129.101 162.796L127.201 159.646L126.673 158.962L126.059 159.637L124.603 179.559C124.603 179.559 124.877 183.469 125.537 185.366C123.608 182.218 121.673 175.239 121.673 175.239L117.195 156.02L110.948 146.633L94.066 134.936L83.1619 128.04L78.9657 125.162L77.8126 124.836L77.8389 126.093L79.985 134.019L81.3029 141.351L87.5632 151.406L92.9548 158.405L103.079 167.614L114.603 178.845L115.391 179.964C115.391 179.964 116.064 180.599 116.195 181.3C114.531 180.45 111.209 178.745 111.209 178.745L99.1818 172.263L82.6782 167.529L100.241 173.79L111.72 180.019L118.576 184.522L124.224 189.942L125.634 190.645L127.092 188.951L126.906 186.995L125.834 181.621C125.834 181.621 127.365 170.138 127.328 163.806C129.071 167.292 130.748 176.425 130.142 178.61C129.535 176.271 129.153 174.001 127.946 171.993C128.25 174.603 130.044 179.495 130.044 179.495C130.044 179.495 130.764 181.814 129.123 182.597C128.828 181.05 128.322 178.138 128.322 178.138L127.819 177.25L127.415 178.11L127.732 179.837L127.965 187.682L126.634 190.626L126.651 191.153L128.188 192.671C128.188 192.671 129.414 192.84 129.61 193.725C129.564 193.721 129.518 193.722 129.482 193.728C127.488 192.943 126.609 194.773 125.119 195.651C125.01 194.745 125.713 193.376 125.713 193.376L125.371 191.717L121.495 190.167L115.853 186.54C115.853 186.54 111.805 182.195 109.878 179.923C111.002 182.722 113.05 184.845 115.422 187.273C109.395 185.154 104.275 182.514 100.203 178.078C101.063 180.017 102.802 181.061 104.295 182.772C101.332 181.802 96.0433 179.903 96.0433 179.903L89.6206 174.412C89.6206 174.412 86.8142 171.477 84.1107 171.359C88.1878 174.049 91.7392 176.639 94.8335 179.873C86.9358 179.509 80.9889 175.485 75.5835 170.32C77.505 173.282 80.4771 174.948 83.0141 177.184C77.8763 175.504 67.7552 171.809 67.7552 171.809L56.8903 167.45C56.8903 167.45 48.3104 163.025 44.5888 159.171C47.4063 159.818 52.1392 160.94 52.1392 160.94L82.4564 167.465L70.4807 164.029L54.0725 160.387L48.0023 158.884L42.8568 157.109L42.0049 156.927L41.7727 157.773L43.7256 161.015C43.5056 160.413 43.3149 159.599 43.5696 158.975C45.5815 161.43 50.2186 165.264 50.2186 165.264L59.1404 169.15L81.7948 177.666L91.9231 180.666C91.9176 180.672 91.9106 180.677 91.9045 180.683C91.9185 180.679 91.9298 180.675 91.9417 180.673L91.9302 180.663C96.9315 180.994 106.252 184.33 106.252 184.33L106.828 184.735L106.23 185.441L102.363 186.741C102.363 186.741 96.825 187.412 94.0261 186.769C94.0411 187.451 94.7608 187.761 94.7608 187.761L106.316 186.249L110.83 186.281L115.736 188.684C115.736 188.684 120.08 190.755 122.361 191.599C121.843 191.777 120.936 191.767 120.936 191.767L107.739 191.898L104.872 192.265L110.006 192.615C110.006 192.615 116.748 192.509 120.321 192.933C119.021 193.869 116.364 194.838 116.364 194.838L94.7012 204.369L81.4682 217.059L73.5908 233.577L71.5611 241.553L71.6654 243.287L72.8693 243.46L80.6327 236.323L86.3884 232.784L89.2766 232.829L100.152 227.484L118.431 211.2L124.223 199.766C124.223 199.766 124.74 198.048 125.078 196.923C126.029 203.304 129.613 215.014 129.613 215.014L135.907 224.639L143.437 231.865L146.149 233.805L147.196 234.039L147.095 232.95L145.406 223.908L142.703 213.256L144.302 225.21C144.302 225.21 144.496 228.513 144.838 230.165C139.82 224.2 136.172 217.625 134.597 210.007C135.278 210.919 135.973 211.735 136.974 212.28C137.117 211.885 136.87 211.293 136.87 211.293L132.365 202.987L130.126 197.852C130.126 197.852 128.907 196.486 128.704 195.618C130.488 196.455 132.733 198.19 134.619 199.798C133.982 199.422 132.847 199.71 132.154 199.461C132.985 200.357 133.84 201.142 134.999 201.575C135.174 200.756 135.084 200.281 134.851 199.997C136.882 201.747 138.441 203.296 138.441 203.296L142.026 210.597L140.42 204.273C140.42 204.273 134.636 196.786 129.509 195.066C129.593 195.045 129.681 195.027 129.769 195.011C129.884 195.123 130.11 195.228 130.11 195.228L151.8 201.243C151.8 201.243 164.363 206.674 170.364 210.027C170.654 210.302 171.208 210.882 171.208 210.882C171.208 210.882 172.687 212.378 173.456 213.106C175.833 218.671 178.919 230.51 178.919 230.51C178.919 230.51 179.856 236.762 181.276 241.791C181.077 241.634 180.681 241.317 180.681 241.317L175.927 238.473C175.927 238.473 175.632 238.467 175.559 238.535C175.437 238.554 175.312 238.592 175.197 238.638C174.378 238.112 174.847 240.35 174.847 240.35C174.847 240.35 174.898 240.385 174.923 240.401C175.751 242.366 176.526 245.542 176.77 246.579C176.793 246.811 176.815 247.042 176.831 247.276C176.386 247.208 176.627 247.998 176.627 247.998C176.627 247.998 176.817 248.161 176.914 248.241C177.07 248.803 177.694 249.413 177.939 249.112C185.14 255.371 196.938 270.701 196.938 270.701C196.938 270.701 202.548 277.62 205.566 280.899L207.183 278.953L207.729 279.605L211.619 274.858C212.3 274.64 212.754 274.468 212.754 274.468L213.016 273.153L214.045 271.9L213.515 271.339L214.028 270.721L211.569 268.028L206.342 263.002L203.256 259.023L200.831 255.866L198.815 252.973L195.477 249.578C195.477 249.578 195.042 249.478 194.863 249.391C194.866 249.175 194.775 248.848 194.775 248.848C194.775 248.848 192.604 245.693 191.357 244.197C189.377 241.02 187.326 233.862 187.326 233.862L184.828 221.966L183.935 215.144L184.204 204.145L184.172 202.7C184.172 202.7 184.148 202.719 184.113 202.745C184.161 201.144 184.813 198.091 184.813 198.091L188.756 191.085L192.42 184.362C192.42 184.362 192.385 184.114 192.203 184.045C192.741 183.175 193.771 181.405 193.771 181.405C193.771 181.405 193.761 181.252 193.644 181.22L198.663 175.655L205.322 164.181L212.155 155.741L213.882 154.015L213.968 156.57L211.123 169.489L207.05 183.362L205.288 192.591L208.249 204.953L209.405 208.259L213.66 214.985L216.309 220.574L217.156 221.839L218.054 220.461L218.614 217.582L223.059 207.527L230.299 191.433L229.015 182.777L223.679 164.354C223.679 164.354 221.878 157.452 220.043 154.134C224.011 156.183 228.516 163.098 228.516 163.098L239.272 173.503L247.751 179.538L264.523 189.468L291.848 199.504L294.359 200.983L295.2 201.169L295.544 200.304L293.52 191.912L288.079 183.354L281.384 172.822L270.64 162.125L259.435 155.349L256.979 154.185L236.512 146.899C236.512 146.899 230.495 145.308 226.614 144.882C226.362 144.829 225.86 144.722 225.86 144.722C225.86 144.722 225.389 144.617 225.155 144.558C225.109 144.428 224.928 144.255 224.928 144.255C224.928 144.255 223.428 143.759 222.585 143.778C224.128 143.227 227.152 141.961 227.152 141.961L236.454 136.818C236.454 136.818 236.563 136.734 236.61 136.683C239.091 135.495 244.088 133.195 244.088 133.195L249.203 130.762L254.539 126.852L261.797 117.257L254.894 125.023C254.894 125.023 246.772 130.631 242.265 132.704C242.085 132.752 241.906 132.8 241.726 132.85C241.162 132.976 240.436 133.198 240.436 133.198C240.436 133.198 237.998 134.283 236.869 134.995C236.856 135.002 236.843 135.009 236.829 135.016C236.699 134.866 236.189 135.047 236.189 135.047C236.189 135.047 234.27 136.33 233.284 136.928C228.778 139.003 219.532 142.601 219.532 142.601C219.532 142.601 214.903 145.939 214.816 148.824C213.075 147.352 215.043 144.584 215.043 144.584L224.541 135.978C224.541 135.978 228.596 133.666 231.387 132.799C228.159 132.5 224.13 134.754 216.287 141.798C216.39 140.305 218.112 138.361 218.112 138.361L228.136 131.403C231.273 130.551 237.645 129.848 237.645 129.848L238.348 129.284L237.54 129.149L228.398 131.22L236.746 125.427L240.396 124.084L250.367 118.391L257.305 112.549L250.49 117.137L241.634 122.452C241.634 122.452 235.325 124.863 231.973 126.12C234.483 120.667 244.785 112.993 244.785 112.993L245.936 113.206L245.275 114.59L244.31 114.963L245.566 115.553L246.911 113.36C246.911 113.36 245.444 111.831 244.223 112.329C243.853 113.012 242.537 113.623 242.537 113.623L232.163 123.858C232.163 123.858 226.906 128.346 224.2 130.468C226.331 124.948 234.09 116.524 234.09 116.524L235.091 113.963C235.091 113.963 234.581 113.345 234.102 113.487C234.322 112.641 235.734 112.293 235.734 112.293L242.308 110.323C242.308 110.323 243.537 109.985 244.185 110.074C245.513 108.897 248.817 108.755 248.817 108.755L264.222 102.644C264.222 102.644 266.714 100.744 268.314 99.5583C268.37 99.5391 268.421 99.5198 268.473 99.5007C267.312 102.436 266.35 107.421 266.35 107.421L263.747 114.679L266.075 111.601C266.075 111.601 268.537 103.244 269.772 99.0657C269.82 99.0495 269.915 99.0177 269.915 99.0177L269.118 97.5335L261.681 100.679ZM110.446 163.611C113.973 169.009 117.054 174.695 119.621 180.585L119.111 180.808C116.132 173.966 112.456 167.407 108.188 161.254C107.138 159.741 106.052 158.254 104.931 156.793C101.18 151.901 97.0411 147.313 92.5699 143.093C91.5678 142.149 90.556 141.217 89.5216 140.31L89.8883 139.891C89.9709 139.963 90.0501 140.037 90.1314 140.109C96.7542 145.948 102.706 152.588 107.842 159.807C108.733 161.061 109.605 162.325 110.446 163.611ZM112.652 161.584L112.132 161.781L110.595 157.772L107.677 150.161L106.769 147.796L107.289 147.597L112.652 161.584ZM102.961 161.43C103.203 161.651 103.444 161.872 103.688 162.092C104.953 163.228 106.264 164.312 107.616 165.344C107.979 165.621 108.342 165.9 108.711 166.171L108.435 166.551L108.384 166.621C106.742 165.423 105.16 164.15 103.642 162.802C103.164 162.38 102.696 161.949 102.232 161.513C100.24 159.64 98.3673 157.641 96.6289 155.527L97.0575 155.173C98.8802 157.393 100.858 159.479 102.961 161.43ZM100.52 218.905C103.199 215.915 103.569 211.699 105.867 208.525C104.82 212.401 103.453 216.088 100.52 218.905ZM78.3084 235.454L78.1487 235.409C78.0637 234.404 78.1974 233.43 78.4424 232.488C78.5163 232.198 78.5995 231.914 78.6941 231.63C79.0835 230.416 79.8599 229.379 80.5648 228.34C80.7739 228.03 80.991 227.728 81.2139 227.429C81.742 226.719 82.3042 226.037 82.9021 225.392C83.5231 224.738 84.1647 224.11 84.8421 223.524C85.1037 223.296 85.3691 223.074 85.6432 222.862L85.7598 222.983C84.9709 223.928 84.2199 224.89 83.5555 225.909C83.191 226.454 82.848 227.007 82.5208 227.568C82.2387 228.048 81.9666 228.533 81.7096 229.026C81.1549 230.096 80.8076 231.251 80.2245 232.292C79.6479 233.342 79.0822 234.401 78.3084 235.454ZM94.5281 210.455C92.6572 212.21 89.8215 212.222 87.9668 214.026C89.4558 211.546 92.1923 211.38 94.5281 210.455ZM120.593 196.793L103.677 208.882L99.3807 211.953C100.245 211.278 101.095 210.579 101.938 209.865C103.09 208.888 104.228 207.883 105.366 206.884C109.502 203.255 113.663 199.68 118.605 197.561C119.254 197.28 119.913 197.017 120.593 196.793ZM94.3008 207.872C95.3292 206.867 97.0092 206.963 97.0092 206.963L104.761 205.801L105.505 205.792L104.976 206.46C104.977 206.459 98.1942 207.669 94.3008 207.872ZM104.42 201.967C108.282 201.925 111.192 200.499 114.213 199.283C112.452 201.41 107.03 203.059 104.42 201.967ZM97.4068 212.417C95.3767 213.924 93.0715 215.708 90.8768 217.572C92.314 215.836 96.013 213.207 96.013 213.207C96.013 213.207 96.9402 212.678 97.4068 212.417ZM90.1275 215.638C88.3085 216.829 86.6833 218.367 84.4734 218.868C86.2485 217.6 87.9385 216.177 90.1275 215.638ZM97.6462 213.028C96.4174 217.88 93.0041 221.355 90.0252 225.105C92.6426 221.127 95.314 217.185 97.6462 213.028ZM114.588 205.547L113.161 209.829C113.161 209.829 112.648 211.216 111.499 212.057C112.333 209.651 113.738 207.67 114.588 205.547Z" fill="#5E1B17"/>
</svg>
