<svg width="100" height="49" viewBox="0 0 100 49" fill="none" xmlns="http://www.w3.org/2000/svg">
<path d="M99.5903 29.0267L98.9727 28.5334C98.9486 28.508 98.9205 28.4773 98.8905 28.4439C99.0261 28.2868 99.1385 28.1317 99.1712 28.0869L99.24 27.9914L99.2467 27.8744L99.3209 26.5911L99.3369 26.3023L99.0709 26.1927C99.0355 26.1787 98.8076 26.0871 98.5215 26.0297C98.5756 25.9307 98.6144 25.8525 98.6312 25.8191L98.6692 25.7409L98.6719 25.6533L98.702 24.6815L98.716 24.2384L98.2729 24.2644L97.7295 24.2965L97.3845 24.3179L97.3498 24.6614L97.3198 24.9609L97.168 24.9983L96.5511 25.1507L96.3446 25.2008L96.269 25.3993L95.9462 26.2489L95.0907 26.833C95.0493 26.8544 94.9564 26.9039 94.8648 26.9553C94.6576 26.9166 94.4738 26.8979 94.304 26.8979C94.0895 26.8979 93.8922 26.9286 93.7111 26.9888C93.2686 26.0303 92.387 24.8459 92.3429 24.7878L92.3209 24.7577L92.2922 24.7316L90.0036 22.6402L89.9053 22.5494L89.7723 22.5353L83.9246 21.9385L83.8992 21.9358L83.8731 21.9365L80.7785 22.0147L79.3094 21.7145L78.2427 21.1644C78.2574 21.0194 78.2587 20.8844 78.2574 20.8149C78.2801 20.4587 78.6798 14.0829 79.002 10.8586C79.018 10.7991 79.0427 10.7129 79.0427 10.7129L79.0454 10.7015L79.0481 10.6902C79.0728 10.5772 79.0721 10.4703 79.0474 10.3767C79.2178 8.13562 78.5368 4.05107 78.5067 3.87529L78.4833 3.73026L78.3717 3.63468C78.3536 3.61931 78.3242 3.59526 78.2848 3.5712C77.7287 2.43428 75.9387 1.22647 75.7275 1.08678L75.6674 1.04603L75.5972 1.02999L72.6035 0.32685L72.5748 0.32016L72.5467 0.317467L69.053 0.00269248L69.0276 0L69.0022 0.000652721L62.0877 0.249992L62.0209 0.251991L61.9601 0.274714L55.2468 2.78047L55.2007 2.79785L55.1593 2.82596C55.0503 2.90015 52.5405 4.62793 51.5533 5.96938C51.5112 5.99277 51.4644 6.02484 51.4163 6.06762L51.3735 6.10437L51.3428 6.15116C51.2833 6.2414 51.1309 6.48537 51.0286 6.74069L50.8208 6.69655L50.8087 7.18516L50.782 8.26659L50.7813 8.29401L50.661 8.32277L50.7727 8.64827L50.7693 8.75919C50.7172 9.06064 50.7239 9.41355 50.7266 9.49709L50.7339 9.71168L50.9157 9.82664C50.9391 9.84067 50.9858 9.86939 51.0493 9.8988C51.0834 10.626 50.9698 11.7629 50.9685 11.7763L50.9611 11.8411L50.9752 11.904L51.2606 13.2067L51.2633 13.2207L51.2673 13.234C51.2673 13.234 51.2873 13.3036 51.3167 13.4031C50.0053 13.2728 48.208 13.2561 47.4113 13.2561C47.2335 13.2561 47.1319 13.2575 47.1319 13.2575L40.0671 13.2822L35.9679 13.3457C35.893 13.3457 34.1024 13.3497 33.0297 13.4232C31.6381 12.1098 28.373 11.0591 28.2299 11.0137L28.1839 10.999L28.1351 10.9956L26.7488 10.9007L25.1721 10.7991L23.9623 10.3834L23.9095 10.3653L23.8534 10.362C23.8467 10.3613 23.689 10.3526 23.4972 10.3526C23.4557 10.3526 23.4162 10.3533 23.3781 10.354C23.3634 10.1261 23.3474 9.9182 23.3467 9.90349L23.342 9.84867L23.3234 9.79722L23.0265 8.96974C23.983 8.83606 24.8767 8.40298 25.525 7.66642C25.6226 7.55546 24.6441 7.26067 24.4616 7.46052C24.0065 7.95914 23.4777 8.31472 22.8521 8.48583L22.0888 6.36036L22.0093 6.13913L21.7767 6.09837L20.7414 5.91724C20.9292 5.61246 21.1176 5.30834 21.3061 5.00356C21.3014 4.99019 21.2968 4.97814 21.2921 4.96411C21.2754 4.93069 21.2514 4.90193 21.2206 4.87787C21.123 4.77159 20.6304 4.43341 20.4867 4.56375C20.1385 4.87989 19.9066 5.32238 19.6606 5.72743L19.1219 5.63184C19.1185 5.62716 19.1158 5.62112 19.1098 5.61577C18.3605 4.85648 17.6 4.12594 16.9182 3.30248C16.7859 3.14274 16.4022 3.14742 16.2157 3.14742C16.1576 3.14742 15.6924 3.16479 15.7986 3.29914C16.4042 4.06511 17.0519 4.83043 17.7864 5.47943L13.4192 5.1379L12.6625 5.07842L13.0348 5.74011L13.1278 5.90521L13.2287 6.08634L13.4359 6.10906L17.1768 6.52011L17.2022 6.52211H17.2277L19.2869 6.49005L21.0027 7.04813L21.119 7.34491C21.0862 7.31617 21.0555 7.28541 21.0221 7.25667C20.7574 7.03009 19.5443 7.75731 19.6659 7.8823C20.5749 8.81537 21.2814 9.90216 21.7446 11.0992C21.7138 11.1139 21.6871 11.1273 21.6738 11.134L20.5234 11.6299L18.1634 12.5369L13.4052 14.1344C13.1712 14.2146 7.97788 16.0045 5.08176 17.4262L4.82777 16.6295L4.38865 17.5659L3.92538 18.5558L3.77567 18.4241L3.50903 18.6447C2.7972 19.2335 2.21234 20.7454 1.72041 23.2618L0.0628244 26.8016L0 26.9346L0.0381026 27.0757L3.05588 38.5639L3.10467 38.7497L3.27976 38.8292L9.88677 41.8343L9.96828 41.8731L10.0599 41.8717L14.0334 41.821L14.1042 41.8196L14.1718 41.7942L14.8195 41.5496L14.1725 42.0529L16.5626 41.194L21.8803 39.2837L21.9164 39.2704L21.9498 39.2517C22.0701 39.1808 24.5164 37.7364 26.2369 36.6129L26.4534 41.4794L26.4641 41.696L26.3264 41.7501L26.4701 41.8383L26.5363 43.3108L27.0075 42.1652L27.0262 42.1765L31.3627 44.8173L31.4169 44.8508L31.4783 44.8654L36.4183 46.0539L36.4865 46.0699L36.5548 46.0625L47.8451 44.9223L47.8738 44.9196L47.9 44.9129L50.8709 44.1917L50.8829 44.189L50.895 44.185C50.9458 44.1697 52.1188 43.8094 52.7183 43.4471C52.9864 43.3703 53.3787 43.2306 53.3974 43.2239L53.4121 43.2186L53.4268 43.2112L54.6459 42.6604L54.7108 42.631L54.7616 42.5822C54.8278 42.5174 55.039 42.3075 55.2462 42.0475C56.6304 44.707 60.1374 47.906 60.2999 48.0537L60.3827 48.1278L60.4917 48.1506C60.5391 48.1599 61.6613 48.3825 62.6686 48.3825C63.0442 48.3825 63.3516 48.3524 63.6063 48.2903C63.7487 48.303 63.9131 48.309 64.0949 48.309C65.1503 48.309 66.5506 48.0964 66.6094 48.0871L66.6148 48.0864L66.6207 48.0851C66.6247 48.0844 66.971 48.0222 67.2451 47.9761C67.4135 48.0857 67.5873 48.1185 67.632 48.1258L67.7724 48.1472L67.8961 48.0764C67.9088 48.0697 68.1567 47.9266 68.3312 47.8197C68.9127 47.7428 69.9259 47.6139 69.9259 47.6139L69.9427 47.6119L69.9587 47.6079L77.2314 46.0605C77.2641 46.0532 79.8401 45.4657 81.2838 45.215C81.6534 45.4476 82.146 45.4924 82.255 45.4997L82.4314 45.5118L82.5598 45.3908C82.5738 45.3781 82.8471 45.1201 83.0456 44.9203C83.3645 44.8641 83.821 44.7812 83.821 44.7812L83.8323 44.7792L83.8424 44.7766L86.7211 44.0941L86.7466 44.0874L86.7713 44.0788L89.5343 43.0327L89.5571 43.024L89.5791 43.012L92.0943 41.69L92.1404 41.6652L92.1785 41.6311L93.29 40.6225L93.3174 40.5978L93.3402 40.5677L94.673 38.8119L94.7197 38.7497L94.7398 38.6755L95.4489 36.1276L96.3118 35.4452L97.4955 35.2761L97.7883 35.234L97.8378 34.9419L97.9554 34.2522L98.0623 34.2187L98.317 34.1405L98.3458 33.8758C98.3504 33.8337 98.4527 32.8746 98.333 32.0237L98.5783 30.5787L98.617 30.3528L98.442 30.203C98.3992 30.1656 98.2321 30.0253 97.9975 29.8582L97.9882 29.7953L98.5362 30.1242L98.7701 30.2646L98.988 30.1015L99.5816 29.6563L100 29.3422L99.5903 29.0267ZM2.49845 23.5205L4.49953 19.2482L7.35291 17.856L10.378 18.1794L16.1977 21.4439L20.085 25.9708L20.5442 32.4054L19.1018 35.7874C18.9327 36.0474 17.6394 38.0359 16.8313 38.9255C16.7391 38.9957 16.6682 39.0719 16.6201 39.1508L16.6027 39.1802C16.5466 39.2223 16.439 39.2944 16.3688 39.3392L15.7632 39.6353L14.3102 40.0718L11.394 40.2389L4.51161 37.5105L1.73575 29.4491C1.77318 28.9385 2.00318 26.1032 2.49845 23.5205ZM22.6536 36.8201L22.9163 36.3943L22.445 36.2252L22.0434 36.0815L21.7653 35.9826L21.5855 36.2179L19.8845 38.4403L18.3379 39.3974L19.7154 37.2244L19.7241 37.2111L19.7314 37.197C19.7722 37.1202 20.6698 35.4272 21.1257 34.317L22.157 34.9352L22.2593 34.9967L22.3782 34.9927L23.3768 34.9606L23.4878 34.9573L23.5807 34.8978L23.6936 34.8263L23.7832 34.8457L24.3787 35.0963L24.5157 35.1538L24.6574 35.1097L25.4274 34.8677L26.3839 34.5676L25.4883 34.1191L25.3164 34.0329L25.2951 34.0222L25.2724 34.0135L24.1061 33.5925L23.9409 33.5323L23.7845 33.6125L23.3755 33.8217L22.9323 33.7148L21.9525 33.1286L21.8422 33.0624L21.7138 33.0724C21.6717 33.0758 21.5614 33.0851 21.4251 33.1045L21.79 26.3197L21.7974 26.176L21.7125 26.059L17.5512 20.3443L17.4983 20.2722L17.4195 20.228L11.1948 16.7966L11.0959 16.7424L10.9829 16.7471L9.10008 16.8233C11.1915 16.0286 13.5061 15.2713 13.5388 15.2599L17.9482 13.8256L17.9542 13.8229L17.9602 13.8216L20.2127 13.0068C20.2655 12.9868 21.1905 12.6445 21.9525 12.2803C21.9197 13.2574 21.8382 14.4786 21.8382 14.494L21.8254 14.6691L19.7361 13.6605L19.2595 13.7454L22.1116 15.2419L24.5785 17.082L25.1179 17.0164L22.6148 15.0494L22.3374 14.9157L22.9082 14.8175L23.2157 14.764L23.2424 14.4525C23.2478 14.3843 23.3514 13.1706 23.3955 12.0985C23.5272 11.9795 23.6088 11.8545 23.588 11.7389C23.5753 11.6647 23.5586 11.5912 23.5439 11.5183C24.35 11.8425 25.4415 12.2048 25.495 12.2235L25.5397 12.2375L25.5872 12.2422L27.9866 12.4507C28.2874 12.5663 29.8494 13.1806 30.9316 13.8343C30.6475 13.9526 30.3581 14.0943 30.0941 14.2346L29.3803 14.4171L28.9498 14.5267L28.8014 14.5648L28.7145 14.6911L27.7367 16.1275L27.6939 16.1903L27.6765 16.2659L27.063 18.9822L27.0609 18.9915L27.0596 19.0009L26.041 24.729L26.0357 24.7577L26.0343 24.7864L25.8465 30.451L25.8452 30.4864L25.8505 30.5206L26.2509 33.4294L26.2516 33.4367L26.2529 33.4434L26.4821 34.7768C25.1734 35.631 23.0092 37.0139 22.1831 37.5399C22.4517 37.1456 22.6342 36.8508 22.6536 36.8201ZM49.9018 18.0765L46.7162 18.3298L43.3803 18.4127L37.0086 18.3659L33.6953 18.0565L30.9971 17.5625C30.7631 17.4623 30.2505 17.2223 29.9216 16.9978C29.9089 16.9363 29.8929 16.8828 29.8789 16.8433L29.7786 16.1175L30.6288 15.5781L33.3304 15.0374L39.2824 14.9973L45.9743 14.9705L51.7418 15.2145L54.146 15.9671L54.6687 17.1454L49.9018 18.0765ZM56.6925 21.2968L56.748 21.2072L56.7534 21.1023L56.8202 19.7796L56.8616 18.7215L56.8623 18.7095V18.6974L56.8189 16.1389L56.8122 15.796L56.474 15.7445L56.4292 15.7378L56.4198 15.7185L56.3223 15.6523L53.7804 13.9352L53.7276 13.9004L53.6661 13.8831C53.6474 13.877 53.2891 13.7735 52.9856 13.6959C52.8553 13.2501 52.6829 12.6332 52.6482 12.5095L52.5499 11.8959C52.6327 11.9614 52.6889 12.0056 52.6962 12.0116L54.0504 13.1231L54.0765 13.1445L54.1059 13.1612L55.1606 13.7661L55.2201 13.8002L55.2889 13.8135L56.0241 13.9492L56.9058 14.2032L56.9619 14.2192L57.0208 14.2186L57.2827 14.2166L58.4123 14.2086L57.5347 13.4967L56.1698 12.3906L56.1525 12.3752L56.1324 12.3632L54.6593 11.4281L54.5698 11.3719L59.9603 12.5296L60.0291 12.5436L60.098 12.5342L73.4697 10.7831L73.5659 10.7697L73.6469 10.7149L76.1125 9.02926L76.1546 8.99984L76.1887 8.96105L77.2254 7.77534C77.2695 7.72254 77.466 7.48327 77.6879 7.18116C77.756 8.13093 77.752 9.16158 77.6772 10.3406C77.6498 10.3754 77.6264 10.4048 77.6137 10.4208L77.2033 10.898L76.0771 11.9434L73.1656 13.6003L72.55 13.9512L73.1636 14.3041L73.3735 14.4244L73.5539 14.5274L73.7424 14.4418L76.3839 13.2434L76.4053 13.234L76.4253 13.2214L77.4787 12.5884C77.4352 12.9981 77.3885 13.4078 77.3437 13.8088C77.2314 14.8081 77.1144 15.8394 77.0382 16.8607C76.8377 16.9904 76.6512 17.1595 76.581 17.225L75.9267 17.7229L72.7024 19.1085L71.9425 19.4353L72.667 19.8351L72.7685 19.8912L71.401 19.6853L71.1344 19.6472C71.3463 18.3773 71.6524 16.3721 71.6557 16.3488L71.6757 16.2184L71.6149 16.1008L70.6511 14.2494L69.7855 12.3464L69.6452 12.039L69.3177 12.1205L68.7067 12.2743L68.237 12.3919L68.4361 12.833L70.1452 16.6348L70.345 18.4548C70.2601 18.652 70.0663 19.1025 69.9126 19.4748L67.6113 19.1519L67.6013 19.1506L67.5899 19.1499L65.701 18.9848L65.687 18.9835L65.6743 18.9828L65.2546 18.9735L66.0346 17.9094L65.7511 17.7203L64.7627 18.9615L63.5916 18.9347L63.4753 18.9321L63.3757 18.9909L62.8684 19.2903L62.5316 19.4895L59.1836 19.3451L59.0245 19.3384L58.9022 19.442L58.683 19.6305L57.538 20.609L57.3269 20.6331L57.1276 20.6558L57.0254 20.8283L56.758 21.2781L56.6344 21.383L56.6925 21.2968ZM76.4273 6.83827L74.0058 8.2559L62.7561 10.6955L56.3189 10.2036L53.4856 9.15221L52.5686 8.22849L52.4242 6.9813C53.1721 5.94464 54.8257 4.38326 55.1539 4.07714L60.63 2.0132L66.739 1.59411L73.07 2.08402L76.9333 4.65398L76.4273 6.83827ZM62.1298 20.9018L62.2007 20.9566L61.9567 20.9218L62.1298 20.9018ZM74.2764 19.944L74.2905 19.9426L74.3045 19.94L75.402 19.7388L75.4361 19.7321L75.4689 19.7201L76.8905 19.1974L76.9286 19.184L76.946 19.172C76.9473 19.6914 76.9654 20.1873 77.0008 20.6652C76.0918 20.4099 74.9308 20.2207 74.8706 20.2107L73.6014 20.0188L74.2764 19.944ZM53.5338 31.8907L53.8005 31.8573L53.8432 31.5492L54.156 29.3034L54.7522 27.1078L54.795 26.95L54.7248 26.8217C54.7522 26.7395 54.7809 26.6586 54.8097 26.5771L54.8264 26.5296C54.922 26.3699 55.0396 26.1272 55.0543 26.0978L55.1245 25.9521L55.0804 25.8158C55.1278 25.6848 55.18 25.5411 55.2041 25.4749L56.5495 23.2177L58.9089 21.381C58.2352 21.8215 57.2747 22.4979 56.5683 23.1877L57.3864 21.8135L57.8789 21.3924L59.0693 21.2554L58.9089 21.381C58.9784 21.3349 59.046 21.2914 59.1095 21.2513L61.3071 20.9987L62.1453 21.0622L62.549 21.228L65.941 23.8614L66.7851 26.2429L67.4476 28.869L68.1995 33.9734L67.769 39.501L66.9476 42.0836L66.2905 43.3723L65.9364 43.8188L65.9196 43.8408L65.9056 43.8642C65.8976 43.8776 65.7157 44.1864 65.5834 44.5707C65.4925 44.7465 65.3228 45.0292 65.2512 45.1462L64.0996 46.1227L60.7951 46.3319L55.9313 39.9495L55.8798 39.882L55.8056 39.8399C55.8043 39.8392 55.8036 39.8385 55.8023 39.8379L55.8015 39.8312L55.6819 39.7249C55.6452 39.6935 55.5656 39.6313 55.4554 39.5979C54.7362 38.3995 53.8974 36.1063 53.7771 35.7741C53.7336 35.4425 53.4669 33.2623 53.5338 31.8907ZM53.2918 38.4376C53.2483 38.4763 53.2102 38.5124 53.1761 38.5472L53.1347 38.0753C53.1868 38.201 53.239 38.3233 53.2918 38.4376ZM96.5277 33.8545L96.5136 33.8591L96.4996 33.8651L95.4629 34.2742L95.3219 34.3297L95.2524 34.464L94.0467 36.78L92.8402 39.1768L90.6566 40.7014L87.9035 42.0983L85.2019 42.9772C85.1986 42.9786 84.7641 43.1096 84.2741 43.2547C84.7868 42.2761 85.1999 41.1232 85.2226 41.057L85.2386 41.0115L85.244 40.9627L85.373 39.6975L85.5347 38.2143L85.5374 38.1909V38.1689L85.5254 34.8557V34.7782L85.496 34.706L85.236 34.061L84.9753 33.412L84.5422 33.9607L84.3162 34.2475L84.2368 34.3477L84.2294 34.4774L84.089 37.193L83.3672 39.8619L80.8253 44.026L80.8026 44.0641L80.7879 44.1062C80.7805 44.1269 80.7711 44.161 80.7611 44.2051C80.0767 44.3722 79.1109 44.5988 79.0073 44.6228L74.9489 45.3808L71.1918 46.1073C71.1825 46.1093 70.6986 46.2042 70.1378 46.3085C70.9192 45.4463 71.6436 44.4484 71.6864 44.3889L71.7098 44.3555L71.7266 44.3181L73.1335 41.214L73.1395 41.2027L73.1442 41.1907L74.2724 38.231L74.4562 37.7478L73.943 37.6843L73.4443 37.6222L73.1115 37.5807L73.0085 37.9002L72.0628 40.8397L70.6177 42.994L66.9216 46.2978L66.852 46.3593L66.8166 46.4442C66.8019 46.4789 66.7604 46.5852 66.7357 46.7256C66.5733 46.7316 66.4002 46.7376 66.2331 46.743C66.2719 46.7069 66.2966 46.6841 66.302 46.6801L66.328 46.6554L66.3494 46.6267L67.0058 45.7611L67.0305 45.729L67.0479 45.6916C67.0539 45.6796 67.0706 45.6448 67.0893 45.6027C67.3346 45.4169 67.614 45.1114 67.6754 45.0432L67.6995 45.0165L67.7183 44.9844L68.3519 43.9591L68.3706 43.9277L68.3846 43.8929L69.3732 41.3638L69.3885 41.3223L69.3959 41.2782L70.228 35.7914L70.2401 35.7152L70.2227 35.6404L67.6 24.2624L67.5793 24.1722L67.5217 24.1007L64.5608 20.3918L66.5058 20.8303L66.5231 20.8343L66.5412 20.8363L70.0088 21.2955L73.3741 21.7293L76.4346 22.0694L79.1938 23.1529L79.2626 23.1783L79.3348 23.1803L82.5564 23.2391L88.5024 23.822L90.8223 25.4769L91.815 26.7823C91.8544 26.8491 91.9793 27.063 92.0649 27.2154C92.0843 27.3651 92.119 27.5168 92.1237 27.5362L92.1524 27.6572L92.2427 27.7414L93.6744 29.0788L93.6671 29.1029L93.3522 30.1509L93.3208 30.2518L93.3449 30.3561C93.3689 30.463 93.4217 30.6636 93.5166 30.8514C93.5019 30.8962 93.4946 30.9416 93.4933 30.9824L93.4845 31.2798L93.7659 31.3768L94.707 31.6982L94.7618 31.7176L94.8194 31.7203L95.7437 31.7624L95.7644 31.763L95.7838 31.7624L96.5117 31.7236L96.7703 31.9261L96.9595 32.0745L97.1807 31.979C97.2904 31.9315 97.3859 31.884 97.4695 31.8373C97.4835 31.8927 97.4962 31.9549 97.5082 32.0237L97.2356 33.6299L96.5277 33.8545ZM27.5984 40.7348L27.6344 40.6499L27.6291 40.5577L27.4058 36.5307C27.4479 36.3482 27.5796 35.7848 27.6351 35.4278C27.6812 35.3115 27.718 35.1745 27.7293 35.1284L27.7353 35.105L27.7393 35.081C27.7621 34.8918 27.7447 34.7514 27.7039 34.6485C27.7066 34.4226 27.6952 34.1345 27.6946 34.1198L27.6933 34.0924L27.6886 34.065L27.2621 31.6675L27.6578 21.9117L28.3235 18.6467L28.5361 17.7096C28.6363 17.878 28.778 18.0504 28.8288 18.1093L28.9264 18.2242L29.0868 18.2489C29.0868 18.2489 29.1149 18.2523 29.159 18.2523C29.1985 18.2523 29.2359 18.2496 29.2727 18.2429C29.8695 18.6052 30.81 19.0169 30.8534 19.0363L30.8821 19.049L30.9122 19.0571L34.2775 19.9513L34.3223 19.9634L34.3671 19.9647L41.3344 20.2013L41.3644 20.202L41.3952 20.1993L44.975 19.7822L48.6933 19.6098L52.1154 19.4541L52.1602 19.4514L52.2037 19.44L54.8986 18.7001L54.9688 18.6814L55.0282 18.6393C55.0817 18.6005 55.3531 18.402 55.6465 18.1414C55.6539 18.4682 55.6545 18.7516 55.6552 18.8264L55.3892 21.5107L55.3564 21.8375L55.6699 21.9365L55.8918 22.006L55.9079 22.0113L54.8511 22.9156L54.7742 22.9818L54.7369 23.0767L53.6554 25.8405L53.6527 25.8465L53.6507 25.8525L53.5491 26.1372C53.5103 26.2007 53.4702 26.271 53.4301 26.3465L53.7597 20.2548L53.4422 20.3611L53.1668 20.8035L53.1234 23.9637L52.7865 27.0843L53.1207 27.0008C53.0291 27.2147 52.9636 27.3838 52.9489 27.4226L52.8507 27.6766L52.9917 27.8082C52.858 28.2473 52.6989 28.7995 52.6909 28.8289L52.6788 28.8696L52.6762 28.9117L52.2197 35.2086L52.2144 35.2775L52.2317 35.3436C52.2451 35.3944 52.4229 36.0494 52.6729 36.8127L52.4604 36.8234L52.7584 41.2876L53.1895 41.1091L53.2337 41.5142L53.7536 41.2541L54.1507 41.0563L53.6955 41.5823L52.8727 41.7975L52.8286 41.8089L52.7885 41.8296L51.6101 42.4405L51.4825 42.5067L51.425 42.6377L51.3081 42.9031C50.9745 42.9666 50.5801 43.0094 50.3282 43.0267L50.3154 43.0274L50.3034 43.0287L47.5403 43.379L42.1972 44.177L32.5311 43.387C32.4001 43.3422 32.0231 43.2118 31.6989 43.0942L31.2077 41.8216C31.3066 41.595 31.5044 41.2856 31.6468 41.0924L32.3031 40.2984L32.3485 40.2436L32.372 40.1767L33.047 38.2879L41.7608 39.882L50.7266 37.9557L51.0273 37.4737L46.656 38.7577L41.8357 39.3767L33.3191 38.0218L33.1165 38.0947L33.2757 37.6475L32.6079 37.7451L32.3078 37.7886L32.1701 37.8093L32.0732 37.9096L31.743 38.2564L31.6648 38.3386L31.6407 38.4496L31.3987 39.5518L30.7799 40.4C30.3809 40.7602 29.5888 41.5817 29.7786 42.2601C28.9585 41.8263 28.0395 41.2709 28.0274 41.2628L27.857 41.1599L27.6705 41.2321L27.3383 41.3618L27.5984 40.7348ZM97.8906 29.7947C97.7462 29.6958 97.5825 29.5915 97.41 29.4966C97.4668 29.4658 97.5229 29.4344 97.5791 29.4023C97.7047 29.552 97.8258 29.6817 97.8478 29.7044L97.8866 29.7459L97.8979 29.7532L97.8906 29.7947Z" fill="#C4C4C4"/>
</svg>
