<svg width="256" height="246" viewBox="0 0 256 246" fill="none" xmlns="http://www.w3.org/2000/svg">
<path d="M247.791 146.828C247.791 146.828 241.011 145.271 237.845 143.787C231.904 139.74 219.253 132.704 219.253 132.704L202.476 127.471L185.045 131.567L173.657 143.514C173.657 143.514 173.508 144.254 173.763 144.35C173.105 144.837 171.312 145.317 171.312 145.317L157.235 146.889L141.896 150.264L129.833 149.495C129.833 149.495 126.915 148.826 124.934 148.38C127.853 147.161 133.041 145.777 133.041 145.777L141.451 144.546L150.696 139.456L155.414 138.874L157.013 138.684L158.514 138.932L159.317 138.878C159.391 137.504 160.649 135.748 160.649 135.748L161.176 135.426L162.865 136.666L163.053 135.376L162.798 134.5L164.165 134.516L166.395 133.887L167.134 132.197L167.561 130.742L166.248 130.834L165.192 130.342L163.43 130.363L159.352 133.359L156.591 137.213L154.995 137.039L153.921 134.923L157.754 131.718L159.243 128.756L157.278 125.994L155.103 129.603L154.719 131.904L153.568 132.208L151.83 131.217L151.335 134.813L151.329 136.522L150.036 137.461L149.511 135.815L149.496 133.487L151.48 129.875L153.641 127.408L153.355 125.303L150.789 125.74L148.702 126.996L147.664 129.26L146.114 131.866C146.114 131.866 146.332 134.494 148.488 134.025C148.709 134.562 148.824 135.357 148.882 136.092C148.763 135.9 148.392 136.021 148.392 136.021C148.392 136.021 146.661 137.57 145.729 138.269C145.651 138.251 145.481 138.385 145.481 138.385C145.481 138.385 145.44 138.437 145.418 138.464C144.272 139.048 141.984 140.224 141.984 140.224L140.517 140.935C140.517 140.935 139.146 141.349 139.664 141.478C139.651 141.478 139.637 141.478 139.623 141.478C139.506 141.463 139.39 141.466 139.279 141.492C136.511 141.662 130.999 143.124 130.999 143.124C130.999 143.124 128.625 143.603 127.325 143.928C130.813 139.532 133.325 134.315 135.886 129.272C136.484 128.506 137.034 127.712 137.524 126.871C137.679 126.774 137.919 126.565 137.919 126.565L139.569 124.739L141.37 122.946L141.696 121.772C141.696 121.772 140.769 121.755 140.501 122.008C140.115 122.34 139.742 122.686 139.376 123.037C139.147 123.242 138.916 123.445 138.686 123.648C142.158 117.886 148.957 106.286 148.957 106.286L157.459 99.474L167.807 95.299L178.574 91.677L191.276 83.948C191.276 83.948 195.251 80.31 196.722 77.898C197.823 81.345 200.861 87.924 200.861 87.924L207.536 92.571L209.992 93.087L219.431 93.089L228.757 87.953L241.578 68.169L243.616 57.293C243.616 57.293 242.079 49.356 241.2 45.399L241.206 45.001L240.906 43.931C240.845 43.589 240.744 42.902 240.744 42.902C240.744 42.902 240.108 42.669 239.818 43.211C239.703 43.165 239.516 43.279 239.516 43.279L234.475 50.351C234.475 50.351 233.35 52.486 232.917 53.601C232.853 53.63 232.807 53.722 232.807 53.722C232.807 53.722 232.797 53.859 232.793 53.927C232.212 55.465 231.065 58.566 231.065 58.566L217.193 69.37C217.193 69.37 216.993 69.415 216.91 69.445C215.245 69.782 211.906 70.502 211.906 70.502C211.906 70.502 205.05 74.586 202.599 73.787C202.532 73.635 202.277 73.596 202.277 73.596C202.277 73.596 202.24 73.604 202.222 73.608C202.178 73.583 202.087 73.539 202.087 73.539C202.087 73.539 201.884 73.448 201.77 73.442C202.591 72.843 203.398 72.229 204.181 71.588C206.397 70.038 208.477 68.359 210.41 66.539C211.032 66.038 212.245 64.992 212.245 64.992L215.953 61.388C215.953 61.388 216.055 61.262 216.108 61.2C221.994 54.793 226.156 46.921 226.949 38.379C228.011 34.355 229.678 26.202 229.678 26.202L230.042 23.604L230.355 20.27L231.819 0.513C231.819 0.513 231.519 0.22 231.187 0.237C231.176 0.158 231.167 0.08 231.152 0C218.835 7.472 203.53 30.86 203.53 30.86C203.53 30.86 194.287 57.37 196.51 71.871C192.357 66.831 192.709 51.573 192.709 51.573L193.886 42.936L191.867 20.108L191.22 18.956L190.575 20.265L186.059 34.683L178.221 57.021L180.648 66.742L187.102 71.136C187.102 71.136 192.248 73.823 195.438 74.434C192.645 77.885 185.947 83.051 185.947 83.051L168.402 90.803L160.826 92.77C160.826 92.77 158.998 93.727 158.062 94.29C160.088 91.303 164.955 85.981 164.955 85.981L168.681 86.278L170.66 86.241L172.236 83.02C172.236 83.02 170.789 82.676 170.141 83.231C169.516 82.161 170.527 80.936 170.527 80.936L171.756 78.78L171.098 75.735C171.098 75.735 170.254 77.092 169.421 77.565C168.632 77.143 168.986 75.761 168.986 75.761L168.193 73.658L165.183 75.933L166.146 80.093C166.146 80.093 167.11 81.491 166.742 82.441C166.111 82.406 165.988 81.474 165.988 81.474L164.42 79.911L162.78 81.57L158.821 89.392C158.821 89.392 157.454 91.691 156.57 92.775C159.873 78.781 164.549 65.023 162.704 50.121C164.026 50.408 166.491 50.961 166.491 50.961L170.397 49.598C171.14 49.663 171.624 49.708 171.624 49.708C171.624 49.708 172.043 49.367 172.624 48.818L175.633 47.769L177.985 39.322C177.178 40.939 174.782 44.941 170.539 45.62C177.717 42.836 177.278 36.127 178.737 30.449C178.852 30.531 179.145 31.144 179.145 31.144L178.381 37.898L180.409 30.617C180.409 30.617 180.243 29.523 180.045 28.941C179.777 27.827 179.45 26.717 178.989 25.683C178.957 25.597 178.882 25.421 178.882 25.421C178.882 25.421 178.835 25.336 178.812 25.302C178.79 25.172 178.753 24.911 178.753 24.911L178.187 24.061C178.187 24.061 178.184 24.059 178.182 24.059C177.985 23.916 177.557 24.354 177.557 24.354C177.557 24.354 177.092 25.389 176.85 25.903C176.823 25.948 176.796 26.005 176.771 26.071C176.618 26.397 176.462 26.725 176.307 27.051C175.852 27.908 175.409 28.77 174.953 29.625C174.816 29.589 174.712 29.609 174.695 29.723L174.464 30.434C174.383 30.559 174.337 30.68 174.317 30.794C173.918 31.51 173.491 32.212 173.041 32.902C172.191 33.66 170.476 35.159 170.476 35.159C170.476 35.159 168.822 36.314 168.063 36.949C167.963 36.912 167.632 37.101 167.632 37.101C167.632 37.101 167.097 37.589 166.883 37.851C166.629 37.783 166.094 38.519 166.094 38.519C166.094 38.519 165.756 39.284 165.955 39.457C165.719 40.025 165.284 41.261 165.284 41.261C165.284 41.261 164.612 42.903 164.225 43.703C165.427 39.398 165.643 31.874 165.643 31.874L165.611 26.803L163.005 12.797L162.068 11.557L161.123 12.468L156.695 24.926C156.695 24.926 155.538 33.925 156.682 39.155C154.902 37.917 150.781 36.253 150.781 36.253C150.781 36.253 145.382 33.878 142.68 32.692C141.309 31.43 138.588 28.879 138.588 28.879C138.588 28.879 138.009 28.747 137.71 28.96C137.688 28.951 137.673 28.945 137.673 28.945C137.673 28.945 137.658 28.976 137.638 29.017C137.187 29.381 136.866 30.033 137.211 30.381C136.666 36.503 141.817 46.619 141.817 46.619L143.207 47.746L150.368 50.426L155.77 50.918L160.204 50.742L160.926 52.119L160.192 63.387L156.666 82.099L152.992 90.413L142.646 109.581L133.451 124.362L127.383 134.249L112.935 150.798C112.935 150.798 108.263 155.193 106.656 158.062C106.785 154.521 108.731 147.994 108.731 147.994L109.706 142.723L110.287 136.174L113.244 128.05L115.938 123.135L118.62 120.979L119.437 121.192L122.375 121.78L123.473 118.04L121.18 116.135L119.315 117.781C119.315 117.781 117.753 118.957 116.099 118.599C117.741 118.119 118.954 116.334 118.954 116.334L118.643 112.834L117.408 111.874L116.234 112.81L115.539 117.357L115.176 119.716C115.176 119.716 115.751 121.571 114.86 122.491C113.535 121.442 114.013 118.7 114.013 118.7L114.026 116.969L113.706 116.517C113.744 116.496 113.778 116.472 113.82 116.453C113.757 116.441 113.702 116.437 113.642 116.429L112.556 114.899L110.238 116.922L111.12 121.926C111.12 121.926 112.636 122.231 113.234 121.813C114.438 123.118 113.446 125.731 113.446 125.731L109.381 131.119L108.977 134.065C108.977 134.065 109.362 135.09 109.242 135.526C105.455 133.702 105.059 126.542 105.059 126.542L106.034 124.856L107.532 120.132L108.303 117.061L110.135 113.174L109.445 111.567L107.292 111.952L106.173 115.856C106.173 115.856 106.687 118.304 105.041 120.417C105.041 119.075 105.032 117.067 105.032 117.067L103.311 115.254L101.259 117.081L103.022 121.615L104.149 126.527C104.149 126.527 104.401 127.746 103.869 128.416C102.184 126.884 100.238 123.012 100.238 123.012L100.161 121.643L99.7219 116.544L97.174 115.383L96.2019 117.559L98.192 121.147C97.26 119.411 97.0089 117.22 97.0089 117.22L97.6339 116.21L98.6129 116.799C98.6129 116.799 99.8479 119.069 99.3619 120.594C98.4609 119.457 98.492 118.086 97.494 117.096C97.855 118.53 98.2169 119.963 98.726 121.981C98.571 121.784 98.4299 121.567 98.2999 121.344L99.2069 122.979L101.238 126.68L107.445 135.231C107.445 135.231 107.802 135.622 107.906 135.834C107.492 142.133 103.272 154.049 103.272 154.049C103.272 154.049 102.668 156.589 102.449 157.875C101.057 149.571 96.1289 137.269 96.1289 137.269L86.808 121.592C86.808 121.592 81.5599 114.622 80.5129 110.101C82.6769 110.38 86.886 110.497 86.886 110.497L96.442 105.798L103.019 93.896L103.652 90.021L104.695 86.269L104.837 85.367L103.871 85.385L87.491 98.745C87.491 98.745 84.681 101.798 83.703 103.683C84.722 99.911 88.683 93.353 88.683 93.353L100.209 75.939L102.889 64.312L99.615 42.824L96.994 29.426L96.158 24.108L95.5709 22.985L94.6229 23.917L90.0869 31.33L85.4049 37.673L82.2209 49.796L80.7579 59.03L81.0339 73.509L80.77 90.536L80.4829 91.954C80.4829 91.954 80.4839 92.933 80.0399 93.542C79.4839 91.647 78.382 87.853 78.382 87.853L74.625 73.891L66.271 57.755L74.219 75.816L77.7729 89.171L79.293 97.718L79.23 106.001L79.714 107.597L82.0769 107.488L83.4459 105.922L86.7999 101.192C86.7999 101.192 96.7439 94.024 101.586 89.393C100.171 93.267 94.366 101.196 92.245 102.317C93.602 100.151 95.072 98.208 95.739 95.819C93.953 97.95 91.4929 102.885 91.4929 102.885C91.4929 102.885 90.233 105.124 88.439 104.432C89.414 103.08 91.287 100.575 91.287 100.575L91.604 99.544L90.647 99.858L89.549 101.356L83.684 107.237L80.455 108.354L80.0609 108.749L80.01 111.034C80.01 111.034 80.773 112.1 80.235 112.894C80.203 112.856 80.1709 112.821 80.1389 112.797C79.2929 110.692 77.245 111.348 75.49 110.84C76.107 110.098 77.671 109.644 77.671 109.644L78.697 108.175L77.072 104.067L75.7589 97.093C75.7589 97.093 76.16 90.821 76.505 87.688C75.17 90.587 75.0269 93.705 74.8829 97.293C72.1319 91.117 70.442 85.263 70.895 78.904C70.029 80.975 70.4899 83.072 70.2589 85.465C68.8519 82.483 66.468 77.033 66.468 77.033L66.0229 68.1C66.0229 68.1 66.2409 63.81 64.3669 61.646C65.2599 66.734 65.85 71.35 65.611 76.08C60.151 69.74 58.9229 62.242 58.9669 54.332C58.0849 57.961 58.9639 61.459 59.0869 65.035C56.6459 59.863 52.131 49.392 52.131 49.392L47.588 37.869C47.588 37.869 44.7529 28.053 45.0129 22.391C46.5639 25.025 49.141 29.484 49.141 29.484L66.161 57.543L60.098 45.832L50.973 30.566L47.7169 24.805L45.343 19.558L44.864 18.773L44.042 19.206L42.97 23.066C43.274 22.459 43.7609 21.72 44.4259 21.464C43.9979 24.795 44.421 31.15 44.421 31.15L47.9149 40.835L57.8319 64.449L62.887 74.421C62.878 74.421 62.869 74.419 62.861 74.418C62.873 74.425 62.884 74.432 62.897 74.439L62.896 74.423C66.275 78.511 70.484 88.103 70.484 88.103L70.589 88.84L69.6129 88.894L65.8009 86.865C65.8009 86.865 61.2609 83.093 59.7209 80.473C59.2059 80.98 59.4919 81.757 59.4919 81.757L69.052 89.546L72.309 93.042L74.027 98.562C74.027 98.562 75.5919 103.408 76.6019 105.775C76.0869 105.508 75.4359 104.802 75.4359 104.802L65.7429 94.748L63.3779 92.809L66.84 97.011C66.84 97.011 71.822 102.12 74.095 105.176C72.429 104.857 69.752 103.518 69.752 103.518L46.678 93.783L27.2999 92.829L8.86902 98.775L1.26099 103.011L0 104.353L0.74292 105.404L11.875 106.187L18.7799 108.041L20.844 110.295L32.86 114.774L58.671 116.997L71.6749 113.143C71.6749 113.143 73.371 112.292 74.484 111.734C70.265 117.105 63.866 128.371 63.866 128.371L61.037 140.207L60.954 151.25L61.432 154.746L62.0129 155.722L62.778 154.854L68.505 146.981L74.73 137.161H74.7319L75.9189 135.694L76.288 134.706L76.2889 134.704L79.984 128.875C79.984 128.875 81.539 118.983 79.136 113.791C79.214 113.841 79.291 113.894 79.366 113.95C79.364 114.12 79.449 114.372 79.449 114.372L90.588 135.427C90.588 135.427 95.541 149.036 97.325 156.089C97.322 156.511 97.2789 157.36 97.2789 157.36C97.2789 157.36 97.205 159.584 97.204 160.704C94.651 166.577 87.787 177.557 87.787 177.557C87.787 177.557 83.66 182.82 80.823 187.568C80.8 187.301 80.756 186.768 80.756 186.768L79.4879 181.043C79.4879 181.043 79.277 180.812 79.172 180.806C79.07 180.724 78.95 180.656 78.83 180.601C78.641 179.589 77.2579 181.576 77.2579 181.576C77.2579 181.576 77.2689 181.64 77.2749 181.672C76.3639 183.738 74.487 186.643 73.866 187.584C73.705 187.769 73.5429 187.953 73.3739 188.137C73.1029 187.744 72.6699 188.505 72.6699 188.505C72.6699 188.505 72.684 188.77 72.692 188.902C72.373 189.429 72.355 190.353 72.767 190.322C73.185 200.412 69.9719 220.627 69.9719 220.627C69.9719 220.627 68.7279 229.973 68.3999 234.675L71.072 234.504L70.968 235.399L77.4459 234.941C78.1089 235.307 78.5709 235.53 78.5709 235.53L79.7729 234.777L81.485 234.655L81.531 233.84L82.38 233.786L82.6639 229.937L82.7279 222.264L83.547 216.998L84.2109 212.84L84.9719 209.187L85.158 204.152C85.158 204.152 84.919 203.745 84.855 203.543C85.024 203.388 85.209 203.081 85.209 203.081C85.209 203.081 86.0579 199.118 86.3009 197.071C87.3059 193.241 91.322 186.46 91.322 186.46L98.656 175.893L103.253 170.246L111.907 162.461L112.996 161.386C112.996 161.386 112.963 161.381 112.917 161.373C114.185 160.246 117.008 158.529 117.008 158.529L125.262 156.467L133.097 154.402C133.097 154.402 133.262 154.193 133.182 154.005C134.243 153.785 136.352 153.289 136.352 153.289C136.352 153.289 136.462 153.172 136.403 153.059L144.331 152.873L157.995 149.656L169.453 148.777L172.037 148.851L170.135 150.775L158.131 157.976L144.5 164.926L136.122 170.28L128.766 181.54L127.063 184.834L124.983 192.993L122.61 199.094L122.253 200.664L123.965 200.354L126.586 198.692L137.551 194.801L155.193 188.672L160.918 181.394L171.209 163.899C171.209 163.899 175.208 157.497 176.424 153.674C177.733 158.215 175.69 166.707 175.69 166.707L175.503 182.541L177.025 193.449L181.577 213.565L193.719 241.877L194.406 244.883L194.877 245.664L195.791 245.301L200.776 237.646L203.403 227.241L206.636 214.435L207.054 198.397L204.121 184.854L203.23 182.12L193.959 161.083C193.959 161.083 190.81 155.298 188.315 152.004C188.173 151.773 187.889 151.307 187.889 151.307C187.889 151.307 187.629 150.869 187.503 150.646C187.569 150.517 187.572 150.251 187.572 150.251C187.572 150.251 186.863 148.737 186.237 148.102C187.782 148.89 190.953 150.295 190.953 150.295L201.669 153.71C201.669 153.71 201.813 153.733 201.887 153.733C204.606 154.776 210.005 156.946 210.005 156.946L215.594 159.114L222.479 160.376L235.134 158.985H235.135H235.136L237.871 158.901L238.534 158.612L242.593 158.165C242.593 158.165 250.81 153.985 254.923 151.897C254.971 151.922 255.065 151.972 255.065 151.972L255.627 150.28L247.791 146.828Z" fill="#5E1B17"/>
</svg>
